<svg width="201" height="151" viewBox="0 0 201 151" fill="none" xmlns="http://www.w3.org/2000/svg">
<path d="M187.065 135.001H14.1934V16.9701H187.065V135.001ZM15.5584 133.639H185.7V18.3324H15.5584V133.639Z" fill="url(#paint0_linear_116_2042)"/>
<path d="M27.7119 24.5718C27.7119 25.2508 27.5102 25.9146 27.1322 26.4791C26.7542 27.0437 26.217 27.4837 25.5884 27.7436C24.9598 28.0034 24.2682 28.0714 23.6009 27.9389C22.9336 27.8065 22.3207 27.4795 21.8396 26.9994C21.3585 26.5193 21.0309 25.9075 20.8981 25.2416C20.7654 24.5756 20.8335 23.8854 21.0939 23.2581C21.3542 22.6308 21.7952 22.0946 22.3609 21.7174C22.9265 21.3401 23.5916 21.1388 24.272 21.1388C25.1843 21.1388 26.0593 21.5005 26.7044 22.1443C27.3495 22.7881 27.7119 23.6613 27.7119 24.5718Z" fill="url(#paint1_linear_116_2042)"/>
<path opacity="0.85" d="M41.7061 24.5718C41.7061 25.2508 41.5043 25.9146 41.1263 26.4791C40.7484 27.0437 40.2111 27.4837 39.5825 27.7436C38.954 28.0034 38.2623 28.0714 37.595 27.9389C36.9277 27.8065 36.3148 27.4795 35.8337 26.9994C35.3526 26.5193 35.025 25.9075 34.8923 25.2416C34.7595 24.5756 34.8277 23.8854 35.088 23.2581C35.3484 22.6308 35.7893 22.0946 36.355 21.7174C36.9207 21.3401 37.5858 21.1388 38.2661 21.1388C39.1785 21.1388 40.0534 21.5005 40.6985 22.1443C41.3437 22.7881 41.7061 23.6613 41.7061 24.5718Z" fill="url(#paint2_linear_116_2042)"/>
<path opacity="0.6" d="M55.7979 24.5718C55.7979 25.2508 55.5961 25.9146 55.2181 26.4791C54.8402 27.0437 54.3029 27.4837 53.6743 27.7436C53.0458 28.0034 52.3541 28.0714 51.6868 27.9389C51.0195 27.8065 50.4066 27.4795 49.9255 26.9994C49.4444 26.5193 49.1168 25.9075 48.9841 25.2416C48.8513 24.5756 48.9195 23.8854 49.1798 23.2581C49.4402 22.6308 49.8811 22.0946 50.4468 21.7174C51.0125 21.3401 51.6776 21.1388 52.3579 21.1388C53.2703 21.1388 54.1452 21.5005 54.7903 22.1443C55.4355 22.7881 55.7979 23.6613 55.7979 24.5718Z" fill="url(#paint3_linear_116_2042)"/>
<path d="M186.389 30.6205H14.8828V31.9828H186.389V30.6205Z" fill="url(#paint4_linear_116_2042)"/>
<mask id="path-6-inside-1_116_2042" fill="white">
<path d="M15.582 31.9828H50.5479V133.55H15.582V31.9828Z"/>
</mask>
<path d="M15.582 31.9828H50.5479V133.55H15.582V31.9828Z" fill="url(#paint5_linear_116_2042)" fill-opacity="0.3"/>
<path d="M49.5479 31.9828V133.55H51.5479V31.9828H49.5479Z" fill="url(#paint6_linear_116_2042)" mask="url(#path-6-inside-1_116_2042)"/>
<rect x="19.0664" y="35.7664" width="28" height="4" rx="2" fill="url(#paint7_linear_116_2042)" fill-opacity="0.4"/>
<rect x="19.0664" y="44.7664" width="28" height="4" rx="2" fill="url(#paint8_linear_116_2042)" fill-opacity="0.4"/>
<rect x="19.0664" y="53.7664" width="28" height="4" rx="2" fill="url(#paint9_linear_116_2042)" fill-opacity="0.4"/>
<rect x="19.0664" y="62.7664" width="28" height="4" rx="2" fill="url(#paint10_linear_116_2042)" fill-opacity="0.4"/>
<rect x="19.0664" y="71.7664" width="28" height="4" rx="2" fill="url(#paint11_linear_116_2042)" fill-opacity="0.4"/>
<rect x="19.0664" y="80.7664" width="28" height="4" rx="2" fill="url(#paint12_linear_116_2042)" fill-opacity="0.4"/>
<rect x="19.0664" y="89.7664" width="28" height="4" rx="2" fill="url(#paint13_linear_116_2042)" fill-opacity="0.4"/>
<rect x="19.0664" y="98.7664" width="28" height="4" rx="2" fill="url(#paint14_linear_116_2042)" fill-opacity="0.4"/>
<rect x="19.0664" y="107.766" width="28" height="4" rx="2" fill="url(#paint15_linear_116_2042)" fill-opacity="0.4"/>
<rect x="19.0664" y="116.766" width="28" height="4" rx="2" fill="url(#paint16_linear_116_2042)" fill-opacity="0.4"/>
<rect x="19.0664" y="125.766" width="28" height="4" rx="2" fill="url(#paint17_linear_116_2042)" fill-opacity="0.4"/>
<rect x="68.5352" y="40.2664" width="6" height="6" fill="#8874ED" stroke="#8874ED"/>
<rect x="68.5352" y="40.4858" width="6" height="6" fill="#8874ED" stroke="#8874ED"/>
<rect x="68.5352" y="40.2664" width="6" height="6" fill="#8874ED" stroke="#8874ED"/>
<rect x="68.5352" y="40.2848" width="6" height="6" fill="#8874ED" stroke="#8874ED"/>
<rect x="72.0352" y="43.7848" width="1.97168" height="1.97168" fill="url(#paint18_linear_116_2042)" fill-opacity="0.2" stroke="#8874ED"/>
<path d="M75.7429 47.9713L75.7429 47.9714L77.9482 57.1551C77.9482 57.1551 77.9482 57.1551 77.9482 57.1552C78.0477 57.5691 78.6143 57.6199 78.7864 57.2326L78.7865 57.2324L80.3422 53.7352L80.3425 53.7344C80.4328 53.5323 80.5684 53.3536 80.7387 53.2123C80.909 53.0709 81.1096 52.9705 81.3249 52.9189M75.7429 47.9713L81.4414 53.4052M75.7429 47.9713C75.7236 47.891 75.7271 47.8069 75.7529 47.7285C75.7787 47.6501 75.8258 47.5803 75.889 47.5272C75.9522 47.474 76.029 47.4395 76.1107 47.4275C76.1923 47.4155 76.2757 47.4265 76.3515 47.4592M75.7429 47.9713L76.3515 47.4592M81.3249 52.9189L81.4414 53.4052M81.3249 52.9189L81.3246 52.919L81.4414 53.4052M81.3249 52.9189L84.95 52.0481C85.3646 51.9485 85.4139 51.3765 85.0225 51.2075L85.0224 51.2074L76.3516 47.4592L76.5499 47.0002M81.4414 53.4052L85.0668 52.5342C85.9486 52.3224 86.0533 51.1081 85.2208 50.7485L76.5499 47.0002M76.5499 47.0002L76.3515 47.4592M76.5499 47.0002C76.3888 46.9307 76.2116 46.9073 76.038 46.9328C75.8644 46.9583 75.7014 47.0316 75.5671 47.1446C75.4329 47.2575 75.3327 47.4056 75.2779 47.5723C75.2231 47.7389 75.2158 47.9175 75.2567 48.0881L76.3515 47.4592" fill="url(#paint19_linear_116_2042)" stroke="#323232"/>
<defs>
<linearGradient id="paint0_linear_116_2042" x1="14.1934" y1="69.4935" x2="241.803" y2="73.7508" gradientUnits="userSpaceOnUse">
<stop stop-color="#A478E8"/>
<stop offset="1" stop-color="#516CF7"/>
</linearGradient>
<linearGradient id="paint1_linear_116_2042" x1="20.832" y1="24.1942" x2="29.8921" y2="24.3101" gradientUnits="userSpaceOnUse">
<stop stop-color="#A478E8"/>
<stop offset="1" stop-color="#516CF7"/>
</linearGradient>
<linearGradient id="paint2_linear_116_2042" x1="34.8262" y1="24.1942" x2="43.8862" y2="24.3101" gradientUnits="userSpaceOnUse">
<stop stop-color="#A478E8"/>
<stop offset="1" stop-color="#516CF7"/>
</linearGradient>
<linearGradient id="paint3_linear_116_2042" x1="48.918" y1="24.1942" x2="57.978" y2="24.3101" gradientUnits="userSpaceOnUse">
<stop stop-color="#A478E8"/>
<stop offset="1" stop-color="#516CF7"/>
</linearGradient>
<linearGradient id="paint4_linear_116_2042" x1="14.8828" y1="31.2267" x2="77.8961" y2="132.536" gradientUnits="userSpaceOnUse">
<stop stop-color="#A478E8"/>
<stop offset="1" stop-color="#516CF7"/>
</linearGradient>
<linearGradient id="paint5_linear_116_2042" x1="15.582" y1="77.1797" x2="61.6347" y2="77.3821" gradientUnits="userSpaceOnUse">
<stop stop-color="#A478E8"/>
<stop offset="1" stop-color="#516CF7"/>
</linearGradient>
<linearGradient id="paint6_linear_116_2042" x1="15.582" y1="77.1797" x2="61.6347" y2="77.3821" gradientUnits="userSpaceOnUse">
<stop stop-color="#A478E8"/>
<stop offset="1" stop-color="#516CF7"/>
</linearGradient>
<linearGradient id="paint7_linear_116_2042" x1="19.0664" y1="37.5463" x2="55.6529" y2="40.817" gradientUnits="userSpaceOnUse">
<stop stop-color="#A478E8"/>
<stop offset="1" stop-color="#516CF7"/>
</linearGradient>
<linearGradient id="paint8_linear_116_2042" x1="19.0664" y1="46.5463" x2="55.6529" y2="49.817" gradientUnits="userSpaceOnUse">
<stop stop-color="#A478E8"/>
<stop offset="1" stop-color="#516CF7"/>
</linearGradient>
<linearGradient id="paint9_linear_116_2042" x1="19.0664" y1="55.5463" x2="55.6529" y2="58.817" gradientUnits="userSpaceOnUse">
<stop stop-color="#A478E8"/>
<stop offset="1" stop-color="#516CF7"/>
</linearGradient>
<linearGradient id="paint10_linear_116_2042" x1="19.0664" y1="64.5463" x2="55.6529" y2="67.817" gradientUnits="userSpaceOnUse">
<stop stop-color="#A478E8"/>
<stop offset="1" stop-color="#516CF7"/>
</linearGradient>
<linearGradient id="paint11_linear_116_2042" x1="19.0664" y1="73.5463" x2="55.6529" y2="76.817" gradientUnits="userSpaceOnUse">
<stop stop-color="#A478E8"/>
<stop offset="1" stop-color="#516CF7"/>
</linearGradient>
<linearGradient id="paint12_linear_116_2042" x1="19.0664" y1="82.5463" x2="55.6529" y2="85.817" gradientUnits="userSpaceOnUse">
<stop stop-color="#A478E8"/>
<stop offset="1" stop-color="#516CF7"/>
</linearGradient>
<linearGradient id="paint13_linear_116_2042" x1="19.0664" y1="91.5463" x2="55.6529" y2="94.817" gradientUnits="userSpaceOnUse">
<stop stop-color="#A478E8"/>
<stop offset="1" stop-color="#516CF7"/>
</linearGradient>
<linearGradient id="paint14_linear_116_2042" x1="19.0664" y1="100.546" x2="55.6529" y2="103.817" gradientUnits="userSpaceOnUse">
<stop stop-color="#A478E8"/>
<stop offset="1" stop-color="#516CF7"/>
</linearGradient>
<linearGradient id="paint15_linear_116_2042" x1="19.0664" y1="109.546" x2="55.6529" y2="112.817" gradientUnits="userSpaceOnUse">
<stop stop-color="#A478E8"/>
<stop offset="1" stop-color="#516CF7"/>
</linearGradient>
<linearGradient id="paint16_linear_116_2042" x1="19.0664" y1="118.546" x2="55.6529" y2="121.817" gradientUnits="userSpaceOnUse">
<stop stop-color="#A478E8"/>
<stop offset="1" stop-color="#516CF7"/>
</linearGradient>
<linearGradient id="paint17_linear_116_2042" x1="19.0664" y1="127.546" x2="55.6529" y2="130.817" gradientUnits="userSpaceOnUse">
<stop stop-color="#A478E8"/>
<stop offset="1" stop-color="#516CF7"/>
</linearGradient>
<linearGradient id="paint18_linear_116_2042" x1="71.5352" y1="44.6072" x2="75.4485" y2="44.6572" gradientUnits="userSpaceOnUse">
<stop stop-color="#A478E8"/>
<stop offset="1" stop-color="#516CF7"/>
</linearGradient>
<linearGradient id="paint19_linear_116_2042" x1="76.2135" y1="52.0749" x2="88.3416" y2="49.2975" gradientUnits="userSpaceOnUse">
<stop stop-color="#A478E8"/>
<stop offset="1" stop-color="#516CF7"/>
</linearGradient>
</defs>
</svg>
