<svg width="201" height="151" viewBox="0 0 201 151" fill="none" xmlns="http://www.w3.org/2000/svg">
<path d="M187.065 135.001H14.1934V16.9701H187.065V135.001ZM15.5584 133.639H185.7V18.3324H15.5584V133.639Z" fill="url(#paint0_linear_116_2043)"/>
<path d="M27.7119 24.5718C27.7119 25.2508 27.5102 25.9146 27.1322 26.4791C26.7542 27.0437 26.217 27.4837 25.5884 27.7436C24.9598 28.0034 24.2682 28.0714 23.6009 27.9389C22.9336 27.8065 22.3207 27.4795 21.8396 26.9994C21.3585 26.5193 21.0309 25.9075 20.8981 25.2416C20.7654 24.5756 20.8335 23.8854 21.0939 23.2581C21.3542 22.6308 21.7952 22.0946 22.3609 21.7174C22.9265 21.3401 23.5916 21.1388 24.272 21.1388C25.1843 21.1388 26.0593 21.5005 26.7044 22.1443C27.3495 22.7881 27.7119 23.6613 27.7119 24.5718Z" fill="url(#paint1_linear_116_2043)"/>
<path opacity="0.85" d="M41.7061 24.5718C41.7061 25.2508 41.5043 25.9146 41.1263 26.4791C40.7484 27.0437 40.2111 27.4837 39.5825 27.7436C38.954 28.0034 38.2623 28.0714 37.595 27.9389C36.9277 27.8065 36.3148 27.4795 35.8337 26.9994C35.3526 26.5193 35.025 25.9075 34.8923 25.2416C34.7595 24.5756 34.8277 23.8854 35.088 23.2581C35.3484 22.6308 35.7893 22.0946 36.355 21.7174C36.9207 21.3401 37.5858 21.1388 38.2661 21.1388C39.1785 21.1388 40.0534 21.5005 40.6985 22.1443C41.3437 22.7881 41.7061 23.6613 41.7061 24.5718Z" fill="url(#paint2_linear_116_2043)"/>
<path opacity="0.6" d="M55.7979 24.5718C55.7979 25.2508 55.5961 25.9146 55.2181 26.4791C54.8402 27.0437 54.3029 27.4837 53.6743 27.7436C53.0458 28.0034 52.3541 28.0714 51.6868 27.9389C51.0195 27.8065 50.4066 27.4795 49.9255 26.9994C49.4444 26.5193 49.1168 25.9075 48.9841 25.2416C48.8513 24.5756 48.9195 23.8854 49.1798 23.2581C49.4402 22.6308 49.8811 22.0946 50.4468 21.7174C51.0125 21.3401 51.6776 21.1388 52.3579 21.1388C53.2703 21.1388 54.1452 21.5005 54.7903 22.1443C55.4355 22.7881 55.7979 23.6613 55.7979 24.5718Z" fill="url(#paint3_linear_116_2043)"/>
<path d="M186.389 30.6205H14.8828V31.9828H186.389V30.6205Z" fill="url(#paint4_linear_116_2043)"/>
<mask id="path-6-inside-1_116_2043" fill="white">
<path d="M15.582 31.9828H50.5479V133.55H15.582V31.9828Z"/>
</mask>
<path d="M15.582 31.9828H50.5479V133.55H15.582V31.9828Z" fill="url(#paint5_linear_116_2043)" fill-opacity="0.3"/>
<path d="M49.5479 31.9828V133.55H51.5479V31.9828H49.5479Z" fill="url(#paint6_linear_116_2043)" mask="url(#path-6-inside-1_116_2043)"/>
<rect x="19.0664" y="35.7664" width="28" height="4" rx="2" fill="url(#paint7_linear_116_2043)" fill-opacity="0.4"/>
<rect x="19.0664" y="44.7664" width="28" height="4" rx="2" fill="url(#paint8_linear_116_2043)" fill-opacity="0.4"/>
<rect x="19.0664" y="53.7664" width="28" height="4" rx="2" fill="url(#paint9_linear_116_2043)" fill-opacity="0.4"/>
<rect x="19.0664" y="62.7664" width="28" height="4" rx="2" fill="url(#paint10_linear_116_2043)" fill-opacity="0.4"/>
<rect x="19.0664" y="71.7664" width="28" height="4" rx="2" fill="url(#paint11_linear_116_2043)" fill-opacity="0.4"/>
<rect x="19.0664" y="80.7664" width="28" height="4" rx="2" fill="url(#paint12_linear_116_2043)" fill-opacity="0.4"/>
<rect x="19.0664" y="89.7664" width="28" height="4" rx="2" fill="url(#paint13_linear_116_2043)" fill-opacity="0.4"/>
<rect x="19.0664" y="98.7664" width="28" height="4" rx="2" fill="url(#paint14_linear_116_2043)" fill-opacity="0.4"/>
<rect x="19.0664" y="107.766" width="28" height="4" rx="2" fill="url(#paint15_linear_116_2043)" fill-opacity="0.4"/>
<rect x="19.0664" y="116.766" width="28" height="4" rx="2" fill="url(#paint16_linear_116_2043)" fill-opacity="0.4"/>
<rect x="19.0664" y="125.766" width="28" height="4" rx="2" fill="url(#paint17_linear_116_2043)" fill-opacity="0.4"/>
<rect x="68.5352" y="40.2847" width="6" height="6" fill="#8874ED" stroke="#8874ED"/>
<rect x="68.5352" y="114.18" width="6" height="6" fill="#8874ED" stroke="#8874ED"/>
<rect x="142.43" y="114.18" width="6" height="6" fill="#8874ED" stroke="#8874ED"/>
<rect x="142.43" y="40.2847" width="6" height="6" fill="#8874ED" stroke="#8874ED"/>
<rect x="72.0352" y="43.7847" width="72.8955" height="72.8955" fill="url(#paint18_linear_116_2043)" fill-opacity="0.2" stroke="#8874ED"/>
<path d="M146.505 119.111L146.505 119.111L148.71 128.294C148.71 128.294 148.71 128.294 148.71 128.294C148.809 128.708 149.376 128.759 149.548 128.372L149.548 128.372L151.104 124.874L151.104 124.874C151.195 124.672 151.33 124.493 151.5 124.352C151.671 124.21 151.871 124.11 152.087 124.058M146.505 119.111L152.203 124.544M146.505 119.111C146.485 119.03 146.489 118.946 146.515 118.868C146.54 118.789 146.588 118.72 146.651 118.666C146.714 118.613 146.791 118.579 146.872 118.567C146.954 118.555 147.037 118.566 147.113 118.598M146.505 119.111L147.113 118.598M152.087 124.058L152.203 124.544M152.087 124.058L152.086 124.058L152.203 124.544M152.087 124.058L155.712 123.187C156.126 123.088 156.176 122.516 155.784 122.347L155.784 122.347L147.113 118.599L147.312 118.14M152.203 124.544L155.829 123.674C156.71 123.462 156.815 122.247 155.982 121.888L147.312 118.14M147.312 118.14L147.113 118.598M147.312 118.14C147.151 118.07 146.973 118.047 146.8 118.072C146.626 118.098 146.463 118.171 146.329 118.284C146.195 118.397 146.094 118.545 146.04 118.712C145.985 118.878 145.977 119.057 146.018 119.227L147.113 118.598" fill="url(#paint19_linear_116_2043)" stroke="#323232"/>
<defs>
<linearGradient id="paint0_linear_116_2043" x1="14.1934" y1="69.4935" x2="241.803" y2="73.7508" gradientUnits="userSpaceOnUse">
<stop stop-color="#A478E8"/>
<stop offset="1" stop-color="#516CF7"/>
</linearGradient>
<linearGradient id="paint1_linear_116_2043" x1="20.832" y1="24.1942" x2="29.8921" y2="24.3101" gradientUnits="userSpaceOnUse">
<stop stop-color="#A478E8"/>
<stop offset="1" stop-color="#516CF7"/>
</linearGradient>
<linearGradient id="paint2_linear_116_2043" x1="34.8262" y1="24.1942" x2="43.8862" y2="24.3101" gradientUnits="userSpaceOnUse">
<stop stop-color="#A478E8"/>
<stop offset="1" stop-color="#516CF7"/>
</linearGradient>
<linearGradient id="paint3_linear_116_2043" x1="48.918" y1="24.1942" x2="57.978" y2="24.3101" gradientUnits="userSpaceOnUse">
<stop stop-color="#A478E8"/>
<stop offset="1" stop-color="#516CF7"/>
</linearGradient>
<linearGradient id="paint4_linear_116_2043" x1="14.8828" y1="31.2267" x2="77.8961" y2="132.536" gradientUnits="userSpaceOnUse">
<stop stop-color="#A478E8"/>
<stop offset="1" stop-color="#516CF7"/>
</linearGradient>
<linearGradient id="paint5_linear_116_2043" x1="15.582" y1="77.1797" x2="61.6347" y2="77.3821" gradientUnits="userSpaceOnUse">
<stop stop-color="#A478E8"/>
<stop offset="1" stop-color="#516CF7"/>
</linearGradient>
<linearGradient id="paint6_linear_116_2043" x1="15.582" y1="77.1797" x2="61.6347" y2="77.3821" gradientUnits="userSpaceOnUse">
<stop stop-color="#A478E8"/>
<stop offset="1" stop-color="#516CF7"/>
</linearGradient>
<linearGradient id="paint7_linear_116_2043" x1="19.0664" y1="37.5463" x2="55.6529" y2="40.817" gradientUnits="userSpaceOnUse">
<stop stop-color="#A478E8"/>
<stop offset="1" stop-color="#516CF7"/>
</linearGradient>
<linearGradient id="paint8_linear_116_2043" x1="19.0664" y1="46.5463" x2="55.6529" y2="49.817" gradientUnits="userSpaceOnUse">
<stop stop-color="#A478E8"/>
<stop offset="1" stop-color="#516CF7"/>
</linearGradient>
<linearGradient id="paint9_linear_116_2043" x1="19.0664" y1="55.5463" x2="55.6529" y2="58.817" gradientUnits="userSpaceOnUse">
<stop stop-color="#A478E8"/>
<stop offset="1" stop-color="#516CF7"/>
</linearGradient>
<linearGradient id="paint10_linear_116_2043" x1="19.0664" y1="64.5463" x2="55.6529" y2="67.817" gradientUnits="userSpaceOnUse">
<stop stop-color="#A478E8"/>
<stop offset="1" stop-color="#516CF7"/>
</linearGradient>
<linearGradient id="paint11_linear_116_2043" x1="19.0664" y1="73.5463" x2="55.6529" y2="76.817" gradientUnits="userSpaceOnUse">
<stop stop-color="#A478E8"/>
<stop offset="1" stop-color="#516CF7"/>
</linearGradient>
<linearGradient id="paint12_linear_116_2043" x1="19.0664" y1="82.5463" x2="55.6529" y2="85.817" gradientUnits="userSpaceOnUse">
<stop stop-color="#A478E8"/>
<stop offset="1" stop-color="#516CF7"/>
</linearGradient>
<linearGradient id="paint13_linear_116_2043" x1="19.0664" y1="91.5463" x2="55.6529" y2="94.817" gradientUnits="userSpaceOnUse">
<stop stop-color="#A478E8"/>
<stop offset="1" stop-color="#516CF7"/>
</linearGradient>
<linearGradient id="paint14_linear_116_2043" x1="19.0664" y1="100.546" x2="55.6529" y2="103.817" gradientUnits="userSpaceOnUse">
<stop stop-color="#A478E8"/>
<stop offset="1" stop-color="#516CF7"/>
</linearGradient>
<linearGradient id="paint15_linear_116_2043" x1="19.0664" y1="109.546" x2="55.6529" y2="112.817" gradientUnits="userSpaceOnUse">
<stop stop-color="#A478E8"/>
<stop offset="1" stop-color="#516CF7"/>
</linearGradient>
<linearGradient id="paint16_linear_116_2043" x1="19.0664" y1="118.546" x2="55.6529" y2="121.817" gradientUnits="userSpaceOnUse">
<stop stop-color="#A478E8"/>
<stop offset="1" stop-color="#516CF7"/>
</linearGradient>
<linearGradient id="paint17_linear_116_2043" x1="19.0664" y1="127.546" x2="55.6529" y2="130.817" gradientUnits="userSpaceOnUse">
<stop stop-color="#A478E8"/>
<stop offset="1" stop-color="#516CF7"/>
</linearGradient>
<linearGradient id="paint18_linear_116_2043" x1="71.5352" y1="76.1678" x2="168.847" y2="77.4106" gradientUnits="userSpaceOnUse">
<stop stop-color="#A478E8"/>
<stop offset="1" stop-color="#516CF7"/>
</linearGradient>
<linearGradient id="paint19_linear_116_2043" x1="146.975" y1="123.214" x2="159.103" y2="120.437" gradientUnits="userSpaceOnUse">
<stop stop-color="#A478E8"/>
<stop offset="1" stop-color="#516CF7"/>
</linearGradient>
</defs>
</svg>
