<svg width="143" height="118" viewBox="0 0 143 118" fill="none" xmlns="http://www.w3.org/2000/svg">
<path d="M53.911 55.5076C53.911 55.5076 65.8516 68.892 71.2214 91.654L59.3401 102.664C37.058 95.4821 24.6932 82.5838 24.6932 82.5838C30.5874 64.4508 16.7947 48.8812 16.7947 48.8812L18.0259 47.7403L40.296 71.8404C39.5987 72.8762 39.3054 74.1318 39.4719 75.3686C39.6383 76.6054 40.253 77.7371 41.199 78.5486C42.1449 79.3601 43.3563 79.7948 44.6027 79.77C45.849 79.7452 47.0436 79.2627 47.9592 78.4142C48.8748 77.5657 49.4476 76.4104 49.5688 75.1679C49.6899 73.9254 49.3509 72.6823 48.6162 71.6751C47.8815 70.6678 46.8024 69.9665 45.584 69.7045C44.3655 69.4426 43.0927 69.6382 42.0076 70.2543L19.6913 46.1041L20.9225 44.9631C20.9225 44.9631 35.3558 59.9391 53.911 55.5076Z" fill="url(#paint0_linear_111_1800)"/>
<path d="M113.757 102.316L112.267 101.705C117.709 88.4913 117.669 73.6615 112.155 60.4778C106.641 47.294 96.1045 36.8364 82.8643 31.4054C69.624 25.9743 54.7643 26.0148 41.5539 31.5179C28.3435 37.021 17.8647 47.5359 12.4227 60.7495L10.9329 60.1384C16.5373 46.5305 27.3288 35.7018 40.9334 30.0344C54.538 24.3671 69.8413 24.3254 83.4766 29.9185C97.112 35.5116 107.962 46.2814 113.641 59.8585C119.32 73.4357 119.362 88.7081 113.757 102.316Z" fill="url(#paint1_linear_111_1800)"/>
<path d="M134.387 50.0846L31.8906 8.04163L31.2783 9.52847L133.774 51.5714L134.387 50.0846Z" fill="url(#paint2_linear_111_1800)"/>
<path d="M19.1031 57.3368L8.56055 53.0123L4.22733 63.5336L14.7698 67.8581L19.1031 57.3368Z" fill="url(#paint3_linear_111_1800)"/>
<path d="M36.2886 17.7243L24.2562 12.7888L29.1914 0.805847L41.2238 5.74131L36.2886 17.7243ZM26.3584 11.9131L35.4111 15.6263L39.132 6.59185L30.0793 2.8786L26.3584 11.9131Z" fill="url(#paint4_linear_111_1800)"/>
<path d="M116.55 110.474L104.517 105.538L109.463 93.5302L121.495 98.4657L116.55 110.474ZM106.594 104.726L115.646 108.439L119.393 99.3414L110.34 95.6281L106.594 104.726Z" fill="url(#paint5_linear_111_1800)"/>
<path d="M141.517 47.7208L130.975 43.3964L126.641 53.9177L137.184 58.2421L141.517 47.7208Z" fill="url(#paint6_linear_111_1800)"/>
<defs>
<linearGradient id="paint0_linear_111_1800" x1="24.8945" y1="82.8016" x2="63.6901" y2="47.4831" gradientUnits="userSpaceOnUse">
<stop stop-color="#A478E8"/>
<stop offset="1" stop-color="#516CF7"/>
</linearGradient>
<linearGradient id="paint1_linear_111_1800" x1="22.661" y1="31.6618" x2="156.494" y2="90.8275" gradientUnits="userSpaceOnUse">
<stop stop-color="#A478E8"/>
<stop offset="1" stop-color="#516CF7"/>
</linearGradient>
<linearGradient id="paint2_linear_111_1800" x1="31.6181" y1="8.70326" x2="80.1362" y2="106.835" gradientUnits="userSpaceOnUse">
<stop stop-color="#A478E8"/>
<stop offset="1" stop-color="#516CF7"/>
</linearGradient>
<linearGradient id="paint3_linear_111_1800" x1="6.63228" y1="57.6943" x2="20.4341" y2="63.5861" gradientUnits="userSpaceOnUse">
<stop stop-color="#A478E8"/>
<stop offset="1" stop-color="#516CF7"/>
</linearGradient>
<linearGradient id="paint4_linear_111_1800" x1="26.9953" y1="6.1382" x2="42.7474" y2="12.8631" gradientUnits="userSpaceOnUse">
<stop stop-color="#A478E8"/>
<stop offset="1" stop-color="#516CF7"/>
</linearGradient>
<linearGradient id="paint5_linear_111_1800" x1="107.262" y1="98.8737" x2="123.014" y2="105.598" gradientUnits="userSpaceOnUse">
<stop stop-color="#A478E8"/>
<stop offset="1" stop-color="#516CF7"/>
</linearGradient>
<linearGradient id="paint6_linear_111_1800" x1="129.046" y1="48.0783" x2="142.848" y2="53.9702" gradientUnits="userSpaceOnUse">
<stop stop-color="#A478E8"/>
<stop offset="1" stop-color="#516CF7"/>
</linearGradient>
</defs>
</svg>
