<svg width="144" height="118" viewBox="0 0 144 118" fill="none" xmlns="http://www.w3.org/2000/svg">
<path d="M95.23 102.413C95.23 102.413 78.3163 108.383 55.2187 104.716L49.5388 89.5459C64.6373 71.6543 81.2623 65.107 81.2623 65.107C95.8036 77.4397 115.442 70.5848 115.442 70.5848L116.03 72.1568L85.2833 83.6191C84.5895 82.581 83.539 81.8333 82.3315 81.5181C81.124 81.203 79.8437 81.3423 78.734 81.9097C77.6243 82.4771 76.7626 83.433 76.3127 84.5956C75.8628 85.7582 75.856 87.0465 76.2937 88.2156C76.7314 89.3846 77.5831 90.3529 78.6867 90.9364C79.7904 91.5198 81.0691 91.6778 82.2798 91.3801C83.4905 91.0825 84.5488 90.3501 85.2534 89.3221C85.958 88.2941 86.2598 87.0423 86.1015 85.8045L116.913 74.3184L117.501 75.8903C117.501 75.8903 98.1691 83.5632 95.23 102.413Z" fill="url(#paint0_linear_111_1801)"/>
<path d="M114.367 102.316L112.877 101.705C118.319 88.4913 118.278 73.6615 112.764 60.4778C107.25 47.294 96.7139 36.8364 83.4736 31.4054C70.2334 25.9743 55.3736 26.0148 42.1633 31.5179C28.9529 37.021 18.4741 47.5359 13.0321 60.7495L11.5422 60.1384C17.1467 46.5305 27.9382 35.7018 41.5428 30.0344C55.1474 24.3671 70.4506 24.3254 84.086 29.9185C97.7213 35.5116 108.572 46.2814 114.251 59.8585C119.929 73.4357 119.971 88.7081 114.367 102.316Z" fill="url(#paint1_linear_111_1801)"/>
<path d="M134.996 50.0846L32.5 8.04163L31.8876 9.52847L134.384 51.5714L134.996 50.0846Z" fill="url(#paint2_linear_111_1801)"/>
<path d="M19.7105 57.3368L9.16797 53.0123L4.83475 63.5336L15.3773 67.8581L19.7105 57.3368Z" fill="url(#paint3_linear_111_1801)"/>
<path d="M36.898 17.7243L24.8656 12.7888L29.8008 0.805847L41.8332 5.74131L36.898 17.7243ZM26.9678 11.9131L36.0205 15.6263L39.7414 6.59185L30.6886 2.8786L26.9678 11.9131Z" fill="url(#paint4_linear_111_1801)"/>
<path d="M117.159 110.474L105.127 105.538L110.072 93.5302L122.105 98.4657L117.159 110.474ZM107.203 104.726L116.256 108.439L120.002 99.3414L110.95 95.6281L107.203 104.726Z" fill="url(#paint5_linear_111_1801)"/>
<path d="M142.127 47.7208L131.584 43.3964L127.251 53.9177L137.793 58.2421L142.127 47.7208Z" fill="url(#paint6_linear_111_1801)"/>
<defs>
<linearGradient id="paint0_linear_111_1801" x1="80.9843" y1="65.2106" x2="98.9448" y2="114.505" gradientUnits="userSpaceOnUse">
<stop stop-color="#A478E8"/>
<stop offset="1" stop-color="#516CF7"/>
</linearGradient>
<linearGradient id="paint1_linear_111_1801" x1="23.2704" y1="31.6618" x2="157.103" y2="90.8275" gradientUnits="userSpaceOnUse">
<stop stop-color="#A478E8"/>
<stop offset="1" stop-color="#516CF7"/>
</linearGradient>
<linearGradient id="paint2_linear_111_1801" x1="32.2275" y1="8.70326" x2="80.7456" y2="106.835" gradientUnits="userSpaceOnUse">
<stop stop-color="#A478E8"/>
<stop offset="1" stop-color="#516CF7"/>
</linearGradient>
<linearGradient id="paint3_linear_111_1801" x1="7.23971" y1="57.6943" x2="21.0416" y2="63.5861" gradientUnits="userSpaceOnUse">
<stop stop-color="#A478E8"/>
<stop offset="1" stop-color="#516CF7"/>
</linearGradient>
<linearGradient id="paint4_linear_111_1801" x1="27.6046" y1="6.1382" x2="43.3568" y2="12.8631" gradientUnits="userSpaceOnUse">
<stop stop-color="#A478E8"/>
<stop offset="1" stop-color="#516CF7"/>
</linearGradient>
<linearGradient id="paint5_linear_111_1801" x1="107.872" y1="98.8737" x2="123.624" y2="105.598" gradientUnits="userSpaceOnUse">
<stop stop-color="#A478E8"/>
<stop offset="1" stop-color="#516CF7"/>
</linearGradient>
<linearGradient id="paint6_linear_111_1801" x1="129.656" y1="48.0783" x2="143.458" y2="53.9702" gradientUnits="userSpaceOnUse">
<stop stop-color="#A478E8"/>
<stop offset="1" stop-color="#516CF7"/>
</linearGradient>
</defs>
</svg>
