<svg width="179" height="185" viewBox="0 0 179 185" fill="none" xmlns="http://www.w3.org/2000/svg">
<path d="M30.1918 83.0789L31.9355 116.477L149.699 110.268L147.955 76.8695L30.1918 83.0789Z" fill="#EBEBEB"/>
<path d="M34.1469 87.0376L35.457 112.131L51.7427 111.272L50.4326 86.1789L34.1469 87.0376Z" fill="url(#paint0_linear_108_1743)"/>
<path opacity="0.8" d="M53.8969 85.995L55.207 111.088L71.4927 110.23L70.1826 85.1363L53.8969 85.995Z" fill="url(#paint1_linear_108_1743)"/>
<path opacity="0.6" d="M73.6469 84.9465L74.957 110.04L91.2427 109.181L89.9326 84.0878L73.6469 84.9465Z" fill="url(#paint2_linear_108_1743)"/>
<path opacity="0.4" d="M93.3872 83.9138L94.6973 109.007L110.983 108.149L109.673 83.0551L93.3872 83.9138Z" fill="url(#paint3_linear_108_1743)"/>
<path opacity="0.2" d="M113.137 82.8704L114.447 107.964L130.733 107.105L129.423 82.0116L113.137 82.8704Z" fill="url(#paint4_linear_108_1743)"/>
<g opacity="0.1">
<path d="M34.1603 87.0346L35.4707 112.128L51.7562 111.269L50.4458 86.1758L34.1603 87.0346Z" fill="black"/>
<path opacity="0.8" d="M53.8947 85.9943L55.2051 111.088L71.4905 110.229L70.1802 85.1355L53.8947 85.9943Z" fill="black"/>
<path opacity="0.6" d="M73.6467 84.9454L74.957 110.039L91.2425 109.18L89.9322 84.0866L73.6467 84.9454Z" fill="black"/>
<path opacity="0.4" d="M93.383 83.913L94.6934 109.007L110.979 108.148L109.669 83.0541L93.383 83.913Z" fill="black"/>
<path opacity="0.2" d="M113.135 82.8695L114.445 107.963L130.731 107.104L129.42 82.0107L113.135 82.8695Z" fill="black"/>
</g>
<path d="M93.7111 14.5429L62.6074 26.8995L106.328 136.331L137.431 123.974L93.7111 14.5429Z" fill="#EBEBEB"/>
<path d="M91.2364 19.5472L67.8672 28.8311L73.9134 43.9646L97.2825 34.6806L91.2364 19.5472Z" fill="url(#paint5_linear_108_1743)"/>
<path opacity="0.8" d="M98.5606 37.8916L75.1914 47.1755L81.2376 62.3089L104.607 53.025L98.5606 37.8916Z" fill="url(#paint6_linear_108_1743)"/>
<path opacity="0.6" d="M105.887 56.2318L82.5176 65.5157L88.5638 80.6492L111.933 71.3653L105.887 56.2318Z" fill="url(#paint7_linear_108_1743)"/>
<path opacity="0.4" d="M113.223 74.5852L89.8535 83.8691L95.8998 99.0025L119.269 89.7187L113.223 74.5852Z" fill="url(#paint8_linear_108_1743)"/>
<path opacity="0.2" d="M120.549 92.9293L97.1797 102.213L103.226 117.347L126.595 108.063L120.549 92.9293Z" fill="url(#paint9_linear_108_1743)"/>
<defs>
<linearGradient id="paint0_linear_108_1743" x1="42.7041" y1="111.749" x2="41.6122" y2="78.6774" gradientUnits="userSpaceOnUse">
<stop stop-color="#A478E8"/>
<stop offset="1" stop-color="#516CF7"/>
</linearGradient>
<linearGradient id="paint1_linear_108_1743" x1="62.4541" y1="110.706" x2="61.3622" y2="77.6347" gradientUnits="userSpaceOnUse">
<stop stop-color="#A478E8"/>
<stop offset="1" stop-color="#516CF7"/>
</linearGradient>
<linearGradient id="paint2_linear_108_1743" x1="82.2041" y1="109.658" x2="81.1121" y2="76.5862" gradientUnits="userSpaceOnUse">
<stop stop-color="#A478E8"/>
<stop offset="1" stop-color="#516CF7"/>
</linearGradient>
<linearGradient id="paint3_linear_108_1743" x1="101.944" y1="108.625" x2="100.852" y2="75.5536" gradientUnits="userSpaceOnUse">
<stop stop-color="#A478E8"/>
<stop offset="1" stop-color="#516CF7"/>
</linearGradient>
<linearGradient id="paint4_linear_108_1743" x1="121.694" y1="107.582" x2="120.602" y2="74.5101" gradientUnits="userSpaceOnUse">
<stop stop-color="#A478E8"/>
<stop offset="1" stop-color="#516CF7"/>
</linearGradient>
<linearGradient id="paint5_linear_108_1743" x1="70.5577" y1="35.5654" x2="101.545" y2="23.888" gradientUnits="userSpaceOnUse">
<stop stop-color="#A478E8"/>
<stop offset="1" stop-color="#516CF7"/>
</linearGradient>
<linearGradient id="paint6_linear_108_1743" x1="77.8819" y1="53.9098" x2="108.869" y2="42.2323" gradientUnits="userSpaceOnUse">
<stop stop-color="#A478E8"/>
<stop offset="1" stop-color="#516CF7"/>
</linearGradient>
<linearGradient id="paint7_linear_108_1743" x1="85.2081" y1="72.2501" x2="116.195" y2="60.5726" gradientUnits="userSpaceOnUse">
<stop stop-color="#A478E8"/>
<stop offset="1" stop-color="#516CF7"/>
</linearGradient>
<linearGradient id="paint8_linear_108_1743" x1="92.5441" y1="90.6034" x2="123.531" y2="78.9258" gradientUnits="userSpaceOnUse">
<stop stop-color="#A478E8"/>
<stop offset="1" stop-color="#516CF7"/>
</linearGradient>
<linearGradient id="paint9_linear_108_1743" x1="99.8702" y1="108.947" x2="130.857" y2="97.2698" gradientUnits="userSpaceOnUse">
<stop stop-color="#A478E8"/>
<stop offset="1" stop-color="#516CF7"/>
</linearGradient>
</defs>
</svg>
