<svg width="150" height="93" viewBox="0 0 150 93" fill="none" xmlns="http://www.w3.org/2000/svg">
<path d="M2.3418 4.43363C16.4645 1.24992 42.471 -2.82513 38.3628 20.5916C37.0355 28.1578 31.0207 46.7451 34.349 28.0016C36.1221 18.0167 42.049 1.83422 55.1383 4.12487C68.2087 6.4122 74.1055 21.4961 74.1779 33.1475C74.2852 50.4235 71.1791 69.2535 67.6427 86.1498C65.9473 94.2502 66.9815 89.1189 69.2379 84.606C80.4673 62.1472 98.3681 42.5838 117.918 27.0239C121.023 24.552 140.354 7.73968 140.354 19.2537" stroke="#232339" stroke-width="3" stroke-linecap="round"/>
<path d="M101.451 17.4011C94.9357 26.642 88.4563 35.9071 81.9995 45.1887" stroke="#232339" stroke-width="3" stroke-linecap="round"/>
<path d="M86.6309 90.5753C107.217 79.9271 124.841 73.9894 147.764 71.124" stroke="#232339" stroke-width="3" stroke-linecap="round"/>
</svg>
