<svg width="24" height="24" viewBox="0 0 24 24" fill="none" xmlns="http://www.w3.org/2000/svg">
<g clip-path="url(#clip0_35_2251)">
<g filter="url(#filter0_d_35_2251)">
<path d="M13.625 11.2248C13.5123 11.3375 13.3595 11.4007 13.2002 11.4007C13.0408 11.4007 12.888 11.3375 12.7754 11.2248C12.6627 11.1121 12.5994 10.9593 12.5994 10.8C12.5994 10.6407 12.6627 10.4879 12.7754 10.3752L17.5754 5.57519C17.6312 5.5194 17.6974 5.47515 17.7703 5.44496C17.8432 5.41477 17.9213 5.39923 18.0002 5.39923C18.0791 5.39923 18.1572 5.41477 18.2301 5.44496C18.303 5.47515 18.3692 5.5194 18.425 5.57519C18.4808 5.63097 18.525 5.6972 18.5552 5.77009C18.5854 5.84298 18.6009 5.9211 18.6009 5.99999C18.6009 6.07888 18.5854 6.157 18.5552 6.22989C18.525 6.30278 18.4808 6.369 18.425 6.42479L13.625 11.2248ZM6.42497 18.4248C6.36919 18.4806 6.30296 18.5248 6.23007 18.555C6.15719 18.5852 6.07906 18.6007 6.00017 18.6007C5.92128 18.6007 5.84316 18.5852 5.77027 18.555C5.69738 18.5248 5.63116 18.4806 5.57537 18.4248C5.51959 18.369 5.47533 18.3028 5.44514 18.2299C5.41495 18.157 5.39941 18.0789 5.39941 18C5.39941 17.9211 5.41495 17.843 5.44514 17.7701C5.47533 17.6972 5.51959 17.631 5.57537 17.5752L10.3754 12.7752C10.488 12.6625 10.6408 12.5992 10.8002 12.5992C10.9595 12.5992 11.1123 12.6625 11.225 12.7752C11.3376 12.8879 11.4009 13.0407 11.4009 13.2C11.4009 13.3593 11.3376 13.5121 11.225 13.6248L6.42497 18.4248Z" fill="white"/>
<path d="M6.00039 18.6C5.84126 18.6 5.68865 18.5367 5.57613 18.4242C5.4636 18.3117 5.40039 18.1591 5.40039 18C5.40039 17.8408 5.4636 17.6882 5.57613 17.5757C5.68865 17.4632 5.84126 17.4 6.00039 17.4H10.8004C10.9595 17.4 11.1121 17.4632 11.2247 17.5757C11.3372 17.6882 11.4004 17.8408 11.4004 18C11.4004 18.1591 11.3372 18.3117 11.2247 18.4242C11.1121 18.5367 10.9595 18.6 10.8004 18.6H6.00039Z" fill="white"/>
<path d="M6.60039 18C6.60039 18.1591 6.53718 18.3117 6.42465 18.4242C6.31213 18.5367 6.15952 18.6 6.00039 18.6C5.84126 18.6 5.68865 18.5367 5.57613 18.4242C5.4636 18.3117 5.40039 18.1591 5.40039 18V13.2C5.40039 13.0408 5.4636 12.8882 5.57613 12.7757C5.68865 12.6632 5.84126 12.6 6.00039 12.6C6.15952 12.6 6.31213 12.6632 6.42465 12.7757C6.53718 12.8882 6.60039 13.0408 6.60039 13.2V18ZM18.6004 10.8C18.6004 10.9591 18.5372 11.1117 18.4247 11.2242C18.3121 11.3367 18.1595 11.4 18.0004 11.4C17.8413 11.4 17.6886 11.3367 17.5761 11.2242C17.4636 11.1117 17.4004 10.9591 17.4004 10.8V5.99996C17.4004 5.84083 17.4636 5.68822 17.5761 5.5757C17.6886 5.46318 17.8413 5.39996 18.0004 5.39996C18.1595 5.39996 18.3121 5.46318 18.4247 5.5757C18.5372 5.68822 18.6004 5.84083 18.6004 5.99996V10.8Z" fill="white"/>
<path d="M13.2001 6.59996C13.041 6.59996 12.8884 6.53675 12.7758 6.42423C12.6633 6.31171 12.6001 6.15909 12.6001 5.99996C12.6001 5.84083 12.6633 5.68822 12.7758 5.5757C12.8884 5.46318 13.041 5.39996 13.2001 5.39996H18.0001C18.1592 5.39996 18.3118 5.46318 18.4244 5.5757C18.5369 5.68822 18.6001 5.84083 18.6001 5.99996C18.6001 6.15909 18.5369 6.31171 18.4244 6.42423C18.3118 6.53675 18.1592 6.59996 18.0001 6.59996H13.2001Z" fill="white"/>
</g>
</g>
<defs>
<filter id="filter0_d_35_2251" x="1.39941" y="5.39923" width="21.2017" height="21.2015" filterUnits="userSpaceOnUse" color-interpolation-filters="sRGB">
<feFlood flood-opacity="0" result="BackgroundImageFix"/>
<feColorMatrix in="SourceAlpha" type="matrix" values="0 0 0 0 0 0 0 0 0 0 0 0 0 0 0 0 0 0 127 0" result="hardAlpha"/>
<feOffset dy="4"/>
<feGaussianBlur stdDeviation="2"/>
<feComposite in2="hardAlpha" operator="out"/>
<feColorMatrix type="matrix" values="0 0 0 0 0 0 0 0 0 0 0 0 0 0 0 0 0 0 0.25 0"/>
<feBlend mode="normal" in2="BackgroundImageFix" result="effect1_dropShadow_35_2251"/>
<feBlend mode="normal" in="SourceGraphic" in2="effect1_dropShadow_35_2251" result="shape"/>
</filter>
<clipPath id="clip0_35_2251">
<rect width="24" height="24" fill="white"/>
</clipPath>
</defs>
</svg>
