<svg width="36" height="36" viewBox="0 0 36 36" fill="none" xmlns="http://www.w3.org/2000/svg">
<path d="M18 3.375C15.1075 3.375 12.2799 4.23274 9.87479 5.83976C7.46972 7.44677 5.5952 9.73089 4.48827 12.4033C3.38134 15.0756 3.09171 18.0162 3.65602 20.8532C4.22033 23.6902 5.61323 26.2961 7.65857 28.3414C9.70391 30.3868 12.3098 31.7797 15.1468 32.344C17.9838 32.9083 20.9244 32.6187 23.5968 31.5117C26.2691 30.4048 28.5532 28.5303 30.1602 26.1252C31.7673 23.7201 32.625 20.8926 32.625 18C32.6209 14.1225 31.0788 10.4049 28.3369 7.66309C25.5951 4.92125 21.8775 3.37909 18 3.375ZM18 30.375C15.5525 30.375 13.1599 29.6492 11.1248 28.2894C9.08977 26.9297 7.50363 24.9969 6.567 22.7357C5.63036 20.4745 5.3853 17.9863 5.86279 15.5858C6.34028 13.1852 7.51889 10.9802 9.24956 9.24955C10.9802 7.51888 13.1852 6.34027 15.5858 5.86278C17.9863 5.38529 20.4745 5.63036 22.7357 6.56699C24.997 7.50363 26.9297 9.08976 28.2894 11.1248C29.6492 13.1599 30.375 15.5525 30.375 18C30.3713 21.2809 29.0663 24.4264 26.7463 26.7463C24.4264 29.0663 21.2809 30.3713 18 30.375ZM13.5 18C13.5 18.9445 13.7972 19.865 14.3494 20.6312C14.9017 21.3974 15.681 21.9704 16.577 22.2691C17.473 22.5677 18.4403 22.5769 19.3418 22.2953C20.2433 22.0137 21.0333 21.4556 21.6 20.7C21.7792 20.4613 22.0459 20.3036 22.3414 20.2615C22.6369 20.2194 22.937 20.2965 23.1757 20.4757C23.4144 20.6549 23.5721 20.9216 23.6142 21.2171C23.6563 21.5126 23.5792 21.8127 23.4 22.0514C22.5498 23.1844 21.3646 24.0213 20.0124 24.4434C18.6602 24.8655 17.2095 24.8515 15.8657 24.4033C14.5219 23.9552 13.3531 23.0957 12.5249 21.9464C11.6967 20.7972 11.2511 19.4166 11.2511 18C11.2511 16.5834 11.6967 15.2028 12.5249 14.0536C13.3531 12.9043 14.5219 12.0448 15.8657 11.5967C17.2095 11.1485 18.6602 11.1345 20.0124 11.5566C21.3646 11.9787 22.5498 12.8156 23.4 13.9486C23.4887 14.0668 23.5533 14.2013 23.5901 14.3444C23.6268 14.4876 23.635 14.6366 23.6142 14.7829C23.5934 14.9292 23.5439 15.07 23.4687 15.1972C23.3935 15.3244 23.2939 15.4356 23.1757 15.5243C23.0575 15.613 22.923 15.6776 22.7799 15.7144C22.6367 15.7511 22.4877 15.7593 22.3414 15.7385C22.1951 15.7177 22.0543 15.6682 21.9271 15.593C21.7999 15.5177 21.6887 15.4182 21.6 15.3C21.0333 14.5444 20.2433 13.9863 19.3418 13.7047C18.4403 13.4231 17.473 13.4323 16.577 13.7309C15.681 14.0296 14.9017 14.6026 14.3494 15.3688C13.7972 16.135 13.5 17.0555 13.5 18Z" fill="#312163"/>
</svg>
