<svg width="451" height="450" viewBox="0 0 451 450" fill="none" xmlns="http://www.w3.org/2000/svg">
<path d="M398.972 233.57C398.972 233.57 398.972 229.001 392.567 222.64C386.161 216.278 382.062 212.583 382.062 212.583C382.062 212.583 378.859 223.088 384.795 229.493C389.18 233.995 393.933 238.123 399.005 241.834L398.972 233.57Z" fill="url(#paint0_linear_117_1219)"/>
<path d="M389.68 262.122C389.68 262.122 389.68 257.553 383.286 251.191C376.891 244.829 372.77 241.135 372.77 241.135C372.77 241.135 369.568 251.573 375.514 258.012C379.898 262.515 384.651 266.643 389.724 270.352L389.68 262.122Z" fill="url(#paint1_linear_117_1219)"/>
<path d="M398.567 241.364C398.567 241.364 399.048 236.817 406.087 231.122C413.126 225.427 417.663 222.235 417.663 222.235C417.663 222.235 419.729 233.035 413.148 238.762C408.329 242.78 403.181 246.385 397.758 249.54L398.567 241.364Z" fill="url(#paint2_linear_117_1219)"/>
<path d="M387.352 275.075C387.352 275.075 388.303 270.604 395.9 265.685C403.497 260.766 408.296 258.034 408.296 258.034C408.296 258.034 409.214 268.964 402.065 274.003C396.862 277.485 391.377 280.527 385.669 283.098L387.352 275.075Z" fill="url(#paint3_linear_117_1219)"/>
<path d="M389.462 311.834C389.462 311.834 389.462 307.265 395.856 300.904C402.251 294.542 406.372 290.847 406.372 290.847C406.372 290.847 409.574 301.363 403.628 307.768C399.242 312.269 394.489 316.397 389.418 320.109L389.462 311.834Z" fill="url(#paint4_linear_117_1219)"/>
<path d="M389.353 320.809C389.353 320.809 389.998 316.284 384.576 309.036C379.154 301.789 375.602 297.592 375.602 297.592C375.602 297.592 370.934 307.539 375.908 314.72C379.596 319.791 383.702 324.545 388.183 328.93L389.353 320.809Z" fill="url(#paint5_linear_117_1219)"/>
<path d="M383.046 347.392C383.046 347.392 383.046 342.823 389.44 336.462C395.835 330.1 399.956 326.405 399.956 326.405C399.956 326.405 403.158 336.921 397.212 343.315C392.829 347.819 388.076 351.948 383.002 355.656L383.046 347.392Z" fill="url(#paint6_linear_117_1219)"/>
<path d="M387.308 371.505C387.308 371.505 386.16 367.078 390.729 359.274C395.298 351.469 398.381 346.878 398.381 346.878C398.381 346.878 404.141 356.235 400.01 363.941C396.925 369.403 393.386 374.596 389.429 379.463L387.308 371.505Z" fill="url(#paint7_linear_117_1219)"/>
<path d="M399.55 232.401C399.228 237.166 398.644 241.91 397.802 246.611C395.266 259.673 388.948 268.112 386.412 279.917C383.876 291.722 391.145 306.927 389.199 322.099C387.253 337.271 381.351 345.688 383.045 355.809C384.739 365.931 393.615 393.324 393.615 393.324" stroke="#1D1E20" stroke-width="0.5" stroke-linecap="round" stroke-linejoin="round"/>
<path d="M398.502 244.403L405.399 239.101" stroke="#1D1E20" stroke-width="0.5" stroke-linecap="round" stroke-linejoin="round"/>
<path d="M398.829 238.303L395.943 233.166" stroke="#1D1E20" stroke-width="0.5" stroke-linecap="round" stroke-linejoin="round"/>
<path d="M386.795 279.359C386.795 279.359 392.566 274.987 398.502 270.702" stroke="#1D1E20" stroke-width="0.5" stroke-linecap="round" stroke-linejoin="round"/>
<path d="M389.68 270.353C389.68 270.353 384.87 260.919 379.416 254.667" stroke="#1D1E20" stroke-width="0.5" stroke-linecap="round" stroke-linejoin="round"/>
<path d="M389.681 318.338C392.98 312.276 397.14 306.724 402.032 301.855" stroke="#1D1E20" stroke-width="0.5" stroke-linecap="round" stroke-linejoin="round"/>
<path d="M388.565 324.809C386.808 320.687 384.713 316.716 382.302 312.938C378.935 307.965 378.454 307.32 378.454 307.32" stroke="#1D1E20" stroke-width="0.5" stroke-linecap="round" stroke-linejoin="round"/>
<path d="M383.045 355.798C384.502 352.165 386.238 348.649 388.237 345.283C390.235 342.16 392.491 339.209 394.981 336.462" stroke="#1D1E20" stroke-width="0.5" stroke-linecap="round" stroke-linejoin="round"/>
<path d="M389.396 379.463C389.061 375.996 389.658 372.502 391.124 369.341C393.528 364.685 396.261 358.596 397.387 356.224" stroke="#1D1E20" stroke-width="0.5" stroke-linecap="round" stroke-linejoin="round"/>
<path d="M357.063 294.641C357.063 294.641 356.571 291.777 359.883 287.066C363.195 282.355 365.348 279.622 365.348 279.622C365.348 279.622 368.496 285.863 365.469 290.553C363.221 293.853 360.698 296.958 357.926 299.833L357.063 294.641Z" fill="url(#paint8_linear_117_1219)"/>
<path d="M365.983 311.539C365.983 311.539 365.491 308.665 368.814 303.964C372.137 299.264 374.279 296.51 374.279 296.51C374.279 296.51 377.427 302.762 374.388 307.44C372.138 310.739 369.615 313.843 366.846 316.721L365.983 311.539Z" fill="url(#paint9_linear_117_1219)"/>
<path d="M358.156 299.483C358.156 299.483 357.369 296.685 352.33 293.875C347.291 291.066 344.143 289.558 344.143 289.558C344.143 289.558 344.023 296.553 348.767 299.395C352.229 301.393 355.852 303.097 359.599 304.489L358.156 299.483Z" fill="url(#paint10_linear_117_1219)"/>
<path d="M368.857 319.41C368.857 319.41 367.764 316.71 362.474 314.447C357.183 312.184 353.871 311.004 353.871 311.004C353.871 311.004 354.483 317.978 359.511 320.339C363.162 321.962 366.943 323.275 370.814 324.263L368.857 319.41Z" fill="url(#paint11_linear_117_1219)"/>
<path d="M371.524 342.681C371.524 342.681 371.032 339.817 366.321 336.494C361.61 333.171 358.67 331.335 358.67 331.335C358.67 331.335 357.806 338.276 362.222 341.643C365.454 343.99 368.877 346.063 372.454 347.84L371.524 342.681Z" fill="url(#paint12_linear_117_1219)"/>
<path d="M372.562 348.3C372.562 348.3 371.666 345.534 374.279 340.397C376.891 335.259 378.651 332.242 378.651 332.242C378.651 332.242 382.652 337.981 380.312 343.02C378.553 346.608 376.494 350.042 374.158 353.284L372.562 348.3Z" fill="url(#paint13_linear_117_1219)"/>
<path d="M380.597 371.418C380.597 371.418 380.925 368.532 385.439 364.947C389.954 361.362 392.817 359.35 392.817 359.35C392.817 359.35 394.075 366.237 389.855 369.844C386.772 372.375 383.481 374.642 380.018 376.621L380.597 371.418Z" fill="url(#paint14_linear_117_1219)"/>
<path d="M379.405 364.291C379.405 364.291 378.913 361.428 374.202 358.105C369.491 354.782 366.55 352.934 366.55 352.934C366.55 352.934 365.687 359.875 370.114 363.253C373.341 365.601 376.76 367.675 380.334 369.451L379.405 364.291Z" fill="url(#paint15_linear_117_1219)"/>
<path d="M379.405 379.868C379.405 379.868 379.646 376.971 375.929 372.566C372.213 368.161 369.808 365.625 369.808 365.625C369.808 365.625 367.217 372.118 370.639 376.556C373.169 379.645 375.951 382.519 378.957 385.147L379.405 379.868Z" fill="url(#paint16_linear_117_1219)"/>
<path d="M356.571 293.974C357.29 296.935 358.173 299.855 359.217 302.718C362.223 310.632 367.098 315.234 369.972 322.394C372.847 329.553 369.972 339.883 372.793 349.152C375.613 358.421 380.28 363.089 380.324 369.625C380.368 376.162 377.788 394.296 377.788 394.296" stroke="#1D1E20" stroke-width="0.5" stroke-linecap="round" stroke-linejoin="round"/>
<path d="M358.528 301.374L353.631 298.805" stroke="#1D1E20" stroke-width="0.5" stroke-linecap="round" stroke-linejoin="round"/>
<path d="M357.664 297.592L358.921 294.061" stroke="#1D1E20" stroke-width="0.5" stroke-linecap="round" stroke-linejoin="round"/>
<path d="M369.666 322.033C369.666 322.033 365.578 319.945 361.381 317.868" stroke="#1D1E20" stroke-width="0.5" stroke-linecap="round" stroke-linejoin="round"/>
<path d="M366.879 316.699C368.079 312.904 369.665 309.241 371.612 305.768" stroke="#1D1E20" stroke-width="0.5" stroke-linecap="round" stroke-linejoin="round"/>
<path d="M372.092 346.792C369.364 343.34 366.15 340.302 362.55 337.774" stroke="#1D1E20" stroke-width="0.5" stroke-linecap="round" stroke-linejoin="round"/>
<path d="M373.492 350.693C374.142 347.917 375.023 345.201 376.127 342.572C377.701 339.085 377.93 338.626 377.93 338.626" stroke="#1D1E20" stroke-width="0.5" stroke-linecap="round" stroke-linejoin="round"/>
<path d="M380.094 374.512C381.69 372.542 383.452 370.713 385.362 369.046C386.582 368.15 387.726 367.155 388.784 366.073" stroke="#1D1E20" stroke-width="0.5" stroke-linecap="round" stroke-linejoin="round"/>
<path d="M380.324 369.56C379.023 367.44 377.562 365.423 375.952 363.526C374.359 361.788 372.626 360.183 370.771 358.728" stroke="#1D1E20" stroke-width="0.5" stroke-linecap="round" stroke-linejoin="round"/>
<path d="M378.902 385.092C378.739 382.879 377.984 380.75 376.716 378.927C374.705 376.271 372.344 372.741 371.371 371.363" stroke="#1D1E20" stroke-width="0.5" stroke-linecap="round" stroke-linejoin="round"/>
<path d="M364.715 391.072H406.58V422.443C406.58 423.313 406.234 424.147 405.619 424.762C405.004 425.377 404.17 425.722 403.3 425.722H368.038C367.168 425.722 366.334 425.377 365.719 424.762C365.104 424.147 364.759 423.313 364.759 422.443V391.072H364.715Z" fill="#1D1E20"/>
<path d="M406.208 396.526H364.671C363.801 396.526 362.967 396.181 362.352 395.566C361.737 394.951 361.392 394.117 361.392 393.247C361.392 392.377 361.737 391.543 362.352 390.928C362.967 390.313 363.801 389.968 364.671 389.968H406.208C407.077 389.968 407.911 390.313 408.526 390.928C409.141 391.543 409.487 392.377 409.487 393.247C409.487 394.117 409.141 394.951 408.526 395.566C407.911 396.181 407.077 396.526 406.208 396.526Z" fill="#1D1E20"/>
<path d="M326.577 105.741C347.102 105.741 363.741 89.102 363.741 68.5765C363.741 48.0511 347.102 31.412 326.577 31.412C306.051 31.412 289.412 48.0511 289.412 68.5765C289.412 89.102 306.051 105.741 326.577 105.741Z" fill="#1D1E20"/>
<path d="M338.689 98.4438C355.186 91.7517 363.135 72.9532 356.442 56.456C349.75 39.9589 330.952 32.0103 314.455 38.7024C297.958 45.3945 290.009 64.1931 296.701 80.6902C303.393 97.1873 322.192 105.136 338.689 98.4438Z" fill="white"/>
<path d="M305.666 74.5009L326.577 68.5764V39.3257" stroke="#1D1E20" stroke-width="2" stroke-miterlimit="10"/>
<path d="M146.252 233.723H105.448L52.0293 90.3554H92.8338L146.252 233.723Z" fill="#1D1E20"/>
<path opacity="0.2" d="M146.252 233.723H105.448L52.0293 90.3554H92.8338L146.252 233.723Z" fill="white"/>
<path d="M81.9354 125.377H71.4419C70.7264 125.335 70.0379 125.089 69.4571 124.669C68.8764 124.248 68.4273 123.672 68.1627 123.005L64.1074 112.129C63.9667 111.88 63.896 111.598 63.9028 111.312C63.9096 111.026 63.9937 110.747 64.1461 110.505C64.2985 110.263 64.5135 110.067 64.7684 109.937C65.0233 109.807 65.3086 109.749 65.594 109.768H76.0875C76.801 109.813 77.4875 110.058 78.0677 110.476C78.6479 110.893 79.0982 111.467 79.3667 112.129L83.422 123.005C83.903 124.317 83.2471 125.377 81.9354 125.377Z" fill="#1D1E20"/>
<path d="M95.5337 97.6025H54.7292L52.0293 90.3554H92.8338L95.5337 97.6025Z" fill="#1D1E20"/>
<path d="M68.6768 98.7939L69.8463 101.942" stroke="#1D1E20" stroke-linecap="round" stroke-linejoin="round"/>
<path d="M70.251 98.7939L71.4206 101.942" stroke="#1D1E20" stroke-linecap="round" stroke-linejoin="round"/>
<path d="M71.8145 98.7939L72.995 101.942" stroke="#1D1E20" stroke-linecap="round" stroke-linejoin="round"/>
<path d="M73.3877 98.7939L74.5573 101.942" stroke="#1D1E20" stroke-linecap="round" stroke-linejoin="round"/>
<path d="M74.9619 98.7939L76.1315 101.942" stroke="#1D1E20" stroke-linecap="round" stroke-linejoin="round"/>
<path d="M76.5361 98.7939L77.7057 101.942" stroke="#1D1E20" stroke-linecap="round" stroke-linejoin="round"/>
<path d="M78.1104 98.7939L79.2799 101.942" stroke="#1D1E20" stroke-linecap="round" stroke-linejoin="round"/>
<path d="M79.6846 98.7939L80.8542 101.942" stroke="#1D1E20" stroke-linecap="round" stroke-linejoin="round"/>
<path d="M81.2471 98.7939L82.4276 101.942" stroke="#1D1E20" stroke-linecap="round" stroke-linejoin="round"/>
<path d="M82.8213 98.7939L83.9909 101.942" stroke="#1D1E20" stroke-linecap="round" stroke-linejoin="round"/>
<path d="M78.5366 118.557L68.699 112.294C68.6073 112.221 68.4968 112.177 68.3806 112.165C68.2644 112.153 68.1473 112.175 68.0431 112.228C67.9593 112.291 67.9025 112.384 67.8843 112.487C67.866 112.591 67.8876 112.697 67.9447 112.785L72.4701 122.547C72.5294 122.67 72.6149 122.779 72.7206 122.866C72.8263 122.952 72.9497 123.015 73.0822 123.049H73.2352C73.3165 123.056 73.3974 123.034 73.4649 122.989C73.5324 122.943 73.5824 122.876 73.6069 122.798L74.6999 119.584H78.635C78.686 119.589 78.7374 119.583 78.7858 119.566C78.8342 119.549 78.8785 119.523 78.9157 119.487C78.9529 119.452 78.9822 119.41 79.0017 119.362C79.0211 119.315 79.0303 119.264 79.0285 119.213C79.0073 119.071 78.9512 118.937 78.8654 118.823C78.7795 118.708 78.6665 118.617 78.5366 118.557Z" fill="white"/>
<path d="M78.3394 118.994L68.458 112.73L72.9833 122.492L74.1092 119.038L78.3394 118.994Z" fill="#1D1E20"/>
<path d="M96.8013 118.994L86.9199 112.73L91.4562 122.492L92.5711 119.038L96.8013 118.994Z" fill="white"/>
<path d="M101.863 124.547L100.977 122.536L99.8076 124.23L101.863 124.547Z" fill="white"/>
<path d="M125.735 188.623L124.849 186.612L123.68 188.306L125.735 188.623Z" fill="white"/>
<path d="M133.071 208.287L132.174 206.276L131.016 207.96L133.071 208.287Z" fill="white"/>
<path d="M140.579 228.444L139.683 226.433L138.524 228.127L140.579 228.444Z" fill="white"/>
<path d="M98.5071 165.92L97.6108 163.908L96.4521 165.592L98.5071 165.92Z" fill="white"/>
<path d="M106.967 188.623L106.071 186.612L104.912 188.306L106.967 188.623Z" fill="white"/>
<path d="M114.291 208.287L113.406 206.276L112.236 207.96L114.291 208.287Z" fill="white"/>
<path d="M121.811 228.444L120.915 226.433L119.756 228.127L121.811 228.444Z" fill="white"/>
<path d="M78.5361 146.124L80.2523 147.228L84.9743 137.38L83.2582 136.265L78.5361 146.124Z" fill="white"/>
<path d="M80.657 136.472C78.1538 134.526 77.9789 134.133 78.5911 131.925C77.3012 133.696 76.9186 133.728 74.2188 132.286C76.7219 134.242 76.8968 134.636 76.2847 136.844C77.5308 135.073 77.9133 135.04 80.657 136.472Z" fill="white"/>
<path d="M88.8991 137.533C87.3579 136.33 87.2485 136.09 87.6202 134.723C86.8222 135.817 86.5927 135.817 84.8984 134.953C86.4397 136.155 86.549 136.396 86.1664 137.762C86.9644 136.669 87.2048 136.647 88.8991 137.533Z" fill="white"/>
<path d="M88.4291 142.167C87.336 141.304 87.2486 141.14 87.5218 140.167C86.9534 140.943 86.7786 140.954 85.5762 140.32C86.6692 141.183 86.7458 141.358 86.4834 142.331C87.0518 141.544 87.2158 141.533 88.4291 142.167Z" fill="white"/>
<path d="M113.198 185.857L114.259 186.612L118.981 176.752L117.92 175.998L113.198 185.857Z" fill="white"/>
<path d="M109.241 143.577L100.529 138.057L104.519 146.671L105.514 143.621L109.241 143.577Z" fill="white"/>
<path d="M102.683 144.091C99.4909 144.091 96.1898 142.2 95.3263 139.883C94.4628 137.565 96.3647 135.707 99.5784 135.707C102.792 135.707 106.071 137.598 106.935 139.905C107.798 142.211 105.885 144.091 102.683 144.091ZM99.7423 136.188C96.8238 136.188 95.0749 137.85 95.8291 139.883C96.5833 141.916 99.5784 143.577 102.497 143.577C105.415 143.577 107.175 141.927 106.41 139.883C105.645 137.839 102.661 136.188 99.7423 136.188Z" fill="white"/>
<path d="M98.8459 143.249C98.4182 143.218 98.0079 143.068 97.6619 142.814C97.3159 142.561 97.0482 142.216 96.8893 141.817C96.8045 141.667 96.7619 141.496 96.7659 141.323C96.7699 141.15 96.8205 140.982 96.9122 140.835C97.0039 140.689 97.1334 140.57 97.2871 140.49C97.4408 140.411 97.613 140.375 97.7856 140.385C98.2132 140.416 98.6235 140.567 98.9695 140.82C99.3155 141.074 99.5833 141.419 99.7422 141.817C99.827 141.968 99.8696 142.139 99.8656 142.312C99.8615 142.484 99.811 142.653 99.7193 142.799C99.6275 142.946 99.498 143.065 99.3443 143.144C99.1906 143.223 99.0184 143.26 98.8459 143.249ZM97.9714 140.899C97.8599 140.89 97.7479 140.911 97.6477 140.961C97.5476 141.011 97.463 141.088 97.4033 141.183C97.3436 141.277 97.3109 141.386 97.309 141.498C97.307 141.61 97.3357 141.721 97.3921 141.817C97.4933 142.077 97.6663 142.302 97.8909 142.466C98.1154 142.631 98.3823 142.728 98.6601 142.746C99.1629 142.746 99.4252 142.331 99.2394 141.817C99.1344 141.562 98.96 141.34 98.736 141.178C98.512 141.016 98.2473 140.919 97.9714 140.899Z" fill="white"/>
<path d="M98.9875 144.747L98.6377 144.266C98.8943 144.201 99.1266 144.063 99.3069 143.869C99.4872 143.675 99.6078 143.433 99.6543 143.173C99.6686 142.735 99.5379 142.305 99.2826 141.949L99.698 141.774C100.035 142.245 100.207 142.813 100.19 143.391C100.14 143.708 99.9996 144.004 99.7866 144.245C99.5736 144.485 99.2963 144.659 98.9875 144.747Z" fill="white"/>
<path d="M93.5228 158.957L87.4344 154.53L86.1445 156.585L92.233 161.012L93.5228 158.957Z" fill="white"/>
<path d="M83.7719 164.695L84.7666 165.417L86.9527 161.875C86.8349 161.774 86.7523 161.638 86.717 161.486C86.6816 161.335 86.6953 161.177 86.756 161.034C86.92 160.76 87.3681 160.76 87.7398 161.034C87.9072 161.128 88.0362 161.278 88.1041 161.458C88.172 161.638 88.1746 161.836 88.1114 162.017C88.0143 162.129 87.8807 162.202 87.7345 162.224C87.5884 162.246 87.4391 162.215 87.3135 162.138L85.1273 165.679L86.0564 166.357L91.5218 164.816L91.8607 161.536L85.8597 157.164L83.1816 158.662L83.7719 164.695Z" fill="white"/>
<path d="M78.0225 150.781H113.143" stroke="#1D1E20" stroke-linecap="round" stroke-linejoin="round"/>
<path d="M108.563 154.53L107.273 156.585L113.362 161.012L114.652 158.957L108.563 154.53Z" fill="white"/>
<path d="M104.257 158.662L104.902 164.684L105.896 165.406L108.083 161.864C107.965 161.763 107.882 161.627 107.847 161.476C107.811 161.324 107.825 161.166 107.886 161.023C108.05 160.749 108.498 160.749 108.87 161.023C109.037 161.117 109.166 161.267 109.234 161.447C109.302 161.627 109.304 161.825 109.241 162.006C109.144 162.118 109.011 162.191 108.864 162.213C108.718 162.235 108.569 162.205 108.443 162.127L106.257 165.668L107.186 166.346L112.652 164.805L112.991 161.525L106.99 157.153L104.257 158.662Z" fill="white"/>
<path d="M102.748 160.443C102.813 160.017 102.868 159.558 102.912 159.044C102.961 158.552 102.91 158.055 102.762 157.584C102.613 157.112 102.37 156.676 102.048 156.301C101.336 155.505 100.41 154.932 99.3811 154.65C99.2172 154.65 99.086 154.65 99.1079 154.847C99.1238 154.93 99.1631 155.007 99.2211 155.069C99.2792 155.131 99.3536 155.175 99.4358 155.197C100.272 155.44 101.027 155.905 101.622 156.541C101.882 156.853 102.077 157.214 102.195 157.603C102.314 157.991 102.353 158.4 102.311 158.804C102.311 159.306 102.201 159.766 102.147 160.181C101.851 162.367 101.677 163.679 105.306 165.854C105.363 165.895 105.432 165.918 105.502 165.92C105.541 165.921 105.579 165.912 105.612 165.893C105.645 165.873 105.671 165.845 105.688 165.81C105.701 165.729 105.688 165.647 105.651 165.574C105.614 165.501 105.554 165.442 105.48 165.406C102.343 163.515 102.464 162.618 102.748 160.443Z" fill="white"/>
<path d="M87.2041 175.058L87.4227 175.626C87.7337 176.504 88.0988 177.362 88.5158 178.195L89.5323 177.943C89.2482 177.375 88.9964 176.791 88.7781 176.194H93.1504L96.7794 185.945H95.1508L95.5771 187.038H99.9494L99.5231 185.945H97.9053L94.2544 176.151H98.4846L99.2389 178.206H100.387L99.4138 175.582L99.1951 175.014L87.2041 175.058Z" fill="white"/>
<path opacity="0.44" d="M110.028 202.079C110.968 204.593 108.935 206.626 105.437 206.626C101.939 206.626 98.3978 204.593 97.4687 202.079C96.5395 199.565 98.5617 197.542 102.06 197.542C105.557 197.542 109.099 199.576 110.028 202.079Z" fill="white"/>
<path d="M110.028 202.079C110.968 204.593 108.935 206.626 105.437 206.626C101.939 206.626 98.3978 204.593 97.4687 202.079C96.5395 199.565 98.5617 197.542 102.06 197.542C105.557 197.542 109.099 199.576 110.028 202.079Z" stroke="white" stroke-miterlimit="10"/>
<path d="M122.959 202.21L127.08 194.722C127.14 194.639 127.217 194.568 127.305 194.515C127.394 194.462 127.492 194.427 127.594 194.413C127.696 194.399 127.8 194.405 127.899 194.432C127.999 194.459 128.092 194.505 128.173 194.569C128.413 194.67 128.615 194.843 128.75 195.065C128.885 195.287 128.947 195.545 128.927 195.804L126.741 204.079L122.959 202.21Z" fill="white"/>
<path d="M122.281 202.844C123.899 202.625 127.069 204.013 127.156 206.123C127.143 206.354 127.067 206.577 126.939 206.769C126.81 206.961 126.632 207.116 126.424 207.216C124.979 207.868 123.391 208.139 121.811 208.003C122.015 207.845 122.167 207.629 122.247 207.383C122.327 207.138 122.331 206.874 122.259 206.626C122.041 206.022 121.789 205.431 121.505 204.855C121.21 204.013 121.363 202.888 122.281 202.822" fill="white"/>
<path d="M113.7 219.273C113.36 218.491 112.853 217.793 112.214 217.229L110.968 219.207C111.705 219.843 112.291 220.634 112.684 221.525C113.043 222.316 113.459 223.079 113.93 223.809L115.143 221.864C114.589 221.043 114.106 220.176 113.7 219.273Z" fill="white"/>
<path d="M112.269 221.557C111.92 220.778 111.409 220.081 110.771 219.513L109.525 221.503C110.264 222.139 110.853 222.93 111.252 223.82C111.607 224.611 112.019 225.375 112.488 226.105L113.712 224.159C113.149 223.34 112.666 222.468 112.269 221.557Z" fill="white"/>
<path d="M114.126 219.24C114.481 220.031 114.893 220.795 115.362 221.524L117.154 218.661L113.143 215.731L112.399 216.912C113.135 217.555 113.724 218.349 114.126 219.24Z" fill="white"/>
<path d="M110.826 223.853C110.486 223.071 109.978 222.373 109.339 221.809L108.246 223.47L108.432 227.242C108.44 227.309 108.461 227.373 108.495 227.432C108.529 227.49 108.575 227.541 108.629 227.581C108.683 227.621 108.745 227.649 108.811 227.664C108.877 227.679 108.945 227.68 109.011 227.668L112.203 226.411C111.671 225.599 111.211 224.744 110.826 223.853ZM109.416 226.433L109.317 224.421L111.143 225.755L109.416 226.433Z" fill="white"/>
<path d="M126.577 221.055L125.211 223.241L132.272 228.389L133.639 226.203L134.065 226.52L137.344 221.372L129.419 215.6L126.195 220.749L126.577 221.055ZM131.802 227.143L126.457 223.241L127.43 221.678L132.786 225.58L131.802 227.143Z" fill="white"/>
<path d="M59.9104 92.2793L60.1727 92.9679L59.1889 94.1703L61.069 95.3727L61.3204 96.0723L58.3691 94.1703L59.9104 92.2793Z" fill="white"/>
<path d="M57.4397 92.2793L57.702 92.9679L56.7182 94.1703L58.5983 95.3727L58.8607 96.0723L55.8984 94.1703L57.4397 92.2793Z" fill="white"/>
<path d="M225.282 176.337H140.885L115.089 104.369H199.485L225.282 176.337Z" fill="#1D1E20"/>
<path d="M219.292 172.413H144.056L121.079 108.304H196.315L219.292 172.413Z" fill="url(#paint17_linear_117_1219)"/>
<path d="M204.984 132.504L192.544 123.344L182.718 148.857L157.238 141.664L144.056 172.412H219.292L204.984 132.504Z" fill="white"/>
<path d="M153.139 122.033C151.39 117.158 146.023 113.201 141.115 113.201C136.207 113.201 133.704 117.158 135.453 122.033C137.202 126.908 142.569 130.865 147.477 130.865C152.385 130.865 154.899 126.963 153.139 122.033Z" fill="white"/>
<path d="M234.026 163.952H149.63L123.833 91.9839H208.229L234.026 163.952Z" fill="#1D1E20"/>
<path d="M228.036 160.028H152.8L129.823 95.9082H205.06L228.036 160.028Z" fill="url(#paint18_linear_117_1219)"/>
<path d="M213.728 120.12L201.289 110.96L191.462 136.472L165.982 129.28L152.8 160.028H228.036L213.728 120.12Z" fill="white"/>
<path d="M161.883 109.648C160.134 104.773 154.767 100.816 149.86 100.816C144.952 100.816 142.448 104.773 144.197 109.648C145.946 114.523 151.313 118.48 156.221 118.48C161.129 118.48 163.643 114.523 161.883 109.648Z" fill="white"/>
<path d="M234.409 80.6928L236.431 85.6116H235.852C235.543 84.9497 235.158 84.326 234.704 83.7534C234.215 83.1956 233.616 82.7453 232.944 82.4308C232.232 82.1311 231.465 81.9858 230.692 82.0045H227.73L233.6 98.0399C233.844 98.9337 234.289 99.76 234.901 100.456C235.486 100.904 236.208 101.136 236.945 101.111H237.677L237.885 101.68H228.987L228.78 101.111H229.523C230.408 101.111 230.933 100.838 231.108 100.303C231.137 99.5202 230.971 98.7429 230.627 98.0399L224.757 82.0045H222.243C221.565 81.9677 220.886 82.0415 220.232 82.2231C220 82.3223 219.794 82.4719 219.627 82.661C219.461 82.8501 219.339 83.0739 219.27 83.3162C219.096 84.0645 219.145 84.8474 219.412 85.5679H218.822L217.27 80.649L234.409 80.6928Z" fill="#1D1E20"/>
<path d="M247.188 90.585H253.604" stroke="#1D1E20" stroke-width="0.5" stroke-miterlimit="10"/>
<path d="M253.396 107.593H221.084L209.115 74.8666H241.427L253.396 107.593Z" stroke="#1D1E20" stroke-width="0.5" stroke-miterlimit="10"/>
<path d="M216.483 91.7874H214.056L213.171 89.3717H215.598L216.483 91.7874Z" fill="white" stroke="#1D1E20" stroke-width="0.5" stroke-miterlimit="10"/>
<path d="M248.837 91.7874H246.411L245.525 89.3717H247.952L248.837 91.7874Z" fill="white" stroke="#1D1E20" stroke-width="0.5" stroke-miterlimit="10"/>
<path d="M210.798 76.2547H208.382L207.497 73.839H209.913L210.798 76.2547Z" fill="white" stroke="#1D1E20" stroke-width="0.5" stroke-miterlimit="10"/>
<path d="M243.154 76.2547H240.738L239.853 73.839H242.268L243.154 76.2547Z" fill="white" stroke="#1D1E20" stroke-width="0.5" stroke-miterlimit="10"/>
<path d="M226.987 76.2547H224.571L223.686 73.839H226.101L226.987 76.2547Z" fill="white" stroke="#1D1E20" stroke-width="0.5" stroke-miterlimit="10"/>
<path d="M222.636 108.61H220.21L219.324 106.194H221.751L222.636 108.61Z" fill="white" stroke="#1D1E20" stroke-width="0.5" stroke-miterlimit="10"/>
<path d="M254.992 108.61H252.565L251.68 106.194H254.106L254.992 108.61Z" fill="white" stroke="#1D1E20" stroke-width="0.5" stroke-miterlimit="10"/>
<path d="M237.426 108.173L239.776 114.6" stroke="#1D1E20" stroke-width="0.5" stroke-miterlimit="10"/>
<path d="M238.825 108.61H236.398L235.513 106.194H237.939L238.825 108.61Z" fill="white" stroke="#1D1E20" stroke-width="0.5" stroke-miterlimit="10"/>
<path d="M241.459 115.813H239.033L238.147 113.386H240.574L241.459 115.813Z" fill="#1D1E20"/>
<path d="M219.149 101.461H246.29" stroke="#1D1E20" stroke-width="0.5" stroke-miterlimit="10"/>
<path d="M254.883 90.5851C254.743 90.2295 254.506 89.9208 254.199 89.6944C253.891 89.4681 253.526 89.3335 253.145 89.3062C252.99 89.2967 252.836 89.3289 252.699 89.3993C252.561 89.4697 252.445 89.5758 252.362 89.7065C252.28 89.8372 252.234 89.9876 252.229 90.1422C252.224 90.2967 252.261 90.4497 252.336 90.5851C252.476 90.9393 252.713 91.2465 253.021 91.471C253.329 91.6954 253.694 91.8279 254.074 91.853C254.228 91.8649 254.382 91.8348 254.52 91.7658C254.658 91.6969 254.775 91.5917 254.858 91.4615C254.941 91.3313 254.988 91.181 254.992 91.0267C254.996 90.8723 254.958 90.7197 254.883 90.5851Z" fill="#1D1E20"/>
<path opacity="0.2" d="M105.076 264.133L134.36 289.23L106.453 425.766H108.344L139.388 291.733L167.83 315.584L127.67 425.602L130.184 425.186L172.431 318.098L289.981 425.186H361.512L277.848 261.203L105.076 264.133Z" fill="#1D1E20"/>
<path d="M108.344 425.766H106.453L103.622 261.794H111.175L108.344 425.766Z" fill="#1D1E20" stroke="#1D1E20" stroke-linecap="round" stroke-linejoin="round"/>
<path d="M271.059 425.766H269.168L266.337 261.794H273.89L271.059 425.766Z" fill="#1D1E20" stroke="#1D1E20" stroke-linecap="round" stroke-linejoin="round"/>
<path d="M282.58 259.258H100.736V263.51H282.58V259.258Z" fill="white" stroke="#1D1E20" stroke-linecap="round" stroke-linejoin="round"/>
<path d="M59.6806 347.295L56.4014 354.268C56.4014 354.268 60.4457 358.641 62.2821 358.641C64.1185 358.641 64.8508 356.804 67.0589 356.061C69.2669 355.318 72.9287 348.355 72.9287 348.355C72.9287 348.355 70.7425 344.682 68.5564 344.31C66.3702 343.939 63.091 342.846 61.2109 342.474C59.3308 342.102 59.6806 347.295 59.6806 347.295Z" fill="white" stroke="#1D1E20" stroke-linecap="round" stroke-linejoin="round"/>
<path d="M59.6807 347.294L61.8668 350.967V354.246C61.8668 354.246 64.053 355.339 64.8072 354.246C65.5614 353.153 68.8516 349.469 68.8516 349.469L67.3759 346.19" stroke="#1D1E20" stroke-linecap="round" stroke-linejoin="round"/>
<path d="M61.8772 354.268L57.8438 353.536" stroke="#1D1E20" stroke-linecap="round" stroke-linejoin="round"/>
<path d="M122.969 413.349L115.547 415.535C115.547 415.535 114.902 421.482 116.116 422.859C117.329 424.236 119.198 423.58 121.198 424.75C123.199 425.919 130.872 424.061 130.872 424.061C130.872 424.061 132.184 419.984 131.003 418.093C129.823 416.202 128.467 412.977 127.527 411.36C126.587 409.742 122.969 413.349 122.969 413.349Z" fill="white" stroke="#1D1E20" stroke-linecap="round" stroke-linejoin="round"/>
<path d="M122.97 413.349L121.669 417.437L119.188 419.623C119.188 419.623 119.811 422.006 121.122 421.809C122.434 421.613 127.386 421.689 127.386 421.689L128.894 418.41" stroke="#1D1E20" stroke-linecap="round" stroke-linejoin="round"/>
<path d="M119.187 419.634L117.066 416.115" stroke="#1D1E20" stroke-linecap="round" stroke-linejoin="round"/>
<path d="M47.9188 345.819C47.9188 345.819 41.6773 349.863 42.7813 352.071C43.8853 354.279 44.6177 355.744 45.7217 356.443C46.8257 357.143 50.094 358.28 51.1871 357.536C52.2801 356.793 54.8598 354.968 55.2205 352.071C55.5812 349.174 56.6962 348.792 55.5921 347.294C54.4881 345.797 47.9188 345.819 47.9188 345.819Z" fill="white" stroke="#1D1E20" stroke-linecap="round" stroke-linejoin="round"/>
<path d="M42.7373 352.071L47.1096 355.011L50.7823 354.64L52.2471 350.595C52.2471 350.016 52.0167 349.459 51.6068 349.049C51.1968 348.639 50.6407 348.409 50.0609 348.409C48.8709 348.36 47.7041 348.749 46.7817 349.502L47.525 351.688" stroke="#1D1E20" stroke-linecap="round" stroke-linejoin="round"/>
<path d="M75.1034 340.681C75.1034 340.681 69.638 345.819 70.3266 349.491C71.0152 353.164 78.0437 356.105 78.0437 356.105L86.4932 351.339L83.9135 344.78L78.4482 341.84L75.1034 340.681Z" fill="white" stroke="#1D1E20" stroke-linecap="round" stroke-linejoin="round"/>
<path d="M70.3271 349.491L76.2079 351.699L82.821 349.491L80.2413 343.622" stroke="#1D1E20" stroke-linecap="round" stroke-linejoin="round"/>
<path d="M75.1031 340.681L74.7314 348.398L79.1475 349.863" stroke="#1D1E20" stroke-linecap="round" stroke-linejoin="round"/>
<path d="M91.6307 409.731C91.6307 409.731 86.1653 414.879 86.854 418.552C87.5426 422.225 94.5711 425.165 94.5711 425.165L103.021 420.388L100.452 413.775L94.9318 410.835L91.6307 409.731Z" fill="white" stroke="#1D1E20" stroke-linecap="round" stroke-linejoin="round"/>
<path d="M86.8545 418.552L92.7352 420.749L99.3483 418.552L96.7796 412.671" stroke="#1D1E20" stroke-linecap="round" stroke-linejoin="round"/>
<path d="M91.6304 409.731L91.2588 417.448L95.6748 418.924" stroke="#1D1E20" stroke-linecap="round" stroke-linejoin="round"/>
<path d="M54.9032 335.172C54.9032 335.172 49.4378 340.309 50.1264 343.982C50.8151 347.655 57.8435 350.541 57.8435 350.541L66.2821 345.764L63.7133 339.205L58.248 336.265L54.9032 335.172Z" fill="white" stroke="#1D1E20" stroke-linecap="round" stroke-linejoin="round"/>
<path d="M50.127 343.982L56.0077 346.19L62.6099 343.982L60.0411 338.112" stroke="#1D1E20" stroke-linecap="round" stroke-linejoin="round"/>
<path d="M54.9039 335.172L54.5322 342.889L58.9373 344.354" stroke="#1D1E20" stroke-linecap="round" stroke-linejoin="round"/>
<path d="M85.7173 425.766H42.1255L35.5889 353.503H92.2539L85.7173 425.766Z" fill="#1D1E20" stroke="#1D1E20" stroke-linecap="round" stroke-linejoin="round"/>
<path d="M56.74 413.775C56.74 413.775 50.4876 417.82 51.5916 420.017C52.6957 422.214 53.428 423.69 54.532 424.389C55.636 425.089 58.9043 426.226 59.9974 425.482C61.0905 424.739 63.6701 422.913 64.0418 420.017C64.4134 417.12 65.5065 416.738 64.4025 415.24C63.2985 413.743 56.74 413.775 56.74 413.775Z" fill="white" stroke="#1D1E20" stroke-linecap="round" stroke-linejoin="round"/>
<path d="M51.5918 420.017L55.9641 422.957L59.6368 422.596L61.1016 418.552C61.1016 417.972 60.8712 417.416 60.4612 417.006C60.0513 416.596 59.4952 416.366 58.9154 416.366C57.7248 416.312 56.5565 416.702 55.6362 417.459L56.3685 419.645" stroke="#1D1E20" stroke-linecap="round" stroke-linejoin="round"/>
<path d="M172.311 209.293C172.389 209.788 172.314 210.295 172.096 210.745C171.877 211.196 171.525 211.568 171.088 211.813C170.651 212.057 170.15 212.162 169.652 212.112C169.153 212.063 168.682 211.862 168.301 211.537C167.921 211.211 167.649 210.777 167.523 210.292C167.397 209.808 167.423 209.296 167.596 208.826C167.77 208.357 168.084 207.952 168.495 207.666C168.906 207.38 169.395 207.227 169.896 207.227C170.489 207.185 171.075 207.378 171.527 207.765C171.979 208.151 172.261 208.701 172.311 209.293Z" fill="#808080" stroke="#1D1E20" stroke-linecap="round" stroke-linejoin="round"/>
<path d="M174.639 215.589C174.718 216.084 174.642 216.59 174.424 217.041C174.205 217.491 173.853 217.864 173.416 218.109C172.979 218.353 172.478 218.458 171.98 218.408C171.481 218.359 171.01 218.158 170.63 217.833C170.249 217.507 169.977 217.073 169.851 216.588C169.725 216.104 169.751 215.592 169.925 215.122C170.098 214.653 170.412 214.248 170.823 213.962C171.234 213.676 171.723 213.523 172.224 213.523C172.817 213.481 173.403 213.674 173.855 214.061C174.308 214.447 174.589 214.996 174.639 215.589Z" fill="#808080" stroke="#1D1E20" stroke-linecap="round" stroke-linejoin="round"/>
<path d="M176.957 221.885C177.035 222.38 176.96 222.886 176.741 223.337C176.522 223.787 176.171 224.16 175.734 224.405C175.297 224.649 174.795 224.754 174.297 224.704C173.799 224.655 173.328 224.454 172.947 224.129C172.566 223.803 172.295 223.369 172.169 222.884C172.043 222.4 172.068 221.888 172.242 221.418C172.416 220.949 172.729 220.543 173.14 220.258C173.551 219.972 174.04 219.819 174.541 219.819C175.134 219.777 175.721 219.97 176.173 220.357C176.625 220.743 176.907 221.292 176.957 221.885Z" fill="#808080" stroke="#1D1E20" stroke-linecap="round" stroke-linejoin="round"/>
<path d="M179.285 228.182C179.363 228.676 179.288 229.182 179.07 229.632C178.852 230.082 178.501 230.455 178.064 230.7C177.628 230.944 177.127 231.05 176.629 231.001C176.131 230.953 175.66 230.753 175.279 230.428C174.898 230.104 174.626 229.671 174.499 229.187C174.371 228.703 174.395 228.192 174.567 227.722C174.739 227.253 175.051 226.847 175.461 226.559C175.87 226.272 176.358 226.117 176.858 226.116C177.453 226.073 178.04 226.266 178.494 226.652C178.948 227.039 179.232 227.588 179.285 228.182Z" fill="#808080" stroke="#1D1E20" stroke-linecap="round" stroke-linejoin="round"/>
<path d="M146.537 258.853H129.987L127.495 231.406H149.029L146.537 258.853Z" fill="#1D1E20" stroke="#1D1E20" stroke-linecap="round" stroke-linejoin="round"/>
<path d="M148.209 240.435L129.189 250.119L129.987 258.853H138.841L147.433 248.982L148.209 240.435Z" fill="url(#paint19_linear_117_1219)" stroke="#1D1E20" stroke-linecap="round" stroke-linejoin="round"/>
<path d="M150.941 228.127H125.582V234.095H150.941V228.127Z" fill="url(#paint20_linear_117_1219)" stroke="#1D1E20" stroke-linecap="round" stroke-linejoin="round"/>
<path d="M195.527 259.225H165.741C165.228 259.253 164.715 259.175 164.233 258.998C163.75 258.821 163.309 258.547 162.936 258.194C162.564 257.84 162.266 257.415 162.064 256.943C161.861 256.471 161.756 255.962 161.756 255.448C161.756 254.935 161.861 254.426 162.064 253.954C162.266 253.482 162.564 253.057 162.936 252.703C163.309 252.35 163.75 252.076 164.233 251.899C164.715 251.721 165.228 251.644 165.741 251.672H195.527C196.04 251.644 196.554 251.721 197.036 251.899C197.518 252.076 197.959 252.35 198.332 252.703C198.705 253.057 199.002 253.482 199.205 253.954C199.408 254.426 199.513 254.935 199.513 255.448C199.513 255.962 199.408 256.471 199.205 256.943C199.002 257.415 198.705 257.84 198.332 258.194C197.959 258.547 197.518 258.821 197.036 258.998C196.554 259.175 196.04 259.253 195.527 259.225Z" fill="#1D1E20" stroke="#1D1E20" stroke-linecap="round" stroke-linejoin="round"/>
<path d="M274.754 259.257H183.056L161.184 199.728H252.882L274.754 259.257Z" fill="#1D1E20" stroke="#1D1E20" stroke-linecap="round" stroke-linejoin="round"/>
<path d="M268.939 253.071H190.631L171.961 202.243H250.258L268.939 253.071Z" fill="#808080" stroke="#1D1E20" stroke-linecap="round" stroke-linejoin="round"/>
<path d="M284.308 280.518C282.181 283.646 279.774 286.573 277.115 289.263C268.723 296.845 261.506 305.635 255.702 315.344C247.482 329.28 241.754 343.523 236.311 355.853C230.867 368.183 221.008 390.941 216.078 397.871C211.148 404.801 207.814 408.506 207.814 408.506C207.814 408.506 199.671 408.692 190.03 407.84C180.389 406.987 176.399 405.249 176.279 407.763C176.159 410.277 182.837 417.174 187.581 418.377C192.325 419.579 198.512 421.416 199.955 422.847C201.398 424.279 203.234 425.919 205.661 424.87C208.087 423.82 215.313 413.709 223.391 406.746C231.468 399.784 241.109 392.886 249.832 376.654C258.555 360.422 259.014 351.142 265.135 345.042C271.256 338.943 277.705 329.379 285.51 324.34C293.315 319.3 316.608 309.966 324.052 300.292C331.496 290.618 327.615 278.78 320.456 274.55C313.296 270.32 289.926 268.789 284.308 280.518Z" fill="#1D1E20" stroke="#1D1E20" stroke-linecap="round" stroke-linejoin="round"/>
<path d="M221.849 387.639C220.166 391.181 218.242 394.603 216.089 397.881C211.104 404.8 207.825 408.517 207.825 408.517C207.825 408.517 199.681 408.703 190.041 407.85C180.4 406.997 176.41 405.259 176.29 407.773C176.169 410.288 182.848 417.185 187.592 418.387C192.336 419.59 198.523 421.426 199.966 422.858C201.409 424.29 203.245 425.929 205.672 424.88C208.098 423.831 215.323 413.72 223.401 406.757C227.161 403.478 231.26 400.275 235.425 396.121C230.127 394.777 225.38 391.812 221.849 387.639Z" fill="white" stroke="#1D1E20" stroke-linecap="round" stroke-linejoin="round"/>
<path d="M205.671 424.88C206.976 424.008 208.137 422.939 209.114 421.71C202.556 420.41 199.211 417.119 196.216 416.245C193.482 415.439 190.868 414.269 188.444 412.769L191.724 407.949L190.062 407.806C180.421 406.954 176.431 405.216 176.311 407.73C176.191 410.244 182.87 417.141 187.614 418.344C192.358 419.546 198.544 421.383 199.987 422.814C201.43 424.246 203.299 425.93 205.671 424.88Z" fill="url(#paint21_linear_117_1219)" stroke="#1D1E20" stroke-linecap="round" stroke-linejoin="round"/>
<path d="M217.007 311.299C218.28 316.778 220.161 322.098 222.614 327.16C226.484 334.899 234.999 343.02 241.197 347.666C247.394 352.311 267.31 370.107 277.181 384.229C278.416 386 273.694 391.968 267.89 397.193C262.085 402.418 259.571 404.353 262.665 405.315C265.758 406.276 273.114 405.894 280.471 399.707C287.827 393.52 292.659 389.454 294.976 384.404C296.135 381.89 289.751 378.786 285.882 375.506C282.012 372.227 267.693 350.551 263.244 340.528C258.795 330.504 247.58 316.152 239.262 311.124" fill="#1D1E20"/>
<path d="M217.007 311.299C218.28 316.778 220.161 322.098 222.614 327.16C226.484 334.899 234.999 343.02 241.197 347.666C247.394 352.311 267.31 370.107 277.181 384.229C278.416 386 273.694 391.968 267.89 397.193C262.085 402.418 259.571 404.353 262.665 405.315C265.758 406.276 273.114 405.894 280.471 399.707C287.827 393.52 292.659 389.454 294.976 384.404C296.135 381.89 289.751 378.786 285.882 375.506C282.012 372.227 267.693 350.551 263.244 340.528C258.795 330.504 247.58 316.152 239.262 311.124" stroke="#1D1E20" stroke-linecap="round" stroke-linejoin="round"/>
<path d="M294.965 384.426C296.123 381.912 289.74 378.807 285.87 375.528C282.591 372.763 271.977 357.001 266.031 346.081L252.914 357.711C261.101 365.286 271.103 375.463 277.224 384.229C278.459 386 273.737 391.968 267.933 397.193C262.129 402.418 259.615 404.353 262.708 405.315C265.801 406.276 273.158 405.894 280.514 399.707C287.871 393.52 292.647 389.454 294.965 384.426Z" fill="white" stroke="#1D1E20" stroke-linecap="round" stroke-linejoin="round"/>
<path d="M290.986 379.288C289.948 380.84 288.592 382.95 287.029 385.584C283.356 391.771 273.3 399.707 271.945 398.352C271.129 397.43 270.445 396.4 269.912 395.291C269.256 395.925 268.578 396.57 267.878 397.193C262.074 402.418 259.56 404.353 262.654 405.314C265.747 406.276 273.103 405.894 280.46 399.707C287.816 393.52 292.648 389.454 294.965 384.404C295.664 382.895 293.588 381.157 290.986 379.288Z" fill="url(#paint22_linear_117_1219)" stroke="#1D1E20" stroke-linecap="round" stroke-linejoin="round"/>
<path d="M343.519 396.996H277.749V400.09H343.519V396.996Z" fill="white" stroke="#1D1E20" stroke-linecap="round" stroke-linejoin="round"/>
<path d="M283.739 314.01L272.284 424.039C272.271 424.162 272.285 424.287 272.324 424.405C272.363 424.522 272.426 424.63 272.51 424.722C272.593 424.814 272.695 424.887 272.809 424.937C272.922 424.987 273.045 425.012 273.169 425.012C273.381 425.011 273.586 424.935 273.746 424.797C273.907 424.658 274.012 424.467 274.043 424.257L291.15 314.01H283.739Z" fill="white" stroke="#1D1E20" stroke-linecap="round" stroke-linejoin="round"/>
<path d="M336.36 314.01L347.87 424.039C347.884 424.162 347.872 424.286 347.834 424.404C347.796 424.521 347.734 424.63 347.652 424.722C347.569 424.814 347.468 424.887 347.355 424.937C347.242 424.987 347.119 425.012 346.996 425.012C346.783 425.014 346.577 424.938 346.416 424.799C346.255 424.661 346.15 424.468 346.121 424.257L329.015 314.01H336.36Z" fill="white" stroke="#1D1E20" stroke-linecap="round" stroke-linejoin="round"/>
<path d="M315.471 314.01L316.007 424.126C316.004 424.36 315.91 424.584 315.744 424.749C315.579 424.915 315.355 425.009 315.121 425.012C314.895 425.012 314.677 424.924 314.514 424.767C314.351 424.61 314.255 424.396 314.247 424.17L308.093 314.01H315.471Z" fill="white" stroke="#1D1E20" stroke-linecap="round" stroke-linejoin="round"/>
<path d="M340.021 297.373H279.115C276.115 297.373 273.683 299.805 273.683 302.806V309.736C273.683 312.736 276.115 315.168 279.115 315.168H340.021C343.022 315.168 345.454 312.736 345.454 309.736V302.806C345.454 299.805 343.022 297.373 340.021 297.373Z" fill="url(#paint23_linear_117_1219)"/>
<mask id="mask0_117_1219" style="mask-type:luminance" maskUnits="userSpaceOnUse" x="273" y="297" width="73" height="19">
<path d="M340.021 297.373H279.115C276.115 297.373 273.683 299.805 273.683 302.806V309.736C273.683 312.736 276.115 315.168 279.115 315.168H340.021C343.022 315.168 345.454 312.736 345.454 309.736V302.806C345.454 299.805 343.022 297.373 340.021 297.373Z" fill="white"/>
</mask>
<g mask="url(#mask0_117_1219)">
<path opacity="0.2" d="M340.054 297.373H280.503L278.732 301.09C278.732 301.09 333.692 302.051 333.692 305.221C333.692 308.391 334.643 312.534 323.854 312.534C315.11 312.534 285.761 312.949 274.896 313.102C275.33 313.647 275.864 314.103 276.47 314.447L279.661 315.168H340.054C341.503 315.168 342.893 314.593 343.918 313.568C344.943 312.543 345.519 311.153 345.519 309.703V302.773C345.502 301.335 344.918 299.961 343.895 298.951C342.872 297.94 341.492 297.373 340.054 297.373Z" fill="#1D1E20"/>
</g>
<path d="M340.021 297.373H279.115C276.115 297.373 273.683 299.805 273.683 302.806V309.736C273.683 312.736 276.115 315.168 279.115 315.168H340.021C343.022 315.168 345.454 312.736 345.454 309.736V302.806C345.454 299.805 343.022 297.373 340.021 297.373Z" stroke="#1D1E20" stroke-linecap="round" stroke-linejoin="round"/>
<path d="M218.548 318.251C217.193 313.802 211.586 304.904 238.475 286.333C252.685 276.495 283.554 268.92 283.554 268.92L286.45 265.641C286.45 265.641 294.769 274.386 311.023 273.773C327.277 273.161 337.333 266.035 339.268 266.614C341.202 267.193 341.388 272.221 340.623 281.698C339.858 291.175 338.874 296.018 331.332 298.335C323.79 300.652 307.153 301.428 295.162 301.242C289.214 301.225 283.271 300.901 277.356 300.27C277.356 300.27 251.636 316.524 235.579 317.682" fill="#1D1E20"/>
<path d="M218.548 318.251C217.193 313.802 211.586 304.904 238.475 286.333C252.685 276.495 283.554 268.92 283.554 268.92L286.45 265.641C286.45 265.641 294.769 274.386 311.023 273.773C327.277 273.161 337.333 266.035 339.268 266.614C341.202 267.193 341.388 272.221 340.623 281.698C339.858 291.175 338.874 296.018 331.332 298.335C323.79 300.652 307.153 301.428 295.162 301.242C289.214 301.225 283.271 300.901 277.356 300.27C277.356 300.27 251.636 316.524 235.579 317.682" stroke="#1D1E20" stroke-linecap="round" stroke-linejoin="round"/>
<path d="M278.488 211.653C277.277 211.831 241.231 213.318 238.263 212.272C235.295 211.227 228.334 203.103 225.432 202.842C222.53 202.581 216.612 202.66 215.846 204.101C215.081 205.542 216.149 211.006 216.149 211.006C216.149 211.006 213.794 213.572 214.537 215.059C215.28 216.545 221.314 214.15 221.314 214.15C221.314 214.15 226.912 219.718 229.923 219.2C232.935 218.681 236.178 218.022 236.178 218.022C236.178 218.022 280.691 227.645 281.233 227.929C281.776 228.212 287.14 230.215 288.955 222.277C290.77 214.34 285.511 210.584 278.488 211.653Z" fill="white" stroke="#1D1E20" stroke-linecap="round" stroke-linejoin="round"/>
<path d="M216.15 211.006L224.988 205.716" stroke="#1D1E20" stroke-linecap="round" stroke-linejoin="round"/>
<path d="M219.457 208.576L225.701 196.037L227.371 196.682L223.784 205.916L219.457 208.576Z" fill="#1D1E20"/>
<path d="M250.422 225.799C250.422 225.799 203.419 238.752 195.877 237.822C188.335 236.893 186.04 233.559 184.269 233.559C182.498 233.559 177.71 235.888 175.524 235.691C173.338 235.494 170.89 234.915 170.89 236.27C170.89 237.626 172.824 239.757 173.983 239.757C175.142 239.757 179.787 239.56 179.787 239.56C179.787 239.56 170.693 242.271 170.299 244.009C170.216 244.417 170.215 244.837 170.298 245.245C170.381 245.653 170.545 246.04 170.781 246.383C171.016 246.726 171.319 247.017 171.67 247.241C172.021 247.464 172.414 247.614 172.824 247.682C173.749 247.849 174.615 248.252 175.338 248.852C175.731 250.371 176.385 251.81 177.273 253.104C178.432 254.459 181.908 255.038 185.777 254.262C189.647 253.486 196.424 250.01 197.965 249.037C199.506 248.065 246.519 243.812 250.006 243.047C253.493 242.282 257.745 242.271 259.101 239.943C260.456 237.615 250.422 225.799 250.422 225.799Z" fill="white"/>
<mask id="mask1_117_1219" style="mask-type:luminance" maskUnits="userSpaceOnUse" x="170" y="225" width="90" height="30">
<path d="M250.422 225.799C250.422 225.799 203.419 238.752 195.877 237.822C188.335 236.893 186.04 233.559 184.269 233.559C182.498 233.559 177.71 235.888 175.524 235.691C173.338 235.494 170.89 234.915 170.89 236.27C170.89 237.626 172.824 239.757 173.983 239.757C175.142 239.757 179.787 239.56 179.787 239.56C179.787 239.56 170.693 242.271 170.299 244.009C170.216 244.417 170.215 244.837 170.298 245.245C170.381 245.653 170.545 246.04 170.781 246.383C171.016 246.726 171.319 247.017 171.67 247.241C172.021 247.464 172.414 247.614 172.824 247.682C173.749 247.849 174.615 248.252 175.338 248.852C175.731 250.371 176.385 251.81 177.273 253.104C178.432 254.459 181.908 255.038 185.777 254.262C189.647 253.486 196.424 250.01 197.965 249.037C199.506 248.065 246.519 243.812 250.006 243.047C253.493 242.282 257.745 242.271 259.101 239.943C260.456 237.615 250.422 225.799 250.422 225.799Z" fill="white"/>
</mask>
<g mask="url(#mask1_117_1219)">
<path d="M193.582 247.201C185.504 247.201 187.297 239.123 184.608 240.478C182.258 241.648 173.087 242.817 170.485 245.78C170.695 246.269 171.02 246.699 171.434 247.035C171.847 247.37 172.336 247.599 172.857 247.703C173.782 247.871 174.648 248.274 175.371 248.873C175.764 250.392 176.418 251.831 177.306 253.125C178.465 254.481 181.941 255.06 185.81 254.284C189.68 253.508 196.457 250.032 197.998 249.059C199.539 248.086 246.552 243.834 250.039 243.069C252.849 242.435 256.172 242.315 258.052 241.068L259.145 239.975L254.149 235.1C254.149 235.1 201.693 247.201 193.582 247.201Z" fill="url(#paint24_linear_117_1219)"/>
<path opacity="0.5" d="M193.582 247.201C185.504 247.201 187.297 239.123 184.608 240.478C182.258 241.648 173.087 242.817 170.485 245.78C170.695 246.269 171.02 246.699 171.434 247.035C171.847 247.37 172.336 247.599 172.857 247.703C173.782 247.871 174.648 248.274 175.371 248.873C175.764 250.392 176.418 251.831 177.306 253.125C178.465 254.481 181.941 255.06 185.81 254.284C189.68 253.508 196.457 250.032 197.998 249.059C199.539 248.086 246.552 243.834 250.039 243.069C252.849 242.435 256.172 242.315 258.052 241.068L259.145 239.975L254.149 235.1C254.149 235.1 201.693 247.201 193.582 247.201Z" fill="white"/>
</g>
<path d="M250.422 225.799C250.422 225.799 203.419 238.752 195.877 237.822C188.335 236.893 186.04 233.559 184.269 233.559C182.498 233.559 177.71 235.888 175.524 235.691C173.338 235.494 170.89 234.915 170.89 236.27C170.89 237.626 172.824 239.757 173.983 239.757C175.142 239.757 179.787 239.56 179.787 239.56C179.787 239.56 170.693 242.271 170.299 244.009C170.216 244.417 170.215 244.837 170.298 245.245C170.381 245.653 170.545 246.04 170.781 246.383C171.016 246.726 171.319 247.017 171.67 247.241C172.021 247.464 172.414 247.614 172.824 247.682C173.749 247.849 174.615 248.252 175.338 248.852C175.731 250.371 176.385 251.81 177.273 253.104C178.432 254.459 181.908 255.038 185.777 254.262C189.647 253.486 196.424 250.01 197.965 249.037C199.506 248.065 246.519 243.812 250.006 243.047C253.493 242.282 257.745 242.271 259.101 239.943C260.456 237.615 250.422 225.799 250.422 225.799Z" stroke="#1D1E20" stroke-linecap="round" stroke-linejoin="round"/>
<path d="M290.123 178.403C290.123 178.403 285.871 190 280.46 197.739C275.049 205.478 272.721 213.611 276.197 222.312C277.122 224.802 278.593 227.053 280.502 228.901C282.41 230.749 284.708 232.146 287.226 232.991C287.226 232.991 284.515 258.525 285.291 265.302C286.067 272.079 296.506 280.004 312.181 280.605C327.856 281.207 341.388 275.577 341.388 270.156C341.388 264.734 330.37 235.92 330.37 229.919C330.37 223.918 331.332 205.161 326.107 188.383C320.882 171.604 302.507 166.018 290.123 178.403Z" fill="url(#paint25_linear_117_1219)"/>
<mask id="mask2_117_1219" style="mask-type:luminance" maskUnits="userSpaceOnUse" x="274" y="171" width="68" height="110">
<path d="M290.123 178.403C290.123 178.403 285.871 190 280.46 197.739C275.049 205.478 272.721 213.611 276.197 222.312C277.122 224.802 278.593 227.053 280.502 228.901C282.41 230.749 284.708 232.146 287.226 232.991C287.226 232.991 284.515 258.525 285.291 265.302C286.067 272.079 296.506 280.004 312.181 280.605C327.856 281.207 341.388 275.577 341.388 270.156C341.388 264.734 330.37 235.92 330.37 229.919C330.37 223.918 331.332 205.161 326.107 188.383C320.882 171.604 302.507 166.018 290.123 178.403Z" fill="white"/>
</mask>
<g mask="url(#mask2_117_1219)">
<path opacity="0.2" d="M326.107 188.262C323.298 179.201 316.663 173.451 309.208 172.008C305.612 172.806 295.785 175.102 293.337 175.681C292.192 176.497 291.117 177.408 290.123 178.403C290.123 178.403 285.871 190 280.46 197.739C276.82 202.931 274.59 208.298 274.558 213.884C288.833 217.261 310.629 222.76 308.443 223.372C305.306 224.268 291.85 217.087 295.884 221.579C299.917 226.072 321.461 246.72 315.176 244.905C308.891 243.091 294.987 228.302 298.583 235.483C302.18 242.665 312.039 254.328 308.902 254.328C305.765 254.328 289.161 237.724 294.987 247.594C300.813 257.465 327.288 273.172 318.762 275.413C313.843 276.703 303.404 276.364 297.348 277.381C302.05 279.332 307.071 280.403 312.159 280.54C327.823 281.119 341.366 275.511 341.366 270.09C341.366 264.668 330.348 235.855 330.348 229.854C330.348 223.853 331.31 205.096 326.107 188.262Z" fill="#1D1E20"/>
</g>
<path d="M290.123 178.403C290.123 178.403 285.871 190 280.46 197.739C275.049 205.478 272.721 213.611 276.197 222.312C277.122 224.802 278.593 227.053 280.502 228.901C282.41 230.749 284.708 232.146 287.226 232.991C287.226 232.991 284.515 258.525 285.291 265.302C286.067 272.079 296.506 280.004 312.181 280.605C327.856 281.207 341.388 275.577 341.388 270.156C341.388 264.734 330.37 235.92 330.37 229.919C330.37 223.918 331.332 205.161 326.107 188.383C320.882 171.604 302.507 166.018 290.123 178.403Z" stroke="#1D1E20" stroke-linecap="round" stroke-linejoin="round"/>
<path d="M292.506 225.339C292.506 225.339 306.716 248.294 327.484 254.852" stroke="#1D1E20" stroke-linecap="round" stroke-linejoin="round"/>
<path d="M290.866 229.165C290.866 229.165 296.332 247.201 310.542 255.946" stroke="#1D1E20" stroke-linecap="round" stroke-linejoin="round"/>
<path d="M293.795 214.715C293.795 214.715 306.639 209.118 311.907 205.5" stroke="#1D1E20" stroke-linecap="round" stroke-linejoin="round"/>
<path d="M288.526 216.037C288.526 216.037 293.139 217.021 304.988 216.037" stroke="#1D1E20" stroke-linecap="round" stroke-linejoin="round"/>
<path d="M288.964 181.299C285.981 183.201 283.252 185.475 280.843 188.066C276.394 192.711 254.915 225.23 254.915 225.23C254.915 225.23 261.299 238.588 263.233 238.97C265.168 239.353 298.835 210.55 301.928 207.052C305.022 203.554 306.956 197.215 305.994 194.471" fill="url(#paint26_linear_117_1219)"/>
<mask id="mask3_117_1219" style="mask-type:luminance" maskUnits="userSpaceOnUse" x="254" y="181" width="53" height="58">
<path d="M288.964 181.299C285.981 183.201 283.252 185.475 280.843 188.066C276.394 192.711 254.915 225.23 254.915 225.23C254.915 225.23 261.299 238.588 263.233 238.97C265.168 239.353 298.835 210.55 301.928 207.052C305.022 203.554 306.956 197.215 305.994 194.471" fill="white"/>
</mask>
<g mask="url(#mask3_117_1219)">
<path opacity="0.2" d="M301.929 207.03C305.022 203.543 306.957 197.193 305.995 194.449L298.343 188.546L295.895 191.071C295.895 191.071 295.731 200.975 286.921 206.32C278.11 211.665 274.361 211.709 273.017 218.431C271.672 225.154 276.154 226.957 270.776 227.853C265.398 228.75 261.802 229.198 261.802 232.794C261.837 234.575 261.972 236.352 262.206 238.117C262.462 238.483 262.814 238.77 263.223 238.948C265.168 239.331 298.835 210.506 301.929 207.03Z" fill="#1D1E20"/>
</g>
<path d="M288.964 181.299C285.981 183.201 283.252 185.475 280.843 188.066C276.394 192.711 254.915 225.23 254.915 225.23C254.915 225.23 261.299 238.588 263.233 238.97C265.168 239.353 298.835 210.55 301.928 207.052C305.022 203.554 306.956 197.215 305.994 194.471" stroke="#1D1E20" stroke-linecap="round" stroke-linejoin="round"/>
<path d="M247.569 227.143C247.569 227.143 253.57 241.462 254.914 243.015C256.259 244.567 263.429 243.594 265.747 241.845C268.064 240.096 267.681 236.631 267.681 236.631C267.681 236.631 258.784 220.956 257.844 220.235C256.904 219.513 256.488 221.208 252.378 222.563C248.268 223.919 246.793 224.443 247.569 227.143Z" fill="white" stroke="#1D1E20" stroke-linecap="round" stroke-linejoin="round"/>
<path d="M257.243 141.839C257.243 141.839 256.849 147.447 257.822 149.185C258.795 150.923 261.495 152.672 261.495 154.989C261.495 157.306 259.56 160.455 260.139 162.149C260.719 163.843 263.823 164.084 263.823 164.084C263.823 164.084 269.616 171.243 271.365 173.757C273.114 176.271 273.879 175.299 276.59 174.533C279.301 173.768 285.094 168.729 288.385 164.86C291.675 160.99 286.198 149.185 279.104 141.26C272.01 133.335 261.298 133.521 258.981 135.795C256.663 138.068 257.243 141.839 257.243 141.839Z" fill="white"/>
<mask id="mask4_117_1219" style="mask-type:luminance" maskUnits="userSpaceOnUse" x="257" y="134" width="33" height="42">
<path d="M257.243 141.839C257.243 141.839 256.849 147.447 257.822 149.185C258.795 150.923 261.495 152.672 261.495 154.989C261.495 157.306 259.56 160.455 260.139 162.149C260.719 163.843 263.823 164.084 263.823 164.084C263.823 164.084 269.616 171.243 271.365 173.757C273.114 176.271 273.879 175.299 276.59 174.533C279.301 173.768 285.094 168.729 288.385 164.86C291.675 160.99 286.198 149.185 279.104 141.26C272.01 133.335 261.298 133.521 258.981 135.795C256.663 138.068 257.243 141.839 257.243 141.839Z" fill="white"/>
</mask>
<g mask="url(#mask4_117_1219)">
<path d="M272.579 136.418C271.683 140.79 270.786 148.299 273.475 153.382C277.52 161.034 280.657 165.045 278.416 171.33C278.012 172.424 277.596 173.429 277.192 174.304C280.077 173.068 285.324 168.456 288.385 164.859C291.664 160.99 286.199 149.185 279.105 141.26C277.274 139.227 275.055 137.58 272.579 136.418Z" fill="url(#paint27_linear_117_1219)"/>
<path opacity="0.5" d="M272.579 136.418C271.683 140.79 270.786 148.299 273.475 153.382C277.52 161.034 280.657 165.045 278.416 171.33C278.012 172.424 277.596 173.429 277.192 174.304C280.077 173.068 285.324 168.456 288.385 164.859C291.664 160.99 286.199 149.185 279.105 141.26C277.274 139.227 275.055 137.58 272.579 136.418Z" fill="white"/>
<path d="M261.495 150.158C261.495 150.158 261.495 147.25 264.982 149.185" stroke="#1D1E20" stroke-linecap="round" stroke-linejoin="round"/>
<path d="M263.977 152.847L264.436 155.525C264.436 155.525 266.556 156.257 268.119 153.492" stroke="#1D1E20" stroke-linecap="round" stroke-linejoin="round"/>
</g>
<path d="M257.243 141.839C257.243 141.839 256.849 147.447 257.822 149.185C258.795 150.923 261.495 152.672 261.495 154.989C261.495 157.307 259.56 160.455 260.139 162.149C260.719 163.843 263.823 164.084 263.823 164.084C263.823 164.084 269.616 171.243 271.365 173.757C273.114 176.271 273.879 175.299 276.59 174.533C279.301 173.768 285.094 168.729 288.385 164.86C291.675 160.99 286.198 149.185 279.104 141.26C272.01 133.335 261.298 133.521 258.981 135.795C256.663 138.068 257.243 141.839 257.243 141.839Z" stroke="#1D1E20" stroke-linecap="round" stroke-linejoin="round"/>
<path d="M251.242 133.324V134.1L250.893 143.577L261.331 144.933L263.66 140.867V145.315C266.88 145.046 270.121 145.509 273.137 146.671C278.165 148.606 284.548 162.346 284.166 167.953C283.783 173.56 278.941 174.719 279.52 183.256C280.1 191.793 293.053 200.253 302.89 194.843C312.728 189.432 314.313 182.458 318.368 183.813C322.423 185.169 328.621 193.487 332.491 181.682C336.36 169.877 334.622 162.346 325.528 152.672C316.433 142.998 309.285 143.774 308.115 136.035C306.945 128.296 304.442 117.846 296.091 111.988C287.74 106.129 275.782 105.801 265.485 110.25C255.188 114.698 251.242 128.296 251.242 133.324Z" fill="#1D1E20"/>
<mask id="mask5_117_1219" style="mask-type:luminance" maskUnits="userSpaceOnUse" x="250" y="107" width="85" height="90">
<path d="M251.242 133.324V134.1L250.893 143.577L261.331 144.933L263.66 140.867V145.315C266.88 145.046 270.121 145.509 273.137 146.671C278.165 148.606 284.548 162.346 284.166 167.953C283.783 173.56 278.941 174.719 279.52 183.256C280.1 191.793 293.053 200.253 302.89 194.843C312.728 189.432 314.313 182.458 318.368 183.813C322.423 185.169 328.621 193.487 332.491 181.682C336.36 169.877 334.622 162.346 325.528 152.672C316.433 142.998 309.285 143.774 308.115 136.035C306.945 128.296 304.442 117.846 296.091 111.988C287.74 106.129 275.782 105.801 265.485 110.25C255.188 114.698 251.242 128.296 251.242 133.324Z" fill="white"/>
</mask>
<g mask="url(#mask5_117_1219)">
<path d="M257.057 137.762C256.988 137.772 256.919 137.772 256.85 137.762C255.757 137.511 255.582 135.576 255.472 130.876C255.472 129.652 255.418 128.394 255.341 127.389C255.341 127.29 255.341 127.203 255.341 127.137C254.412 128.231 252.445 132.876 250.969 136.975L249.941 136.603C253.898 125.585 255.188 125.749 255.604 125.815C256.358 125.913 256.434 126.908 256.467 127.28C256.544 128.307 256.576 129.586 256.598 130.81C256.598 132.756 256.718 135.948 257.123 136.614C257.651 136.071 258.068 135.428 258.347 134.723C259.44 132.45 260.533 131.444 261.539 131.444C262.829 131.444 263.506 133.215 263.987 134.472C264.104 134.782 264.239 135.085 264.392 135.379C264.873 135.51 266.578 133.772 267.485 132.832L268.283 132.023C268.466 131.784 268.701 131.59 268.97 131.453C269.238 131.317 269.534 131.243 269.835 131.236C270.448 131.335 270.743 131.903 271.06 132.494C271.349 133.132 271.77 133.701 272.295 134.166C272.645 134.439 272.819 134.395 272.896 134.385C273.683 134.188 274.634 132.067 275.738 129.619C275.989 129.039 276.263 128.438 276.558 127.804C276.853 127.17 277.41 126.11 278.219 126.186C279.236 126.263 279.706 127.859 280.405 130.275C280.832 132.203 281.571 134.049 282.592 135.74C282.843 136.046 283.182 136.396 283.499 136.363C284.351 136.221 285.291 133.696 285.86 132.187C286.112 131.434 286.426 130.702 286.8 130.001C286.883 129.825 287.014 129.676 287.179 129.571C287.343 129.467 287.534 129.411 287.729 129.411C288.538 129.411 289.095 130.504 289.85 131.991C290.418 133.084 291.194 134.625 291.839 134.876C291.97 134.931 292.014 134.876 292.047 134.876C292.473 134.658 292.834 133.248 293.14 132.122C293.398 130.855 293.847 129.635 294.473 128.504C294.635 128.238 294.851 128.011 295.107 127.835C295.363 127.66 295.654 127.541 295.96 127.487C297.392 127.258 298.988 128.493 300.048 129.324C299.993 128.766 299.873 128.001 299.775 127.334C299.228 123.694 299.075 121.934 299.982 121.432C300.409 121.202 300.911 121.333 301.48 121.836C302.464 122.766 303.398 123.748 304.278 124.776C306.278 127.028 309.317 130.417 310.542 130.089C310.88 130.001 311.066 129.477 311.154 129.061L312.247 129.28C312.017 130.373 311.547 130.963 310.848 131.149C309.088 131.608 306.694 129.105 303.48 125.509C302.609 124.486 301.682 123.512 300.704 122.59C300.625 122.514 300.537 122.448 300.441 122.394C300.366 123.973 300.487 125.555 300.802 127.105C301.196 129.673 301.272 130.384 300.802 130.679C300.693 130.75 300.566 130.789 300.436 130.789C300.306 130.789 300.179 130.75 300.07 130.679C299.884 130.548 299.644 130.373 299.381 130.154C298.518 129.488 297.075 128.384 296.102 128.526C295.945 128.554 295.796 128.617 295.665 128.71C295.535 128.802 295.427 128.922 295.348 129.061C294.797 130.091 294.399 131.196 294.167 132.34C293.741 133.958 293.38 135.357 292.517 135.795C292.346 135.875 292.159 135.916 291.97 135.916C291.781 135.916 291.595 135.875 291.424 135.795C290.396 135.39 289.62 133.86 288.866 132.395C288.568 131.715 288.201 131.067 287.773 130.46C287.433 131.117 287.148 131.801 286.92 132.504C286.111 134.691 285.193 137.139 283.696 137.369C283.311 137.394 282.927 137.311 282.587 137.129C282.247 136.948 281.965 136.675 281.772 136.341C280.658 134.555 279.856 132.592 279.4 130.537C279.159 129.385 278.738 128.279 278.154 127.258C277.935 127.566 277.748 127.896 277.596 128.241C277.301 128.865 277.028 129.477 276.776 130.045C275.41 133.095 274.503 135.106 273.191 135.423C272.919 135.478 272.637 135.468 272.37 135.394C272.102 135.32 271.855 135.184 271.65 134.997C271.009 134.442 270.495 133.756 270.141 132.985C270.029 132.736 269.882 132.505 269.704 132.297C269.704 132.297 269.529 132.297 269.103 132.767L268.316 133.576C266.501 135.434 265.343 136.549 264.348 136.472C264.182 136.457 264.022 136.403 263.88 136.316C263.738 136.229 263.618 136.11 263.528 135.97C263.322 135.622 263.15 135.256 263.015 134.876C262.709 134.068 262.118 132.57 261.528 132.548C261.353 132.548 260.621 132.712 259.342 135.215C258.402 136.997 257.735 137.762 257.057 137.762Z" fill="#575757"/>
<path d="M278.843 181.682C278.843 181.682 281.554 171.593 284.308 174.796C287.063 177.999 288.976 178.982 289.227 176.272C289.478 173.561 289.227 169.626 291.938 173.32C294.649 177.015 301.284 180.698 301.776 175.036C302.267 169.374 303.011 161.745 306.213 165.691C309.416 169.637 312.116 172.577 312.367 170.358C312.619 168.139 314.827 166.423 315.811 168.882C316.794 171.342 317.538 173.812 318.27 168.15C319.002 162.488 315.559 156.334 319.254 157.809C322.948 159.285 324.719 164.204 324.719 161.504C324.719 158.804 320.281 155.591 324.227 156.574C328.173 157.558 328.654 160.028 329.146 158.553C329.638 157.077 326.96 153.623 330.381 153.623" stroke="#575757" stroke-miterlimit="10"/>
</g>
<path d="M251.242 133.324V134.1L250.893 143.577L261.331 144.933L263.66 140.867V145.315C266.88 145.046 270.121 145.509 273.137 146.671C278.165 148.606 284.548 162.346 284.166 167.953C283.783 173.56 278.941 174.719 279.52 183.256C280.1 191.793 293.053 200.253 302.89 194.843C312.728 189.432 314.313 182.458 318.368 183.813C322.423 185.169 328.621 193.487 332.491 181.682C336.36 169.877 334.622 162.346 325.528 152.672C316.433 142.998 309.285 143.774 308.115 136.035C306.945 128.296 304.442 117.846 296.091 111.988C287.74 106.129 275.782 105.801 265.485 110.25C255.188 114.698 251.242 128.296 251.242 133.324Z" stroke="#1D1E20" stroke-linecap="round" stroke-linejoin="round"/>
<path d="M25.5 425.766H425.5" stroke="#1D1E20" stroke-miterlimit="10"/>
<ellipse cx="216.482" cy="221.547" rx="7.81982" ry="5.07214" fill="white"/>
<defs>
<linearGradient id="paint0_linear_117_1219" x1="381.199" y1="225.6" x2="404.649" y2="225.782" gradientUnits="userSpaceOnUse">
<stop stop-color="#A478E8"/>
<stop offset="1" stop-color="#516CF7"/>
</linearGradient>
<linearGradient id="paint1_linear_117_1219" x1="371.909" y1="254.136" x2="395.372" y2="254.319" gradientUnits="userSpaceOnUse">
<stop stop-color="#A478E8"/>
<stop offset="1" stop-color="#516CF7"/>
</linearGradient>
<linearGradient id="paint2_linear_117_1219" x1="397.758" y1="234.386" x2="424.377" y2="234.637" gradientUnits="userSpaceOnUse">
<stop stop-color="#A478E8"/>
<stop offset="1" stop-color="#516CF7"/>
</linearGradient>
<linearGradient id="paint3_linear_117_1219" x1="385.669" y1="269.187" x2="415.517" y2="269.532" gradientUnits="userSpaceOnUse">
<stop stop-color="#A478E8"/>
<stop offset="1" stop-color="#516CF7"/>
</linearGradient>
<linearGradient id="paint4_linear_117_1219" x1="389.418" y1="303.869" x2="412.881" y2="304.051" gradientUnits="userSpaceOnUse">
<stop stop-color="#A478E8"/>
<stop offset="1" stop-color="#516CF7"/>
</linearGradient>
<linearGradient id="paint5_linear_117_1219" x1="373.615" y1="311.537" x2="394.374" y2="311.671" gradientUnits="userSpaceOnUse">
<stop stop-color="#A478E8"/>
<stop offset="1" stop-color="#516CF7"/>
</linearGradient>
<linearGradient id="paint6_linear_117_1219" x1="383.002" y1="339.422" x2="406.465" y2="339.604" gradientUnits="userSpaceOnUse">
<stop stop-color="#A478E8"/>
<stop offset="1" stop-color="#516CF7"/>
</linearGradient>
<linearGradient id="paint7_linear_117_1219" x1="387.18" y1="361.378" x2="406.043" y2="361.484" gradientUnits="userSpaceOnUse">
<stop stop-color="#A478E8"/>
<stop offset="1" stop-color="#516CF7"/>
</linearGradient>
<linearGradient id="paint8_linear_117_1219" x1="357.037" y1="288.616" x2="369.874" y2="288.695" gradientUnits="userSpaceOnUse">
<stop stop-color="#A478E8"/>
<stop offset="1" stop-color="#516CF7"/>
</linearGradient>
<linearGradient id="paint9_linear_117_1219" x1="365.957" y1="305.503" x2="378.804" y2="305.583" gradientUnits="userSpaceOnUse">
<stop stop-color="#A478E8"/>
<stop offset="1" stop-color="#516CF7"/>
</linearGradient>
<linearGradient id="paint10_linear_117_1219" x1="344.143" y1="296.202" x2="364.497" y2="296.471" gradientUnits="userSpaceOnUse">
<stop stop-color="#A478E8"/>
<stop offset="1" stop-color="#516CF7"/>
</linearGradient>
<linearGradient id="paint11_linear_117_1219" x1="353.871" y1="316.904" x2="376.18" y2="317.268" gradientUnits="userSpaceOnUse">
<stop stop-color="#A478E8"/>
<stop offset="1" stop-color="#516CF7"/>
</linearGradient>
<linearGradient id="paint12_linear_117_1219" x1="358.602" y1="338.68" x2="376.844" y2="338.875" gradientUnits="userSpaceOnUse">
<stop stop-color="#A478E8"/>
<stop offset="1" stop-color="#516CF7"/>
</linearGradient>
<linearGradient id="paint13_linear_117_1219" x1="372.414" y1="341.606" x2="383.783" y2="341.666" gradientUnits="userSpaceOnUse">
<stop stop-color="#A478E8"/>
<stop offset="1" stop-color="#516CF7"/>
</linearGradient>
<linearGradient id="paint14_linear_117_1219" x1="380.018" y1="367.036" x2="397.106" y2="367.2" gradientUnits="userSpaceOnUse">
<stop stop-color="#A478E8"/>
<stop offset="1" stop-color="#516CF7"/>
</linearGradient>
<linearGradient id="paint15_linear_117_1219" x1="366.482" y1="360.284" x2="384.724" y2="360.48" gradientUnits="userSpaceOnUse">
<stop stop-color="#A478E8"/>
<stop offset="1" stop-color="#516CF7"/>
</linearGradient>
<linearGradient id="paint16_linear_117_1219" x1="368.868" y1="374.312" x2="382.75" y2="374.408" gradientUnits="userSpaceOnUse">
<stop stop-color="#A478E8"/>
<stop offset="1" stop-color="#516CF7"/>
</linearGradient>
<linearGradient id="paint17_linear_117_1219" x1="121.079" y1="136.832" x2="250.386" y2="139.362" gradientUnits="userSpaceOnUse">
<stop stop-color="#A478E8"/>
<stop offset="1" stop-color="#516CF7"/>
</linearGradient>
<linearGradient id="paint18_linear_117_1219" x1="129.823" y1="124.441" x2="259.13" y2="126.971" gradientUnits="userSpaceOnUse">
<stop stop-color="#A478E8"/>
<stop offset="1" stop-color="#516CF7"/>
</linearGradient>
<linearGradient id="paint19_linear_117_1219" x1="129.189" y1="248.631" x2="154.236" y2="248.961" gradientUnits="userSpaceOnUse">
<stop stop-color="#A478E8"/>
<stop offset="1" stop-color="#516CF7"/>
</linearGradient>
<linearGradient id="paint20_linear_117_1219" x1="125.582" y1="230.783" x2="158.885" y2="232.59" gradientUnits="userSpaceOnUse">
<stop stop-color="#A478E8"/>
<stop offset="1" stop-color="#516CF7"/>
</linearGradient>
<linearGradient id="paint21_linear_117_1219" x1="176.31" y1="414.783" x2="219.495" y2="415.746" gradientUnits="userSpaceOnUse">
<stop stop-color="#A478E8"/>
<stop offset="1" stop-color="#516CF7"/>
</linearGradient>
<linearGradient id="paint22_linear_117_1219" x1="261.32" y1="391.048" x2="305.802" y2="391.774" gradientUnits="userSpaceOnUse">
<stop stop-color="#A478E8"/>
<stop offset="1" stop-color="#516CF7"/>
</linearGradient>
<linearGradient id="paint23_linear_117_1219" x1="273.683" y1="305.292" x2="367.963" y2="310.148" gradientUnits="userSpaceOnUse">
<stop stop-color="#A478E8"/>
<stop offset="1" stop-color="#516CF7"/>
</linearGradient>
<linearGradient id="paint24_linear_117_1219" x1="170.485" y1="243.792" x2="286.868" y2="250.538" gradientUnits="userSpaceOnUse">
<stop stop-color="#A478E8"/>
<stop offset="1" stop-color="#516CF7"/>
</linearGradient>
<linearGradient id="paint25_linear_117_1219" x1="274.554" y1="220.178" x2="362.576" y2="220.868" gradientUnits="userSpaceOnUse">
<stop stop-color="#A478E8"/>
<stop offset="1" stop-color="#516CF7"/>
</linearGradient>
<linearGradient id="paint26_linear_117_1219" x1="254.915" y1="206.964" x2="322.51" y2="207.733" gradientUnits="userSpaceOnUse">
<stop stop-color="#A478E8"/>
<stop offset="1" stop-color="#516CF7"/>
</linearGradient>
<linearGradient id="paint27_linear_117_1219" x1="271.683" y1="153.277" x2="294.965" y2="153.415" gradientUnits="userSpaceOnUse">
<stop stop-color="#A478E8"/>
<stop offset="1" stop-color="#516CF7"/>
</linearGradient>
</defs>
</svg>
