<svg width="23" height="24" viewBox="0 0 23 24" fill="none" xmlns="http://www.w3.org/2000/svg">
<path d="M12.8498 13.1464C12.4813 13.2346 12.138 13.4064 11.8464 13.6485C11.5549 13.8905 11.3228 14.1963 11.1682 14.5423L11.1678 14.5431L7.91851 21.8477L7.91844 21.8478C7.34742 23.1327 5.47009 22.962 5.14095 21.5921C5.14094 21.5921 5.14094 21.5921 5.14094 21.5921L0.534923 2.41032L0.534911 2.41027C0.471008 2.14427 0.482442 1.86573 0.56793 1.60585C0.653418 1.34598 0.809583 1.11505 1.01893 0.938931C1.22827 0.762814 1.48252 0.648472 1.75319 0.608717C2.02381 0.568968 2.30016 0.605351 2.55127 0.713788L2.74965 0.254874L2.5514 0.713844L20.6618 8.54256L20.6619 8.54262C21.9597 9.10319 21.7965 10.9971 20.4219 11.3273L12.8498 13.1464ZM12.8498 13.1464L12.9663 13.6326L12.8495 13.1464L12.8498 13.1464Z" fill="url(#paint0_linear_158_6988)" stroke="#323232"/>
<defs>
<linearGradient id="paint0_linear_158_6988" x1="2.0471" y1="10.854" x2="27.3785" y2="5.05305" gradientUnits="userSpaceOnUse">
<stop stop-color="#A478E8"/>
<stop offset="1" stop-color="#516CF7"/>
</linearGradient>
</defs>
</svg>
