<svg width="101" height="101" viewBox="0 0 101 101" fill="none" xmlns="http://www.w3.org/2000/svg">
<path d="M78.7907 83.2754H76.5324V82.1672H78.7907V83.2754ZM74.2835 83.2754H72.0252V82.1672H74.2835V83.2754ZM69.7764 83.2754H67.5275V82.1672H69.7764V83.2754ZM65.2692 83.2754H62.9921V82.1672H65.241L65.2692 83.2754ZM60.7715 83.2754H58.5131V82.1672H60.7715V83.2754ZM56.2642 83.2754H54.006V82.1672H56.2642V83.2754ZM51.7571 83.2754H49.5082V82.1672H51.7571V83.2754ZM47.25 83.2754H45.0011V82.1672H47.25V83.2754ZM42.7522 83.2754H40.4939V82.1672H42.7522V83.2754ZM38.245 83.2754H35.9867V82.1672H38.245V83.2754ZM33.7378 83.2754H31.489V82.1672H33.7378V83.2754ZM29.2307 83.2754H26.9818V82.1672H29.2307V83.2754ZM24.7235 83.2754H22.4746V82.1672H24.7235V83.2754Z" fill="url(#paint0_linear_111_1906)"/>
<path d="M82.7548 79.3596H81.6445V77.1152H82.7548V79.3596ZM82.7548 74.8708H81.6445V72.6171H82.7548V74.8708ZM82.7548 70.3727H81.6445V68.119H82.7548V70.3727ZM82.7548 65.8746H81.6445V63.6303H82.7548V65.8746ZM82.7548 61.3765H81.6445V59.1134H82.7548V61.3765ZM82.7548 56.8784H81.6445V54.634H82.7548V56.8784ZM82.7548 52.3897H81.6445V50.1359H82.7548V52.3897ZM82.7548 47.8915H81.6445V45.6472H82.7548V47.8915ZM82.7548 43.3934H81.6445V41.1491H82.7548V43.3934ZM82.7548 38.8953H81.6445V36.651H82.7548V38.8953ZM82.7548 34.4066H81.6445V32.1529H82.7548V34.4066ZM82.7548 29.9085H81.6445V27.6641H82.7548V29.9085ZM82.7548 25.4104H81.6445V23.166H82.7548V25.4104Z" fill="url(#paint1_linear_111_1906)"/>
<path d="M23.0347 15.8882H15.1777V23.7294H23.0347V15.8882Z" fill="url(#paint2_linear_111_1906)"/>
<path d="M19.7037 79.3596H18.584V77.1152H19.7037V79.3596ZM19.7037 74.8708H18.584V72.6171H19.7037V74.8708ZM19.7037 70.3727H18.584V68.119H19.7037V70.3727ZM19.7037 65.8746H18.584V63.6303H19.7037V65.8746ZM19.7037 61.3765H18.584V59.1134H19.7037V61.3765ZM19.7037 56.8784H18.584V54.634H19.7037V56.8784ZM19.7037 52.3897H18.584V50.1359H19.7037V52.3897ZM19.7037 47.8915H18.584V45.6472H19.7037V47.8915ZM19.7037 43.3934H18.584V41.1491H19.7037V43.3934ZM19.7037 38.8953H18.584V36.651H19.7037V38.8953ZM19.7037 34.4066H18.584V32.1529H19.7037V34.4066ZM19.7037 29.9085H18.584V27.6641H19.7037V29.9085ZM19.7037 25.4104H18.584V23.166H19.7037V25.4104Z" fill="url(#paint3_linear_111_1906)"/>
<path d="M86.0776 78.8054H78.2207V86.6466H86.0776V78.8054Z" fill="url(#paint4_linear_111_1906)"/>
<path d="M86.0776 15.8882H78.2207V23.7294H86.0776V15.8882Z" fill="url(#paint5_linear_111_1906)"/>
<path d="M54.5581 15.8882H46.7012V23.7294H54.5581V15.8882Z" fill="url(#paint6_linear_111_1906)"/>
<path d="M78.7907 20.3584H76.5324V19.2502H78.7907V20.3584ZM74.2835 20.3584H72.0252V19.2502H74.2835V20.3584ZM69.7764 20.3584H67.5275V19.2502H69.7764V20.3584ZM65.2692 20.3584H62.9921V19.2502H65.241L65.2692 20.3584ZM60.7715 20.3584H58.5131V19.2502H60.7715V20.3584ZM56.2642 20.3584H54.006V19.2502H56.2642V20.3584ZM51.7571 20.3584H49.5082V19.2502H51.7571V20.3584ZM47.25 20.3584H45.0011V19.2502H47.25V20.3584ZM42.7522 20.3584H40.4939V19.2502H42.7522V20.3584ZM38.245 20.3584H35.9867V19.2502H38.245V20.3584ZM33.7378 20.3584H31.489V19.2502H33.7378V20.3584ZM29.2307 20.3584H26.9818V19.2502H29.2307V20.3584ZM24.7235 20.3584H22.4746V19.2502H24.7235V20.3584Z" fill="url(#paint7_linear_111_1906)"/>
<path d="M23.0347 78.8054H15.1777V86.6466H23.0347V78.8054Z" fill="url(#paint8_linear_111_1906)"/>
<path d="M23.0347 47.3469H15.1777V55.1881H23.0347V47.3469Z" fill="url(#paint9_linear_111_1906)"/>
<path d="M86.0776 47.3469H78.2207V55.1881H86.0776V47.3469Z" fill="url(#paint10_linear_111_1906)"/>
<path d="M54.5581 78.8054H46.7012V86.6466H54.5581V78.8054Z" fill="url(#paint11_linear_111_1906)"/>
<path d="M51.3936 58.7472H38.8131L33.9295 72.4388H38.6907V73.6408H28.9707V72.4388H31.9441L48.1473 28.885H53.3602L69.3565 72.4388H72.2828V73.6408H51.5254V72.4388H56.0325L51.3936 58.7472ZM39.387 57.348H50.8855L45.3621 40.736L39.387 57.348Z" fill="url(#paint12_linear_111_1906)"/>
<path d="M23.5982 24.2834H14.6309V15.3247H23.5982V24.2834ZM15.7412 23.1659H22.5349V16.4422H15.7883L15.7412 23.1659Z" fill="url(#paint13_linear_111_1906)"/>
<path d="M86.6255 24.2836H77.6582V15.325H86.6255V24.2836ZM78.7686 23.1661H85.5622V16.4424H78.8156L78.7686 23.1661Z" fill="url(#paint14_linear_111_1906)"/>
<path d="M55.1177 24.2836H46.1504V15.325H55.1177V24.2836ZM47.2608 23.1661H54.0074V16.4424H47.2608V23.1661Z" fill="url(#paint15_linear_111_1906)"/>
<defs>
<linearGradient id="paint0_linear_111_1906" x1="22.4746" y1="82.6603" x2="74.6646" y2="116.533" gradientUnits="userSpaceOnUse">
<stop stop-color="#A478E8"/>
<stop offset="1" stop-color="#516CF7"/>
</linearGradient>
<linearGradient id="paint1_linear_111_1906" x1="81.6445" y1="48.1719" x2="83.1069" y2="48.1723" gradientUnits="userSpaceOnUse">
<stop stop-color="#A478E8"/>
<stop offset="1" stop-color="#516CF7"/>
</linearGradient>
<linearGradient id="paint2_linear_111_1906" x1="15.1777" y1="19.3775" x2="25.5244" y2="19.5099" gradientUnits="userSpaceOnUse">
<stop stop-color="#A478E8"/>
<stop offset="1" stop-color="#516CF7"/>
</linearGradient>
<linearGradient id="paint3_linear_111_1906" x1="18.584" y1="48.1719" x2="20.0588" y2="48.1723" gradientUnits="userSpaceOnUse">
<stop stop-color="#A478E8"/>
<stop offset="1" stop-color="#516CF7"/>
</linearGradient>
<linearGradient id="paint4_linear_111_1906" x1="78.2207" y1="82.2947" x2="88.5674" y2="82.4271" gradientUnits="userSpaceOnUse">
<stop stop-color="#A478E8"/>
<stop offset="1" stop-color="#516CF7"/>
</linearGradient>
<linearGradient id="paint5_linear_111_1906" x1="78.2207" y1="19.3775" x2="88.5674" y2="19.5099" gradientUnits="userSpaceOnUse">
<stop stop-color="#A478E8"/>
<stop offset="1" stop-color="#516CF7"/>
</linearGradient>
<linearGradient id="paint6_linear_111_1906" x1="46.7012" y1="19.3775" x2="57.0479" y2="19.5099" gradientUnits="userSpaceOnUse">
<stop stop-color="#A478E8"/>
<stop offset="1" stop-color="#516CF7"/>
</linearGradient>
<linearGradient id="paint7_linear_111_1906" x1="22.4746" y1="19.7434" x2="74.6646" y2="53.6159" gradientUnits="userSpaceOnUse">
<stop stop-color="#A478E8"/>
<stop offset="1" stop-color="#516CF7"/>
</linearGradient>
<linearGradient id="paint8_linear_111_1906" x1="15.1777" y1="82.2947" x2="25.5244" y2="82.4271" gradientUnits="userSpaceOnUse">
<stop stop-color="#A478E8"/>
<stop offset="1" stop-color="#516CF7"/>
</linearGradient>
<linearGradient id="paint9_linear_111_1906" x1="15.1777" y1="50.8362" x2="25.5244" y2="50.9686" gradientUnits="userSpaceOnUse">
<stop stop-color="#A478E8"/>
<stop offset="1" stop-color="#516CF7"/>
</linearGradient>
<linearGradient id="paint10_linear_111_1906" x1="78.2207" y1="50.8362" x2="88.5674" y2="50.9686" gradientUnits="userSpaceOnUse">
<stop stop-color="#A478E8"/>
<stop offset="1" stop-color="#516CF7"/>
</linearGradient>
<linearGradient id="paint11_linear_111_1906" x1="46.7012" y1="82.2947" x2="57.0479" y2="82.4271" gradientUnits="userSpaceOnUse">
<stop stop-color="#A478E8"/>
<stop offset="1" stop-color="#516CF7"/>
</linearGradient>
<linearGradient id="paint12_linear_111_1906" x1="28.9707" y1="48.8011" x2="86.0085" y2="49.506" gradientUnits="userSpaceOnUse">
<stop stop-color="#A478E8"/>
<stop offset="1" stop-color="#516CF7"/>
</linearGradient>
<linearGradient id="paint13_linear_111_1906" x1="14.6309" y1="19.3113" x2="26.4398" y2="19.4622" gradientUnits="userSpaceOnUse">
<stop stop-color="#A478E8"/>
<stop offset="1" stop-color="#516CF7"/>
</linearGradient>
<linearGradient id="paint14_linear_111_1906" x1="77.6582" y1="19.3115" x2="89.4672" y2="19.4625" gradientUnits="userSpaceOnUse">
<stop stop-color="#A478E8"/>
<stop offset="1" stop-color="#516CF7"/>
</linearGradient>
<linearGradient id="paint15_linear_111_1906" x1="46.1504" y1="19.3115" x2="57.9593" y2="19.4625" gradientUnits="userSpaceOnUse">
<stop stop-color="#A478E8"/>
<stop offset="1" stop-color="#516CF7"/>
</linearGradient>
</defs>
</svg>
