<svg width="101" height="101" viewBox="0 0 101 101" fill="none" xmlns="http://www.w3.org/2000/svg">
<path d="M34.345 36.2036H33.6511V35.8632H34.345V36.2036ZM32.9601 36.2036H32.2662V35.8632H32.9601V36.2036ZM31.5752 36.2036H30.8842V35.8632H31.5752V36.2036ZM30.1903 36.2036H29.4907V35.8632H30.1817L30.1903 36.2036ZM28.8083 36.2036H28.1144V35.8632H28.8083V36.2036ZM27.4234 36.2036H26.7295V35.8632H27.4234V36.2036ZM26.0385 36.2036H25.3475V35.8632H26.0385V36.2036ZM24.6536 36.2036H23.9626V35.8632H24.6536V36.2036ZM23.2716 36.2036H22.5777V35.8632H23.2716V36.2036ZM21.8867 36.2036H21.1928V35.8632H21.8867V36.2036ZM20.5018 36.2036H19.8108V35.8632H20.5018V36.2036ZM19.1169 36.2036H18.4259V35.8632H19.1169V36.2036ZM17.732 36.2036H17.041V35.8632H17.732V36.2036Z" fill="url(#paint0_linear_111_1907)"/>
<path d="M35.5638 35.0005H35.2227V34.3109H35.5638V35.0005ZM35.5638 33.6213H35.2227V32.9288H35.5638V33.6213ZM35.5638 32.2391H35.2227V31.5466H35.5638V32.2391ZM35.5638 30.857H35.2227V30.1674H35.5638V30.857ZM35.5638 29.4749H35.2227V28.7795H35.5638V29.4749ZM35.5638 28.0928H35.2227V27.4032H35.5638V28.0928ZM35.5638 26.7136H35.2227V26.0211H35.5638V26.7136ZM35.5638 25.3314H35.2227V24.6418H35.5638V25.3314ZM35.5638 23.9493H35.2227V23.2597H35.5638V23.9493ZM35.5638 22.5672H35.2227V21.8776H35.5638V22.5672ZM35.5638 21.188H35.2227V20.4955H35.5638V21.188ZM35.5638 19.8059H35.2227V19.1163H35.5638V19.8059ZM35.5638 18.4237H35.2227V17.7341H35.5638V18.4237Z" fill="url(#paint1_linear_111_1907)"/>
<path d="M17.213 15.4979H14.7988V17.9073H17.213V15.4979Z" fill="url(#paint2_linear_111_1907)"/>
<path d="M16.1898 35.0005H15.8457V34.3109H16.1898V35.0005ZM16.1898 33.6213H15.8457V32.9288H16.1898V33.6213ZM16.1898 32.2391H15.8457V31.5466H16.1898V32.2391ZM16.1898 30.857H15.8457V30.1674H16.1898V30.857ZM16.1898 29.4749H15.8457V28.7795H16.1898V29.4749ZM16.1898 28.0928H15.8457V27.4032H16.1898V28.0928ZM16.1898 26.7136H15.8457V26.0211H16.1898V26.7136ZM16.1898 25.3314H15.8457V24.6418H16.1898V25.3314ZM16.1898 23.9493H15.8457V23.2597H16.1898V23.9493ZM16.1898 22.5672H15.8457V21.8776H16.1898V22.5672ZM16.1898 21.188H15.8457V20.4955H16.1898V21.188ZM16.1898 19.8059H15.8457V19.1163H16.1898V19.8059ZM16.1898 18.4237H15.8457V17.7341H16.1898V18.4237Z" fill="url(#paint3_linear_111_1907)"/>
<path d="M36.5841 34.8302H34.1699V37.2395H36.5841V34.8302Z" fill="url(#paint4_linear_111_1907)"/>
<path d="M36.5841 15.4979H34.1699V17.9073H36.5841V15.4979Z" fill="url(#paint5_linear_111_1907)"/>
<path d="M26.8985 15.4979H24.4844V17.9073H26.8985V15.4979Z" fill="url(#paint6_linear_111_1907)"/>
<path d="M34.345 16.8714H33.6511V16.5309H34.345V16.8714ZM32.9601 16.8714H32.2662V16.5309H32.9601V16.8714ZM31.5752 16.8714H30.8842V16.5309H31.5752V16.8714ZM30.1903 16.8714H29.4907V16.5309H30.1817L30.1903 16.8714ZM28.8083 16.8714H28.1144V16.5309H28.8083V16.8714ZM27.4234 16.8714H26.7295V16.5309H27.4234V16.8714ZM26.0385 16.8714H25.3475V16.5309H26.0385V16.8714ZM24.6536 16.8714H23.9626V16.5309H24.6536V16.8714ZM23.2716 16.8714H22.5777V16.5309H23.2716V16.8714ZM21.8867 16.8714H21.1928V16.5309H21.8867V16.8714ZM20.5018 16.8714H19.8108V16.5309H20.5018V16.8714ZM19.1169 16.8714H18.4259V16.5309H19.1169V16.8714ZM17.732 16.8714H17.041V16.5309H17.732V16.8714Z" fill="url(#paint7_linear_111_1907)"/>
<path d="M17.213 34.8302H14.7988V37.2395H17.213V34.8302Z" fill="url(#paint8_linear_111_1907)"/>
<path d="M17.213 25.1641H14.7988V27.5734H17.213V25.1641Z" fill="url(#paint9_linear_111_1907)"/>
<path d="M36.5841 25.1641H34.1699V27.5734H36.5841V25.1641Z" fill="url(#paint10_linear_111_1907)"/>
<path d="M26.8985 34.8302H24.4844V37.2395H26.8985V34.8302Z" fill="url(#paint11_linear_111_1907)"/>
<path d="M25.9269 28.667H22.0613L20.5608 32.8739H22.0237V33.2433H19.0371V32.8739H19.9507L24.9294 19.4913H26.5312L31.4463 32.8739H32.3454V33.2433H25.9674V32.8739H27.3523L25.9269 28.667ZM22.2377 28.237H25.7708L24.0736 23.1327L22.2377 28.237Z" fill="url(#paint12_linear_111_1907)"/>
<path d="M17.3862 18.0774H14.6309V15.3247H17.3862V18.0774ZM14.972 17.734H17.0595V15.6681H14.9865L14.972 17.734Z" fill="url(#paint13_linear_111_1907)"/>
<path d="M36.7534 18.0775H33.998V15.3248H36.7534V18.0775ZM34.3392 17.7342H36.4267V15.6682H34.3537L34.3392 17.7342Z" fill="url(#paint14_linear_111_1907)"/>
<path d="M27.0718 18.0775H24.3164V15.3248H27.0718V18.0775ZM24.6576 17.7342H26.7306V15.6682H24.6576V17.7342Z" fill="url(#paint15_linear_111_1907)"/>
<defs>
<linearGradient id="paint0_linear_111_1907" x1="17.041" y1="36.0147" x2="33.0772" y2="46.4226" gradientUnits="userSpaceOnUse">
<stop stop-color="#A478E8"/>
<stop offset="1" stop-color="#516CF7"/>
</linearGradient>
<linearGradient id="paint1_linear_111_1907" x1="35.2227" y1="25.4176" x2="35.672" y2="25.4177" gradientUnits="userSpaceOnUse">
<stop stop-color="#A478E8"/>
<stop offset="1" stop-color="#516CF7"/>
</linearGradient>
<linearGradient id="paint2_linear_111_1907" x1="14.7988" y1="16.5701" x2="17.978" y2="16.6107" gradientUnits="userSpaceOnUse">
<stop stop-color="#A478E8"/>
<stop offset="1" stop-color="#516CF7"/>
</linearGradient>
<linearGradient id="paint3_linear_111_1907" x1="15.8457" y1="25.4176" x2="16.2989" y2="25.4177" gradientUnits="userSpaceOnUse">
<stop stop-color="#A478E8"/>
<stop offset="1" stop-color="#516CF7"/>
</linearGradient>
<linearGradient id="paint4_linear_111_1907" x1="34.1699" y1="35.9023" x2="37.3491" y2="35.943" gradientUnits="userSpaceOnUse">
<stop stop-color="#A478E8"/>
<stop offset="1" stop-color="#516CF7"/>
</linearGradient>
<linearGradient id="paint5_linear_111_1907" x1="34.1699" y1="16.5701" x2="37.3491" y2="16.6107" gradientUnits="userSpaceOnUse">
<stop stop-color="#A478E8"/>
<stop offset="1" stop-color="#516CF7"/>
</linearGradient>
<linearGradient id="paint6_linear_111_1907" x1="24.4844" y1="16.5701" x2="27.6636" y2="16.6107" gradientUnits="userSpaceOnUse">
<stop stop-color="#A478E8"/>
<stop offset="1" stop-color="#516CF7"/>
</linearGradient>
<linearGradient id="paint7_linear_111_1907" x1="17.041" y1="16.6824" x2="33.0772" y2="27.0903" gradientUnits="userSpaceOnUse">
<stop stop-color="#A478E8"/>
<stop offset="1" stop-color="#516CF7"/>
</linearGradient>
<linearGradient id="paint8_linear_111_1907" x1="14.7988" y1="35.9023" x2="17.978" y2="35.943" gradientUnits="userSpaceOnUse">
<stop stop-color="#A478E8"/>
<stop offset="1" stop-color="#516CF7"/>
</linearGradient>
<linearGradient id="paint9_linear_111_1907" x1="14.7988" y1="26.2362" x2="17.978" y2="26.2769" gradientUnits="userSpaceOnUse">
<stop stop-color="#A478E8"/>
<stop offset="1" stop-color="#516CF7"/>
</linearGradient>
<linearGradient id="paint10_linear_111_1907" x1="34.1699" y1="26.2362" x2="37.3491" y2="26.2769" gradientUnits="userSpaceOnUse">
<stop stop-color="#A478E8"/>
<stop offset="1" stop-color="#516CF7"/>
</linearGradient>
<linearGradient id="paint11_linear_111_1907" x1="24.4844" y1="35.9023" x2="27.6636" y2="35.943" gradientUnits="userSpaceOnUse">
<stop stop-color="#A478E8"/>
<stop offset="1" stop-color="#516CF7"/>
</linearGradient>
<linearGradient id="paint12_linear_111_1907" x1="19.0371" y1="25.6109" x2="36.5629" y2="25.8275" gradientUnits="userSpaceOnUse">
<stop stop-color="#A478E8"/>
<stop offset="1" stop-color="#516CF7"/>
</linearGradient>
<linearGradient id="paint13_linear_111_1907" x1="14.6309" y1="16.5496" x2="18.2593" y2="16.596" gradientUnits="userSpaceOnUse">
<stop stop-color="#A478E8"/>
<stop offset="1" stop-color="#516CF7"/>
</linearGradient>
<linearGradient id="paint14_linear_111_1907" x1="33.998" y1="16.5498" x2="37.6265" y2="16.5961" gradientUnits="userSpaceOnUse">
<stop stop-color="#A478E8"/>
<stop offset="1" stop-color="#516CF7"/>
</linearGradient>
<linearGradient id="paint15_linear_111_1907" x1="24.3164" y1="16.5498" x2="27.9449" y2="16.5961" gradientUnits="userSpaceOnUse">
<stop stop-color="#A478E8"/>
<stop offset="1" stop-color="#516CF7"/>
</linearGradient>
</defs>
</svg>
