<svg width="159" height="42" viewBox="0 0 159 42" fill="none" xmlns="http://www.w3.org/2000/svg">
<path d="M47.2764 13.2169H51.1231V29.1375H47.2764V13.2169ZM52.649 23.1263C52.649 19.1888 55.0084 16.8394 58.65 16.8394C62.2916 16.8394 64.651 19.1888 64.651 23.1263C64.651 27.0638 62.3429 29.4263 58.65 29.4263C54.9571 29.4263 52.649 27.1294 52.649 23.1263ZM60.7914 23.1263C60.7914 20.9607 59.9579 19.6875 58.65 19.6875C57.3421 19.6875 56.5215 21 56.5215 23.1263C56.5215 25.2525 57.3293 26.5388 58.65 26.5388C59.9707 26.5388 60.7914 25.3313 60.7914 23.1394V23.1263ZM66.0999 29.9119H69.7928C69.9686 30.3116 70.2657 30.6424 70.64 30.8553C71.0143 31.0681 71.4458 31.1516 71.8701 31.0932C73.3319 31.0932 74.1012 30.2794 74.1012 29.0982V26.8932H74.0243C73.7178 27.569 73.2204 28.1352 72.5965 28.5189C71.9725 28.9026 71.2505 29.0861 70.5237 29.0457C67.7156 29.0457 65.8563 26.8538 65.8563 23.0869C65.8563 19.32 67.6258 16.9444 70.575 16.9444C71.3246 16.9143 72.0652 17.1195 72.6978 17.5323C73.3303 17.9452 73.8245 18.546 74.114 19.2544V17.0625H77.9608V29.0063C77.9608 31.8807 75.486 33.6657 71.8316 33.6657C68.4336 33.6657 66.3179 32.1038 66.0999 29.925V29.9119ZM74.114 23.1132C74.114 21.1969 73.2549 19.9894 71.8957 19.9894C70.5365 19.9894 69.7031 21.1838 69.7031 23.1132C69.7031 25.0425 70.5237 26.1319 71.8957 26.1319C73.2677 26.1319 74.114 25.0688 74.114 23.1263V23.1132ZM79.4098 23.1132C79.4098 19.1757 81.7691 16.8263 85.4107 16.8263C89.0523 16.8263 91.4245 19.1757 91.4245 23.1132C91.4245 27.0507 89.1164 29.4132 85.4107 29.4132C81.705 29.4132 79.4098 27.1294 79.4098 23.1263V23.1132ZM87.5521 23.1132C87.5521 20.9475 86.7186 19.6744 85.4107 19.6744C84.1028 19.6744 83.3463 21 83.3463 23.1394C83.3463 25.2788 84.1541 26.5519 85.462 26.5519C86.7699 26.5519 87.5521 25.3313 87.5521 23.1394V23.1132ZM92.8863 14.2013C92.8762 13.8037 92.9817 13.4121 93.1893 13.076C93.397 12.7398 93.6974 12.4744 94.0526 12.3133C94.4078 12.1521 94.8017 12.1026 95.1845 12.1709C95.5672 12.2392 95.9215 12.4223 96.2025 12.697C96.4835 12.9717 96.6784 13.3256 96.7627 13.7138C96.8469 14.1021 96.8167 14.5071 96.6756 14.8777C96.5347 15.2483 96.2894 15.5677 95.9709 15.7954C95.6525 16.0232 95.275 16.149 94.8866 16.1569C94.6291 16.175 94.3708 16.1384 94.1278 16.0494C93.8847 15.9604 93.6623 15.821 93.4745 15.6398C93.2866 15.4587 93.1374 15.2396 93.0362 14.9965C92.9349 14.7536 92.8839 14.4917 92.8863 14.2275V14.2013ZM92.8863 17.0888H96.7331V29.1375H92.8863V17.0888ZM110.697 23.1132C110.697 27.0507 108.991 29.295 106.068 29.295C105.318 29.3442 104.572 29.1567 103.93 28.7577C103.288 28.3586 102.781 27.7673 102.478 27.0638H102.401V32.9963H98.5539V17.0625H102.401V19.215H102.478C102.767 18.4998 103.264 17.8932 103.902 17.4775C104.539 17.0619 105.287 16.8574 106.042 16.8919C108.991 16.9444 110.748 19.2019 110.748 23.1394L110.697 23.1132ZM106.85 23.1132C106.85 21.1969 105.991 19.9763 104.645 19.9763C103.298 19.9763 102.439 21.21 102.426 23.1132C102.413 25.0163 103.298 26.2369 104.645 26.2369C105.991 26.2369 106.85 25.0425 106.85 23.1394V23.1132ZM117.3 16.8132C120.493 16.8132 122.43 18.3619 122.519 20.8425H119.019C119.019 19.9894 118.326 19.4513 117.262 19.4513C116.198 19.4513 115.723 19.8713 115.723 20.4882C115.723 21.105 116.146 21.3019 117.006 21.4857L119.467 21.9975C121.814 22.5094 122.814 23.4807 122.814 25.305C122.814 27.7988 120.596 29.4 117.326 29.4C114.056 29.4 111.915 27.7988 111.748 25.3444H115.454C115.569 26.2369 116.262 26.7619 117.39 26.7619C118.519 26.7619 119.032 26.3813 119.032 25.7513C119.032 25.1213 118.673 24.99 117.749 24.7932L115.531 24.3075C113.236 23.8219 112.03 22.575 112.03 20.7375C112.056 18.375 114.12 16.8394 117.3 16.8394V16.8132ZM135.65 29.1113H131.944V26.8669H131.867C131.663 27.6204 131.214 28.2799 130.594 28.736C129.973 29.192 129.219 29.4171 128.456 29.3738C127.872 29.4078 127.287 29.313 126.741 29.0958C126.196 28.8786 125.702 28.5441 125.294 28.1148C124.885 27.6856 124.572 27.1715 124.374 26.6076C124.176 26.0436 124.099 25.4427 124.148 24.8457V17.0625H127.995V23.94C127.995 25.3707 128.713 26.1319 129.905 26.1319C130.185 26.1324 130.462 26.0719 130.717 25.9542C130.971 25.8365 131.199 25.6643 131.384 25.4493C131.567 25.2342 131.705 24.9812 131.786 24.7074C131.867 24.4335 131.891 24.145 131.854 23.8613V17.0625H135.701L135.65 29.1113ZM137.509 17.0625H141.227V19.3857H141.304C141.508 18.6421 141.948 17.9888 142.553 17.5281C143.158 17.0674 143.897 16.8251 144.651 16.8394C145.419 16.7765 146.181 17.0116 146.787 17.498C147.393 17.9844 147.798 18.6864 147.921 19.4644H147.998C148.23 18.6781 148.712 17.9935 149.367 17.5182C150.021 17.043 150.812 16.8041 151.614 16.8394C152.137 16.8214 152.657 16.9163 153.142 17.1179C153.628 17.3194 154.065 17.6232 154.428 18.0094C154.791 18.3956 155.071 18.8557 155.249 19.3595C155.426 19.8634 155.499 20.4001 155.46 20.9344V29.1375H151.614V21.9844C151.614 20.6719 151.037 20.0682 149.96 20.0682C149.72 20.0661 149.481 20.1167 149.262 20.2167C149.043 20.3167 148.847 20.4637 148.688 20.6479C148.529 20.832 148.409 21.0489 148.339 21.2839C148.268 21.5191 148.249 21.7669 148.28 22.0107V29.1375H144.625V21.9319C144.625 20.7244 144.048 20.0682 142.997 20.0682C142.755 20.0683 142.514 20.121 142.293 20.223C142.071 20.3251 141.872 20.4741 141.712 20.6601C141.551 20.8461 141.43 21.065 141.357 21.3024C141.285 21.5397 141.262 21.79 141.292 22.0369V29.1375H137.445L137.509 17.0625Z" fill="url(#paint0_linear_30_435)"/>
<path d="M36.5191 13.9387C35.8665 12.4115 35.0029 10.9881 33.9546 9.71248C32.4049 7.77043 30.471 6.18631 28.2802 5.06439C26.0893 3.94249 23.6911 3.30823 21.2435 3.20335C18.796 3.09847 16.3544 3.52534 14.0796 4.45591C11.8048 5.38645 9.74831 6.79958 8.04551 8.60228C6.34269 10.405 5.03216 12.5563 4.20017 14.9148C3.36817 17.2733 3.03357 19.7854 3.21839 22.2857C3.40323 24.7861 4.10328 27.2181 5.27249 29.4215C6.44171 31.6251 8.05357 33.5501 10.002 35.07C11.2522 36.0647 12.6336 36.8734 14.1052 37.4719C16.1684 38.3373 18.3765 38.783 20.6062 38.7844C25.2088 38.774 29.6195 36.8961 32.8717 33.5623C36.1238 30.2286 37.9519 25.7111 37.9552 21C37.9585 18.5699 37.4696 16.1655 36.5191 13.9387ZM20.5934 6.81184C22.5958 6.81163 24.5739 7.25959 26.3892 8.12434C25.9466 8.32013 25.4811 8.45688 25.0044 8.53123C23.4357 8.76366 21.9825 9.50914 20.8617 10.6564C19.7409 11.8036 19.0125 13.2911 18.7854 14.8969C18.6858 15.7974 18.2856 16.6351 17.6526 17.2688C17.0195 17.9025 16.1923 18.2931 15.3105 18.375C13.7418 18.6074 12.2886 19.3529 11.1678 20.5002C10.047 21.6474 9.31866 23.1349 9.09158 24.7406C9.0147 25.5969 8.65778 26.4016 8.0786 27.0244C7.07927 24.8631 6.63035 22.478 6.77361 20.0913C6.91686 17.7047 7.64763 15.3939 8.89792 13.374C10.1482 11.3541 11.8774 9.69084 13.9245 8.5389C15.9717 7.38695 18.2702 6.78382 20.6062 6.78559L20.5934 6.81184ZM9.98916 30.1875C10.143 30.0431 10.2969 29.9119 10.4508 29.7544C11.5915 28.6223 12.3238 27.1279 12.528 25.515C12.6108 24.6083 13.0063 23.7615 13.6436 23.1262C14.2569 22.4729 15.0823 22.0714 15.9645 21.9975C17.5332 21.765 18.9864 21.0195 20.1072 19.8723C21.228 18.725 21.9563 17.2376 22.1834 15.6319C22.2389 14.6836 22.6364 13.7902 23.299 13.125C23.9274 12.4843 24.7606 12.0974 25.6455 12.0356C27.0867 11.8326 28.4307 11.1768 29.4923 10.1587C30.7011 11.1852 31.7251 12.42 32.5184 13.8075C32.4697 13.8748 32.4138 13.9365 32.3517 13.9912C31.7397 14.6504 30.9153 15.0607 30.0308 15.1462C28.4605 15.3746 27.0051 16.1188 25.8835 17.2667C24.762 18.4147 24.035 19.9044 23.8119 21.5119C23.7215 22.4154 23.3287 23.2592 22.7002 23.9002C22.0715 24.5414 21.2457 24.9402 20.3626 25.0294C18.7893 25.26 17.3307 26.004 16.2034 27.1508C15.0761 28.2976 14.3402 29.786 14.1052 31.395C14.0362 32.0364 13.8209 32.6524 13.4769 33.1931C12.1613 32.3935 10.983 31.3782 9.98916 30.1875ZM20.5934 35.2537C19.2923 35.2552 17.9974 35.0696 16.7467 34.7025C17.1745 33.8861 17.4527 32.9964 17.5673 32.0775C17.6572 31.1759 18.0481 30.3337 18.6741 29.6929C19.3001 29.0522 20.123 28.652 21.0037 28.56C22.5748 28.3302 24.0309 27.5858 25.1543 26.4383C26.2775 25.2909 27.0078 23.8019 27.2355 22.1944C27.3254 21.2928 27.7164 20.4506 28.3424 19.8098C28.9684 19.169 29.7912 18.7689 30.672 18.6769C31.8542 18.5195 32.9811 18.0689 33.9546 17.3644C34.4952 19.4616 34.5591 21.6577 34.1418 23.7842C33.7244 25.9107 32.8366 27.9112 31.5466 29.632C30.2567 31.3527 28.5988 32.7483 26.7001 33.7114C24.8014 34.6745 22.7125 35.1797 20.5934 35.1881V35.2537Z" fill="url(#paint1_linear_30_435)"/>
<defs>
<linearGradient id="paint0_linear_30_435" x1="47.2764" y1="21.7194" x2="189.194" y2="30.8294" gradientUnits="userSpaceOnUse">
<stop stop-color="#A478E8"/>
<stop offset="1" stop-color="#516CF7"/>
</linearGradient>
<linearGradient id="paint1_linear_30_435" x1="3.16895" y1="19.0281" x2="48.9789" y2="19.5998" gradientUnits="userSpaceOnUse">
<stop stop-color="#A478E8"/>
<stop offset="1" stop-color="#516CF7"/>
</linearGradient>
</defs>
</svg>
