<svg width="164" height="36" viewBox="0 0 164 36" fill="none" xmlns="http://www.w3.org/2000/svg">
<g clip-path="url(#clip0_30_407)">
<path d="M47.3178 18.7218C47.3504 18.1069 47.3504 17.4907 47.3178 16.8757H11.5497C11.5422 17.0289 11.5356 17.1831 11.5318 17.3372H4.03874L4.03497 17.568H0V18.0295H4.03402L4.03968 18.2603H11.5318C11.5356 18.4154 11.5413 18.5686 11.5507 18.7218H21.8195C21.7806 18.4156 21.761 18.1073 21.7611 17.7988H36.8416C36.8416 18.1117 36.8227 18.42 36.7831 18.7218H47.3178ZM47.2433 15.9526H36.605C36.5223 15.6385 36.4184 15.3302 36.294 15.0295H22.3115C22.1881 15.3286 22.0834 15.636 22.0005 15.9526H11.6233C11.6402 15.7985 11.6591 15.6443 11.6798 15.4911H4.18671L4.21876 15.2658H0V14.8043H4.29322L4.33657 14.568H11.8297C11.858 14.4138 11.89 14.2597 11.9239 14.1065H46.9445C47.0765 14.7111 47.1773 15.3268 47.2433 15.9526ZM46.7155 13.1834H35.1884C34.9165 12.8511 34.616 12.5422 34.2901 12.2603H24.3144C23.9892 12.5428 23.6876 12.8511 23.4162 13.1834H12.153C12.1954 13.0292 12.2406 12.8751 12.2877 12.7218H4.79464L4.87759 12.4625H0V12H5.03499L5.10851 11.7978H12.6016C12.6582 11.6428 12.7185 11.4895 12.7807 11.3363H46.0868C46.33 11.9363 46.5402 12.5538 46.7155 13.1834ZM45.6815 10.4142H13.186C13.2595 10.2591 13.3349 10.1058 13.4131 9.95261H5.92097L6.05386 9.69785H0V9.23631H6.30929L6.42899 9.02954H13.9221C14.0135 8.87446 14.1078 8.72031 14.2039 8.568H44.6636C45.0387 9.16061 45.3799 9.77723 45.6815 10.4142ZM11.6233 19.6449H47.2443C47.1773 20.2708 47.0765 20.8874 46.9445 21.4911H35.834C36.0084 21.1957 36.1629 20.8874 36.2949 20.568H22.3097C22.4416 20.8874 22.5952 21.1957 22.7696 21.4911H11.923C11.8894 21.3377 11.858 21.1838 11.8287 21.0295H4.33657C4.32122 20.9484 4.30646 20.8672 4.29228 20.7858H0V20.3243H4.21782C4.20699 20.2518 4.19663 20.1791 4.18671 20.1065H11.6798C11.6589 19.9529 11.64 19.799 11.6233 19.6449ZM12.152 22.4142H46.7146C46.5402 23.0446 46.33 23.6603 46.0868 24.2603H32.9555C33.4331 24.0007 33.8806 23.6912 34.2901 23.3372H24.3144C24.724 23.6912 25.1715 24.0007 25.649 24.2603H12.7807C12.7188 24.1073 12.6591 23.9534 12.6016 23.7988H5.10851L5.02745 23.5763H0V23.1148H4.87099C4.84528 23.0353 4.82014 22.9556 4.79559 22.8757H12.2877C12.2406 22.7225 12.1954 22.5692 12.152 22.4142ZM13.186 25.1834H45.6815C45.3802 25.8181 45.0403 26.4346 44.6636 27.0295H14.2039C14.1072 26.8771 14.013 26.7233 13.9211 26.568H6.42899C6.38186 26.4886 6.33568 26.4092 6.29044 26.3289H0V25.8674H6.0369L5.92097 25.6458H13.4141C13.3357 25.4931 13.2597 25.3392 13.186 25.1843V25.1834ZM15.9476 29.3372C16.0861 29.4942 16.2285 29.6474 16.3736 29.7988H42.4939C43.0502 29.2182 43.5657 28.6014 44.0368 27.9526H14.8307C14.9438 28.1086 15.0588 28.2628 15.1775 28.4142H7.68444L7.87106 28.6495H0V29.1111H8.25655C8.32159 29.1877 8.38756 29.2625 8.45448 29.3372H15.9476ZM19.074 32.1065C19.303 32.2662 19.5358 32.4203 19.7714 32.568H39.0961C39.9636 32.0224 40.7816 31.4047 41.541 30.7218H17.3274C17.5018 30.8788 17.68 31.0329 17.8609 31.1834H10.3678C10.4696 31.2683 10.5723 31.3514 10.676 31.4326H0V31.8941H11.284C11.382 31.9662 11.4819 32.0372 11.5818 32.1065H19.0749H19.074ZM25.6877 34.9532C26.896 35.2052 28.1486 35.3372 29.4333 35.3372C32.3118 35.3372 35.031 34.6726 37.4401 33.4911H21.4265C21.762 33.6554 22.1023 33.8095 22.4482 33.9526H14.9551C15.0889 34.008 15.2237 34.0625 15.3585 34.1151H0V34.5766H16.7063C18.3623 35.0714 20.1202 35.3372 21.9411 35.3372C23.2258 35.3372 24.4794 35.2052 25.6877 34.9532ZM14.8307 7.64492H44.0368C43.5657 6.99611 43.0502 6.37931 42.4939 5.79877H16.3736C16.2285 5.95015 16.0861 6.10338 15.9466 6.26031H8.45448L8.2886 6.45046H0V6.912H7.90028C7.8277 7.00154 7.75607 7.092 7.68538 7.18338H15.1775C15.0588 7.33569 14.9438 7.48985 14.8307 7.64492ZM17.3265 4.87569H41.5401C40.7809 4.19284 39.9633 3.57518 39.0961 3.02954H19.7714C19.5358 3.17815 19.303 3.33231 19.074 3.49108H11.5818C11.4781 3.564 11.3744 3.63692 11.2726 3.71169H0V4.17323H10.6657C10.5657 4.25261 10.4668 4.33292 10.3688 4.41415H17.8609C17.68 4.56462 17.5018 4.71877 17.3265 4.87569ZM21.4274 2.10646H37.441C34.9555 0.888402 32.2136 0.2562 29.4342 0.260308C28.1486 0.260308 26.896 0.393231 25.6877 0.645231C24.456 0.3888 23.2003 0.259785 21.9411 0.260308C19.9298 0.260308 17.9966 0.585231 16.1917 1.18338H0V1.64492H22.4482C22.1031 1.78821 21.7627 1.94213 21.4274 2.10646ZM104.854 0C105.474 0 105.96 0.151385 106.313 0.454154C106.682 0.743077 106.866 1.14646 106.866 1.66708C106.866 2.18677 106.682 2.59754 106.313 2.90031C105.96 3.18923 105.474 3.33415 104.854 3.33415C104.236 3.33415 103.742 3.18923 103.374 2.90031C103.02 2.59754 102.843 2.18677 102.843 1.66708C102.843 1.14738 103.02 0.744 103.374 0.454154C103.742 0.151385 104.236 0 104.854 0ZM106.578 5.34646V14.7628C106.578 15.3692 106.682 15.7809 106.888 15.9969C107.109 16.2138 107.477 16.3218 107.993 16.3218V16.776C107.581 16.7563 107.168 16.7418 106.756 16.7326C106.189 16.7036 105.621 16.6891 105.053 16.6892C104.479 16.6892 103.897 16.704 103.308 16.7326C102.866 16.7422 102.423 16.7566 101.982 16.776V16.3218C102.497 16.3218 102.858 16.2138 103.065 15.9969C103.285 15.7809 103.396 15.3692 103.396 14.7628V7.944C103.396 7.29508 103.293 6.81785 103.086 6.516C102.895 6.19846 102.526 6.03969 101.982 6.03969V5.58462C102.453 5.628 102.91 5.64923 103.352 5.64923C103.97 5.64923 104.545 5.628 105.076 5.58462C105.621 5.52738 106.122 5.448 106.578 5.34646Z" fill="url(#paint0_linear_30_407)"/>
<path fill-rule="evenodd" clip-rule="evenodd" d="M112.799 7.3329V5.34644C112.343 5.44797 111.841 5.52736 111.296 5.58459C110.751 5.62797 110.176 5.64921 109.572 5.64921C109.13 5.64921 108.673 5.62797 108.201 5.58459V6.03967C108.732 6.03967 109.1 6.19844 109.307 6.51597C109.513 6.81874 109.616 7.29505 109.616 7.94397V18.768C109.616 19.3449 109.513 19.7344 109.307 19.9366C109.115 20.1387 108.776 20.2394 108.29 20.2394V20.6944L109.461 20.6298C109.999 20.6151 110.537 20.6078 111.075 20.6077C111.826 20.6077 112.534 20.6151 113.197 20.6289C113.874 20.6584 114.405 20.6797 114.789 20.6935V20.2394C114.169 20.2394 113.683 20.124 113.329 19.8932C112.976 19.6772 112.799 19.2295 112.799 18.5511V16.3818C112.993 16.5406 113.221 16.6717 113.484 16.776C113.955 16.9791 114.478 17.0797 115.053 17.0797C115.835 17.0797 116.534 16.9421 117.153 16.668C117.783 16.3968 118.336 15.9811 118.767 15.456C119.223 14.9077 119.57 14.2366 119.806 13.4427C120.056 12.6489 120.182 11.7258 120.182 10.6717C120.182 9.47444 120.004 8.47844 119.651 7.68459C119.298 6.87597 118.825 6.27782 118.236 5.88828C117.648 5.48419 116.944 5.27199 116.225 5.28182C115.37 5.28182 114.619 5.49782 113.97 5.93074C113.46 6.26767 113.07 6.73474 112.799 7.33382V7.3329ZM112.799 8.0769V15.924C112.921 16.0661 113.069 16.1843 113.241 16.2784C113.521 16.4224 113.837 16.4944 114.192 16.4944C114.854 16.4944 115.378 16.2784 115.761 15.8455C116.144 15.3978 116.416 14.7775 116.578 13.9837C116.756 13.176 116.844 12.216 116.844 11.1046C116.844 9.86397 116.763 8.88921 116.601 8.18213C116.439 7.47505 116.217 6.97013 115.937 6.66736C115.658 6.36367 115.319 6.21228 114.92 6.21228C114.391 6.21228 113.904 6.41536 113.462 6.81874C113.13 7.13259 112.908 7.55259 112.799 8.0769Z" fill="url(#paint1_linear_30_407)"/>
<path d="M125.256 5.28183C125.875 5.28183 126.413 5.36121 126.87 5.51998C127.341 5.66398 127.68 5.8089 127.887 5.9529C128.387 6.28521 128.697 6.06829 128.815 5.30306H129.279C129.25 5.70736 129.227 6.20583 129.213 6.79659C129.198 7.37444 129.19 8.14613 129.19 9.11352H128.726C128.651 8.57228 128.51 8.04178 128.306 7.53321C128.118 7.03964 127.807 6.60029 127.4 6.25567C127.017 5.92336 126.516 5.75721 125.897 5.75721C125.47 5.75721 125.109 5.8809 124.814 6.12644C124.519 6.35721 124.372 6.69598 124.372 7.14367C124.372 7.57659 124.505 7.95875 124.77 8.29106C125.035 8.60859 125.374 8.91875 125.787 9.22152C126.214 9.51044 126.656 9.82059 127.113 10.152C127.599 10.5129 128.041 10.8738 128.439 11.2347C128.82 11.5612 129.142 11.9493 129.389 12.3821C129.626 12.8003 129.743 13.2978 129.743 13.8757C129.743 14.5246 129.551 15.0941 129.168 15.5852C128.785 16.0615 128.277 16.4298 127.643 16.6892C127.024 16.9495 126.331 17.0797 125.566 17.0797C125.164 17.0841 124.763 17.0404 124.372 16.9495C124.065 16.8748 123.769 16.7657 123.488 16.6246C123.297 16.5378 123.112 16.4584 122.936 16.3864C122.785 16.3054 122.63 16.2333 122.471 16.1704C122.324 16.1271 122.191 16.1769 122.073 16.3218C121.97 16.4658 121.889 16.668 121.83 16.9274H121.366C121.395 16.4658 121.418 15.9027 121.432 15.2391C121.447 14.5754 121.455 13.6947 121.455 12.5991H121.919C122.007 13.3781 122.169 14.0704 122.405 14.676C122.641 15.2686 122.957 15.7375 123.355 16.0837C123.768 16.416 124.283 16.5821 124.903 16.5821C125.153 16.5821 125.396 16.5314 125.632 16.4298C125.868 16.3283 126.059 16.1621 126.207 15.9314C126.369 15.7006 126.45 15.4052 126.45 15.0452C126.45 14.4092 126.236 13.8821 125.808 13.464C125.396 13.0458 124.866 12.5907 124.217 12.1006C123.746 11.7249 123.297 11.3575 122.87 10.9966C122.474 10.6418 122.131 10.2337 121.853 9.7846C121.583 9.32352 121.446 8.79995 121.455 8.2689C121.455 7.61998 121.631 7.07167 121.985 6.62398C122.345 6.17162 122.828 5.82671 123.378 5.62798C123.975 5.39561 124.613 5.27809 125.256 5.28183ZM152.694 5.51998C152.31 5.36121 151.81 5.28183 151.191 5.28183C150.497 5.27493 149.814 5.43871 149.202 5.75813C148.598 6.0609 148.119 6.57321 147.765 7.29506V5.34736C147.308 5.44798 146.807 5.52736 146.262 5.58459C145.732 5.62798 145.157 5.64921 144.538 5.64921C144.096 5.64921 143.639 5.62798 143.168 5.58459V6.03967C143.713 6.03967 144.081 6.19844 144.272 6.51598C144.479 6.81875 144.582 7.29506 144.582 7.94398V14.7627C144.582 15.3692 144.471 15.7809 144.251 15.9969C144.044 16.2138 143.683 16.3218 143.168 16.3218V16.776C143.61 16.7566 144.052 16.7421 144.494 16.7326C145.068 16.7041 145.643 16.6896 146.218 16.6892C146.733 16.6892 147.235 16.704 147.72 16.7326C148.222 16.7474 148.59 16.7621 148.826 16.776V16.3218C148.443 16.3218 148.17 16.2138 148.008 15.9969C147.846 15.7809 147.765 15.3692 147.765 14.7627V8.74521C147.765 8.2689 147.861 7.84336 148.052 7.46767C148.258 7.07813 148.523 6.77536 148.848 6.55936C149.159 6.34688 149.529 6.23343 149.909 6.23444C150.248 6.23444 150.498 6.31383 150.66 6.47259C150.837 6.61659 150.955 6.82613 151.014 7.10029C151.073 7.35967 151.102 7.66982 151.102 8.03075V14.7627C151.102 15.3692 151.021 15.7809 150.859 15.9969C150.712 16.2138 150.439 16.3218 150.042 16.3218V16.776C150.307 16.7621 150.697 16.7474 151.213 16.7326C152.259 16.6742 153.307 16.6742 154.352 16.7326C154.897 16.7474 155.302 16.7621 155.567 16.776V16.3218C155.096 16.3218 154.764 16.2138 154.572 15.9969C154.381 15.7809 154.285 15.3692 154.285 14.7627V8.84121L154.284 8.77383L154.28 8.55506C154.314 8.19322 154.413 7.84009 154.572 7.51198C154.779 7.12152 155.044 6.81136 155.368 6.58059C155.692 6.34983 156.047 6.23444 156.429 6.23444C156.812 6.23444 157.093 6.31383 157.269 6.47259C157.46 6.61659 157.586 6.82613 157.645 7.10029C157.719 7.35967 157.755 7.66982 157.755 8.03075V14.7627C157.755 15.3692 157.674 15.7809 157.512 15.9969C157.365 16.2138 157.093 16.3218 156.694 16.3218V16.776C156.96 16.7621 157.35 16.7474 157.866 16.7326C158.388 16.7035 158.912 16.6891 159.435 16.6892C159.981 16.6892 160.533 16.704 161.093 16.7326C161.653 16.7474 162.073 16.7621 162.353 16.776V16.3218C161.837 16.3218 161.469 16.2138 161.247 15.9969C161.041 15.7809 160.938 15.3692 160.938 14.7627V8.93998C160.938 8.21813 160.886 7.64121 160.784 7.20829C160.68 6.76059 160.511 6.40059 160.275 6.12644C160.039 5.86613 159.73 5.6649 159.346 5.51998C158.964 5.36121 158.462 5.28183 157.844 5.28183C157.093 5.28183 156.385 5.43321 155.722 5.73598C155.087 6.03321 154.572 6.59998 154.178 7.43629C154.164 7.35987 154.148 7.28384 154.13 7.20829C154.028 6.76059 153.858 6.40059 153.622 6.12644C153.387 5.86613 153.077 5.6649 152.694 5.51998ZM141.434 14.4166V5.34644C140.976 5.44798 140.476 5.52736 139.93 5.58459C139.401 5.62798 138.826 5.64921 138.206 5.64921C137.764 5.64921 137.308 5.62798 136.836 5.58459V6.03967C137.382 6.03967 137.75 6.19844 137.942 6.51598C138.148 6.81875 138.251 7.29506 138.251 7.94398V13.6154C138.251 14.0917 138.148 14.5246 137.942 14.9141C137.766 15.2708 137.5 15.5768 137.168 15.8021C136.859 16.0188 136.487 16.1327 136.106 16.1271C135.739 16.1271 135.459 16.0541 135.267 15.9101C135.068 15.7399 134.929 15.513 134.869 15.2612C134.806 14.9475 134.777 14.6283 134.78 14.3086V5.34644C134.324 5.44798 133.823 5.52736 133.278 5.58459C132.747 5.62798 132.172 5.64921 131.554 5.64921C131.112 5.64921 130.655 5.62798 130.184 5.58459V6.03967C130.728 6.03967 131.097 6.19844 131.288 6.51598C131.495 6.81875 131.597 7.29506 131.597 7.94398V13.4206C131.597 14.1277 131.649 14.7055 131.753 15.1523C131.856 15.6 132.033 15.9609 132.283 16.2351C132.504 16.4806 132.806 16.6827 133.189 16.8415C133.572 16.9994 134.073 17.0797 134.693 17.0797C135.459 17.0797 136.151 16.9274 136.77 16.6246C137.403 16.3071 137.897 15.7874 138.251 15.0664V17.0141C138.744 16.8951 139.247 16.8155 139.754 16.776C140.285 16.7326 140.859 16.7114 141.478 16.7114C141.935 16.7114 142.391 16.7326 142.848 16.776V16.3218C142.318 16.3218 141.949 16.1704 141.743 15.8667C141.536 15.5492 141.434 15.0664 141.434 14.4175V14.4166Z" fill="url(#paint2_linear_30_407)"/>
<path fill-rule="evenodd" clip-rule="evenodd" d="M98.6788 5.86616C97.8682 5.47662 96.9248 5.28185 95.8493 5.28185C94.8031 5.28185 93.8672 5.47662 93.0425 5.86616C92.2319 6.2557 91.591 6.88339 91.1197 7.74924C90.6626 8.61508 90.4336 9.76247 90.4336 11.1914C90.4336 12.6203 90.6626 13.7668 91.1188 14.6335C91.5901 15.4846 92.231 16.1049 93.0415 16.4945C93.8672 16.884 94.8031 17.0797 95.8493 17.0797C96.9248 17.0797 97.8682 16.884 98.6788 16.4945C99.4884 16.1049 100.123 15.4846 100.579 14.6335C101.036 13.7677 101.264 12.6203 101.264 11.1914C101.264 9.76247 101.036 8.61601 100.579 7.74924C100.123 6.88339 99.4884 6.2557 98.6788 5.86616ZM94.3686 7.01355C94.7664 6.1477 95.2603 5.71478 95.8493 5.71478C96.4535 5.71478 96.9474 6.1477 97.33 7.01355C97.7278 7.86462 97.9267 9.25754 97.9267 11.1914C97.9267 13.1252 97.7278 14.5182 97.33 15.3692C96.9474 16.2203 96.4535 16.6468 95.8493 16.6468C95.2603 16.6468 94.7664 16.2203 94.3686 15.3692C93.9709 14.5182 93.772 13.1252 93.772 11.1914C93.772 9.25754 93.9699 7.86462 94.3686 7.01355ZM83.2261 20.8459C82.3118 20.8459 81.4946 20.7665 80.7726 20.6077C80.0657 20.4637 79.5059 20.2329 79.0931 19.9154C78.6953 19.6117 78.4964 19.2369 78.4964 18.7892C78.4964 18.3415 78.7019 17.9382 79.1147 17.5772C79.5276 17.2311 80.1393 16.9569 80.9498 16.7548L81.1478 17.1009C80.8947 17.287 80.6841 17.5228 80.5295 17.7932C80.4117 18.0535 80.3523 18.3203 80.3523 18.5945C80.3523 19.2009 80.6322 19.6625 81.193 19.9791C81.768 20.3114 82.5408 20.4775 83.5135 20.4775C84.1761 20.4775 84.7661 20.3908 85.2817 20.2182C85.8124 20.0446 86.2242 19.7843 86.5192 19.4391C86.8293 19.092 86.9839 18.6665 86.9839 18.1615C86.9839 17.7286 86.8218 17.3603 86.4976 17.0575C86.1733 16.7686 85.5249 16.6246 84.5522 16.6246H83.1817C82.5785 16.6246 82.0469 16.56 81.5908 16.4299C81.1478 16.3006 80.8019 16.0975 80.5512 15.8234C80.3014 15.5354 80.176 15.1745 80.176 14.7415C80.176 14.1351 80.4192 13.6015 80.9055 13.1391C81.2863 12.7772 81.8123 12.4329 82.4833 12.1071C82.0421 12.0534 81.6088 11.9496 81.1921 11.7979C80.5295 11.5523 80.0064 11.1766 79.6237 10.6717C79.2401 10.1668 79.0488 9.51785 79.0488 8.72401C79.0488 7.93016 79.2401 7.28031 79.6237 6.77539C80.0064 6.2557 80.5295 5.88001 81.193 5.64924C81.8556 5.40462 82.6068 5.28185 83.4466 5.28185C84.2873 5.28185 85.0385 5.40462 85.7011 5.65016C86.1385 5.80155 86.5136 6.01662 86.8293 6.29355C87.0169 6.02862 87.245 5.79231 87.5136 5.58462C88.015 5.20985 88.5532 5.02155 89.1272 5.02155C89.5985 5.02155 89.9529 5.1517 90.1885 5.41201C90.4392 5.65662 90.5646 5.98155 90.5646 6.38585C90.5646 6.81878 90.4458 7.14278 90.2102 7.3597C89.9746 7.56278 89.7097 7.66339 89.4147 7.66339C89.1553 7.66003 88.9052 7.56795 88.7078 7.40308C88.5004 7.22955 88.3836 6.97016 88.3543 6.62401C88.3289 6.31385 88.4175 5.92985 88.6201 5.47016C88.1904 5.64924 87.8586 5.85324 87.6248 6.08308C87.4486 6.24948 87.2947 6.43714 87.1668 6.64155C87.2026 6.68493 87.2375 6.73016 87.2704 6.77539C87.6541 7.28031 87.8454 7.92924 87.8454 8.72308C87.8454 9.51693 87.6541 10.1668 87.2704 10.6717C86.8878 11.1766 86.3647 11.5523 85.7011 11.7979C85.0385 12.0425 84.2873 12.1652 83.4466 12.1652C83.3209 12.1654 83.1952 12.1626 83.0696 12.1569C82.8707 12.2889 82.6794 12.4292 82.4965 12.5769C82.383 12.6639 82.2918 12.7758 82.2305 12.9036C82.1691 13.0314 82.1391 13.1715 82.1431 13.3126C82.1431 13.7742 82.4381 14.0049 83.0272 14.0049H85.4363C86.2469 14.0049 86.9688 14.0991 87.6022 14.2865C88.2507 14.4748 88.7587 14.7849 89.1272 15.2179C89.5108 15.636 89.7022 16.1843 89.7022 16.8628C89.7022 17.5699 89.4665 18.2262 88.9953 18.8326C88.5381 19.4391 87.8312 19.9219 86.8727 20.2828C85.9151 20.6585 84.6992 20.8459 83.2261 20.8459ZM83.4466 11.7757C83.8453 11.7757 84.1535 11.5597 84.375 11.1268C84.5965 10.6791 84.7068 9.87785 84.7068 8.72401C84.7068 7.56924 84.5965 6.77539 84.375 6.34247C84.1544 5.89478 83.8453 5.67139 83.4475 5.67139C83.0639 5.67139 82.7548 5.89478 82.5192 6.34247C82.2977 6.77539 82.1874 7.56924 82.1874 8.72401C82.1874 9.87785 82.2977 10.6791 82.5192 11.1268C82.7548 11.5597 83.0639 11.7757 83.4466 11.7757ZM75.6349 5.86616C74.8244 5.47662 73.8818 5.28185 72.8064 5.28185C71.7602 5.28185 70.8243 5.47662 69.9995 5.86616C69.189 6.2557 68.548 6.88339 68.0768 7.74924C67.6197 8.61508 67.3906 9.76247 67.3906 11.1914C67.3906 12.6203 67.6197 13.7668 68.0758 14.6335C68.5471 15.4846 69.188 16.1049 69.9986 16.4945C70.8243 16.884 71.7602 17.0797 72.8064 17.0797C73.8818 17.0797 74.8253 16.884 75.6349 16.4945C76.4455 16.1049 77.0789 15.4846 77.536 14.6335C77.9931 13.7677 78.2212 12.6203 78.2212 11.1914C78.2212 9.76247 77.9931 8.61601 77.536 7.74924C77.0798 6.88339 76.4455 6.2557 75.6349 5.86616ZM71.3247 7.01355C71.7234 6.1477 72.2164 5.71478 72.8064 5.71478C73.4096 5.71478 73.9035 6.1477 74.2862 7.01355C74.6849 7.86462 74.8837 9.25754 74.8837 11.1914C74.8837 13.1252 74.6849 14.5182 74.2871 15.3692C73.9035 16.2203 73.4106 16.6468 72.8064 16.6468C72.2164 16.6468 71.7225 16.2203 71.3247 15.3692C70.927 14.5182 70.7281 13.1252 70.7281 11.1914C70.7281 9.25754 70.927 7.86462 71.3247 7.01355Z" fill="url(#paint3_linear_30_407)"/>
<path d="M61.4381 1.45013V1.88398C60.9376 1.89783 60.554 1.95506 60.2891 2.0566C60.1679 2.09679 60.0583 2.16501 59.9698 2.25548C59.8812 2.34594 59.8161 2.45599 59.7802 2.57629C59.6925 2.8209 59.6482 3.21137 59.6482 3.7449V14.7415C59.6482 15.1883 59.6774 15.5206 59.7368 15.7375C59.8103 15.9535 59.9432 16.0975 60.1346 16.1704C60.341 16.2424 60.6435 16.2784 61.0403 16.2784H62.1242C62.6238 16.2784 63.096 16.1631 63.538 15.9323C63.981 15.7015 64.3778 15.3766 64.7313 14.9575C65.1041 14.4921 65.4025 13.9738 65.6163 13.4206C65.8519 12.8298 66.0282 12.1726 66.146 11.4507H66.655C66.6107 11.9418 66.589 12.5769 66.589 13.356C66.589 13.6883 66.5956 14.1711 66.6107 14.8061C66.6258 15.4412 66.6691 16.0984 66.7426 16.776C65.896 16.7454 65.0488 16.7309 64.2016 16.7326C63.259 16.7188 62.4183 16.7114 61.6813 16.7114H60.2675C59.6925 16.7114 59.0733 16.7188 58.4107 16.7326C57.7471 16.7326 57.077 16.74 56.3993 16.7547C55.7207 16.7547 55.0798 16.7621 54.4766 16.776V16.3431C54.9478 16.3144 55.3013 16.2563 55.5369 16.1704C55.7725 16.0837 55.9271 15.9101 56.0016 15.6507C56.0892 15.3904 56.1335 15.0009 56.1335 14.4812V3.7449C56.1335 3.21044 56.0892 2.82183 56.0016 2.57629C55.9725 2.45621 55.9126 2.34541 55.8275 2.25444C55.7423 2.16346 55.6349 2.09536 55.5152 2.0566C55.2796 1.95506 54.9327 1.89783 54.4766 1.88306V1.45013C55.6401 1.49236 56.8043 1.5139 57.9686 1.51475C58.6171 1.51475 59.2505 1.50829 59.8688 1.49352C60.5031 1.47875 61.0262 1.4649 61.4381 1.45013Z" fill="url(#paint4_linear_30_407)"/>
<path fill-rule="evenodd" clip-rule="evenodd" d="M160.108 34.6643C160.077 34.5093 160.098 34.3071 160.172 34.0579L163.285 23.0114C162.787 23.2116 162.271 23.3676 161.744 23.4776C161.204 23.5819 160.585 23.6382 159.886 23.6493L159.774 23.976C160.294 23.976 160.617 24.0591 160.744 24.2253C160.87 24.3914 160.886 24.6499 160.791 25.0025L160.054 27.7246C160.008 27.5933 159.928 27.4758 159.822 27.3831C159.642 27.217 159.394 27.1339 159.076 27.1339C158.441 27.1339 157.852 27.2742 157.312 27.5539C156.769 27.8446 156.28 28.2235 155.867 28.6745C155.432 29.1315 155.063 29.6446 154.77 30.1994C154.482 30.7393 154.253 31.3078 154.087 31.8951C153.937 32.401 153.856 32.9245 153.849 33.4514C153.849 33.9489 153.929 34.3588 154.087 34.68C154.246 34.9911 154.463 35.2246 154.738 35.3797C155.014 35.5256 155.321 35.5976 155.66 35.5976C156.179 35.5976 156.645 35.448 157.058 35.1471C157.471 34.836 157.857 34.3588 158.218 33.7154C158.369 33.4533 158.521 33.1588 158.672 32.832L158.567 33.2179C158.471 33.5218 158.407 33.8345 158.377 34.1511C158.356 34.4206 158.377 34.6496 158.441 34.836C158.567 35.3437 158.959 35.5985 159.616 35.5985C159.859 35.5985 160.108 35.5514 160.362 35.4582C160.617 35.3649 160.854 35.2043 161.077 34.9754C161.311 34.7474 161.495 34.4216 161.633 33.9951L162.015 32.8597H161.713L161.459 33.5594C161.268 34.0893 161.088 34.4465 160.919 34.633C160.759 34.8102 160.595 34.8979 160.426 34.8979C160.246 34.8979 160.14 34.8203 160.108 34.6643ZM159.261 30.6582C159.141 31.0376 159.011 31.3985 158.869 31.7391C158.605 32.4037 158.324 32.9742 158.027 33.4514C157.741 33.9176 157.46 34.2803 157.185 34.5406C156.91 34.7889 156.666 34.9136 156.455 34.9136C156.253 34.9136 156.105 34.8203 156.01 34.6339C155.925 34.4363 155.883 34.1409 155.883 33.7468C155.883 33.1865 155.946 32.616 156.073 32.0354C156.2 31.4446 156.375 30.8788 156.597 30.3397C156.802 29.8338 157.057 29.349 157.36 28.8923C157.646 28.4566 157.948 28.1142 158.265 27.865C158.593 27.6157 158.917 27.492 159.234 27.492C159.446 27.492 159.616 27.565 159.743 27.7099C159.832 27.804 159.9 27.9406 159.947 28.1216L159.261 30.6582Z" fill="url(#paint5_linear_30_407)"/>
<path d="M149.537 35.3797H147.583L149.489 28.6745C149.585 28.3634 149.616 28.1456 149.585 28.021C149.553 27.8963 149.458 27.8345 149.298 27.8345C149.098 27.8345 148.912 27.9333 148.742 28.1299C148.573 28.3265 148.398 28.6745 148.218 29.173L147.948 29.9031H147.646L148.059 28.7363C148.208 28.321 148.393 28.0006 148.615 27.7717C148.838 27.5336 149.082 27.3674 149.346 27.2742C149.611 27.181 149.881 27.1339 150.156 27.1339C150.495 27.1339 150.744 27.2013 150.903 27.337C151.072 27.4717 151.179 27.648 151.221 27.8659C151.275 28.1006 151.285 28.3429 151.252 28.5813C151.232 28.8305 151.189 29.0742 151.125 29.3123L150.87 30.288L150.935 30.1219C151.232 29.3853 151.517 28.7991 151.792 28.3634C152.079 27.9176 152.38 27.601 152.698 27.4145C153.009 27.2292 153.367 27.1321 153.731 27.1339C154.112 27.1339 154.403 27.2428 154.605 27.4606C154.817 27.6785 154.922 27.948 154.922 28.2702C154.922 28.5286 154.858 28.7733 154.732 29.0013C154.609 29.2152 154.434 29.3967 154.223 29.5302C154.022 29.6548 153.79 29.7166 153.525 29.7166C153.26 29.7166 153.048 29.6493 152.888 29.5145C152.741 29.3797 152.666 29.1822 152.666 28.9237C152.666 28.6948 152.72 28.488 152.825 28.3006C152.927 28.1182 153.068 27.9593 153.238 27.8345C153.408 27.6997 153.594 27.6065 153.794 27.5539C153.772 27.5325 153.745 27.5167 153.715 27.5077C153.679 27.4967 153.642 27.4914 153.604 27.492C153.371 27.492 153.133 27.5751 152.888 27.7413C152.645 27.8963 152.391 28.1511 152.126 28.5037C151.861 28.8563 151.592 29.3225 151.316 29.9031C151.006 30.5897 150.73 31.2908 150.49 32.004C150.37 32.3493 150.249 32.7203 150.129 33.1182L149.537 35.3797Z" fill="url(#paint6_linear_30_407)"/>
<path fill-rule="evenodd" clip-rule="evenodd" d="M143.601 32.976L143.534 33.2179C143.434 33.5692 143.365 33.9284 143.328 34.2914C143.296 34.6237 143.349 34.9034 143.486 35.1314C143.698 35.4425 144.058 35.5985 144.566 35.5985C144.811 35.5985 145.054 35.5514 145.298 35.4582C145.551 35.3649 145.79 35.2043 146.012 34.9754C146.235 34.7373 146.42 34.405 146.568 33.9803L146.966 32.845H146.664L146.425 33.5446C146.235 34.0837 146.05 34.4419 145.87 34.6182C145.69 34.7936 145.515 34.8822 145.345 34.8822C145.207 34.8822 145.118 34.8406 145.075 34.7576C145.042 34.6519 145.031 34.5407 145.043 34.4308C145.064 34.2989 145.096 34.1689 145.139 34.0422L147.189 27.1339C146.869 27.2085 146.545 27.2607 146.219 27.2899C145.891 27.3213 145.536 27.3416 145.155 27.3517L144.925 28.1843C144.915 27.9729 144.852 27.7671 144.742 27.5853C144.659 27.4435 144.538 27.3265 144.393 27.2469C144.247 27.1674 144.082 27.1283 143.915 27.1339C143.45 27.1339 142.984 27.2742 142.517 27.5539C142.022 27.859 141.577 28.237 141.199 28.6745C140.771 29.1516 140.398 29.6732 140.087 30.2299C139.774 30.7881 139.524 31.3777 139.34 31.9883C139.167 32.5378 139.076 33.109 139.071 33.684C139.071 34.2656 139.208 34.7317 139.483 35.0843C139.759 35.4268 140.182 35.5976 140.754 35.5976C141.156 35.5976 141.543 35.484 141.914 35.256C142.295 35.0271 142.655 34.6486 142.994 34.1206C143.204 33.8022 143.406 33.4209 143.601 32.976ZM142.232 34.5554C141.988 34.7733 141.771 34.8822 141.581 34.8822C141.421 34.8822 141.3 34.8046 141.215 34.6486C141.14 34.4825 141.104 34.2083 141.104 33.8243C141.104 33.2742 141.167 32.7093 141.294 32.1286C141.421 31.5471 141.591 30.9877 141.803 30.4486C142.025 29.9086 142.269 29.4268 142.533 29.0013C142.798 28.5766 143.063 28.2388 143.328 27.9896C143.603 27.7403 143.862 27.6166 144.106 27.6166C144.36 27.6166 144.54 27.7413 144.647 27.9896C144.752 28.2148 144.779 28.5166 144.729 28.8942L144.259 30.5945L144.313 30.324C144.143 30.9877 143.942 31.5997 143.709 32.16C143.506 32.6609 143.262 33.1447 142.978 33.6065C142.724 34.0108 142.475 34.3274 142.232 34.5554ZM136.935 34.0579C136.86 34.3071 136.84 34.5093 136.872 34.6643C136.903 34.8203 137.009 34.8979 137.189 34.8979C137.359 34.8979 137.523 34.8102 137.681 34.6339C137.851 34.4465 138.031 34.0893 138.221 33.5594L138.476 32.8597H138.777L138.397 33.9951C138.259 34.4206 138.073 34.7474 137.841 34.9754C137.643 35.1874 137.398 35.3525 137.125 35.4582C136.887 35.5488 136.634 35.5963 136.379 35.5985C135.723 35.5985 135.331 35.3437 135.203 34.836C135.136 34.6141 135.115 34.3813 135.14 34.1511C135.161 33.8816 135.224 33.5696 135.331 33.2179L135.435 32.832C135.283 33.1588 135.132 33.4533 134.981 33.7154C134.621 34.3588 134.234 34.836 133.822 35.1462C133.419 35.4439 132.927 35.6029 132.423 35.5985C132.085 35.5985 131.777 35.5246 131.502 35.3806C131.218 35.2162 130.991 34.9722 130.851 34.68C130.691 34.3588 130.612 33.9489 130.612 33.4514C130.612 32.9742 130.691 32.4545 130.851 31.8951C131.009 31.3246 131.237 30.7597 131.533 30.1994C131.826 29.6448 132.195 29.1317 132.629 28.6745C133.064 28.2074 133.545 27.8345 134.075 27.5539C134.618 27.2731 135.224 27.1288 135.839 27.1339C136.156 27.1339 136.405 27.217 136.585 27.3831C136.689 27.4726 136.767 27.5862 136.818 27.7246L137.554 25.0025C137.65 24.6499 137.634 24.3905 137.507 24.2243C137.38 24.0582 137.056 23.9751 136.538 23.9751L136.649 23.6493C137.273 23.6458 137.895 23.5883 138.508 23.4776C139.035 23.3676 139.55 23.2116 140.049 23.0114L136.935 34.0579ZM135.632 31.7391C135.774 31.3976 135.905 31.0376 136.023 30.6582L136.71 28.1216C136.677 27.9701 136.607 27.8288 136.506 27.7099C136.444 27.6384 136.365 27.5816 136.277 27.5439C136.189 27.5062 136.094 27.4884 135.998 27.492C135.68 27.492 135.357 27.6166 135.029 27.865C134.71 28.1142 134.409 28.4566 134.123 28.8923C133.821 29.3485 133.565 29.833 133.361 30.3388C133.135 30.888 132.96 31.4558 132.837 32.0354C132.711 32.5977 132.647 33.1713 132.645 33.7468C132.645 34.1409 132.688 34.4363 132.773 34.633C132.868 34.8203 133.017 34.9136 133.217 34.9136C133.43 34.9136 133.673 34.789 133.948 34.5397C134.224 34.2813 134.504 33.9176 134.791 33.4505C135.121 32.9047 135.402 32.3321 135.632 31.7391Z" fill="url(#paint7_linear_30_407)"/>
<path d="M121.863 35.3797H123.817L124.001 34.6763L123.992 34.7271C124.193 34.0006 124.42 33.3009 124.675 32.6262C124.922 31.9822 125.198 31.349 125.5 30.7283C125.787 30.1468 126.073 29.6391 126.359 29.2034C126.645 28.7677 126.92 28.4308 127.185 28.1917C127.45 27.9425 127.693 27.8188 127.915 27.8188C128.095 27.8188 128.206 27.8806 128.249 28.0052C128.293 28.1466 128.298 28.2968 128.265 28.4409C128.233 28.6095 128.191 28.776 128.138 28.9394L126.693 33.2178C126.544 33.6535 126.459 34.0265 126.438 34.3375C126.417 34.6486 126.475 34.9034 126.613 35.1C126.719 35.256 126.867 35.3751 127.058 35.4582C127.259 35.5505 127.498 35.5985 127.773 35.5985C128.026 35.5985 128.281 35.5514 128.535 35.4582C128.8 35.3751 129.043 35.2191 129.266 34.9911C129.499 34.7631 129.69 34.4308 129.838 33.9951L130.235 32.8597H129.933L129.679 33.5594C129.478 34.0994 129.288 34.4566 129.108 34.6329C128.938 34.8102 128.774 34.8978 128.615 34.8978C128.445 34.8978 128.339 34.8305 128.297 34.6948C128.255 34.5508 128.281 34.3375 128.376 34.0578L129.933 29.4831C130.071 29.0788 130.14 28.7003 130.14 28.3477C130.15 27.9849 130.05 27.6942 129.838 27.4763C129.636 27.2483 129.276 27.1348 128.758 27.1348C128.366 27.1348 127.99 27.2179 127.63 27.3831C127.27 27.5492 126.92 27.8391 126.582 28.2545C126.242 28.6588 125.893 29.2089 125.533 29.9031C125.294 30.3713 125.074 30.8489 124.876 31.3348L125.405 29.3123C125.469 29.0631 125.517 28.8138 125.549 28.5655C125.581 28.3071 125.569 28.0726 125.517 27.8649C125.466 27.6505 125.336 27.462 125.152 27.336C124.972 27.2012 124.707 27.1339 124.357 27.1339C123.933 27.1339 123.547 27.2483 123.197 27.4763C122.848 27.7043 122.562 28.1243 122.339 28.7363L121.926 29.9031H122.228L122.499 29.172C122.689 28.6643 122.863 28.3163 123.023 28.1299C123.192 27.9332 123.377 27.8345 123.579 27.8345C123.727 27.8345 123.817 27.876 123.849 27.9591C123.891 28.0422 123.902 28.1455 123.88 28.2702C123.857 28.4066 123.825 28.5416 123.785 28.6745L121.863 35.3797Z" fill="url(#paint8_linear_30_407)"/>
<path fill-rule="evenodd" clip-rule="evenodd" d="M117.814 33.2178L117.881 32.976C117.712 33.3733 117.509 33.7561 117.274 34.1206C116.935 34.6486 116.575 35.028 116.193 35.256C115.823 35.484 115.436 35.5975 115.034 35.5975C114.462 35.5975 114.039 35.4268 113.763 35.0843C113.487 34.7317 113.35 34.2655 113.35 33.684C113.35 33.1449 113.44 32.58 113.62 31.9883C113.804 31.3777 114.054 30.7881 114.367 30.2299C114.678 29.673 115.051 29.1513 115.479 28.6745C115.857 28.237 116.302 27.859 116.797 27.5539C117.263 27.2742 117.73 27.1339 118.195 27.1339C118.555 27.1339 118.83 27.2843 119.022 27.5862C119.124 27.7403 119.185 27.9397 119.205 28.1843L119.435 27.3517C119.815 27.3415 120.171 27.3212 120.499 27.2898C120.838 27.2585 121.16 27.2068 121.468 27.1339L119.419 34.0431C119.375 34.1697 119.344 34.2997 119.323 34.4317C119.311 34.5416 119.322 34.6528 119.355 34.7585C119.398 34.8415 119.487 34.8831 119.625 34.8831C119.795 34.8831 119.969 34.7954 120.149 34.6191C120.329 34.4428 120.515 34.0837 120.705 33.5455L120.944 32.8449H121.245L120.848 33.9803C120.7 34.4058 120.515 34.7372 120.292 34.9772C120.094 35.1887 119.85 35.3535 119.578 35.4591C119.345 35.5504 119.097 35.598 118.846 35.5994C118.338 35.5994 117.978 35.4434 117.766 35.1323C117.629 34.9043 117.576 34.6246 117.608 34.2923C117.645 33.9293 117.714 33.5692 117.814 33.2178ZM115.86 34.8822C116.051 34.8822 116.268 34.7732 116.512 34.5554C116.755 34.3274 117.004 34.0108 117.258 33.6065C117.512 33.2022 117.756 32.7203 117.989 32.16C118.222 31.5997 118.423 30.9877 118.593 30.3231L118.539 30.5945L119.009 28.8951C119.059 28.5166 119.031 28.2148 118.927 27.9905C118.82 27.7412 118.64 27.6166 118.386 27.6166C118.142 27.6166 117.883 27.7412 117.608 27.9895C117.343 28.2388 117.078 28.5757 116.813 29.0012C116.549 29.4258 116.304 29.9086 116.082 30.4477C115.869 30.994 115.699 31.5557 115.574 32.1277C115.449 32.6851 115.386 33.2538 115.384 33.8243C115.384 34.2083 115.42 34.4834 115.495 34.6486C115.58 34.8046 115.701 34.8822 115.86 34.8822Z" fill="url(#paint9_linear_30_407)"/>
<path d="M114.452 27.6628L114.5 27.3517H112.607L113.355 24.8003C113.042 24.8759 112.724 24.928 112.402 24.9563C112.074 24.9868 111.719 25.008 111.338 25.0182L110.655 27.3517H109.209L109.13 27.6628H110.565L108.939 33.2179C108.801 33.6739 108.754 34.0837 108.796 34.4465C108.849 34.7991 108.997 35.0797 109.241 35.2865C109.495 35.4942 109.86 35.5985 110.337 35.5985C110.877 35.5985 111.343 35.4582 111.735 35.1776C112.127 34.8979 112.435 34.4363 112.657 33.7929L112.975 32.8597H112.672L112.435 33.4976C112.243 34.0163 112.032 34.3791 111.798 34.5868C111.576 34.7945 111.353 34.8979 111.131 34.8979C111.044 34.9007 110.957 34.8839 110.877 34.8487C110.797 34.8135 110.727 34.7608 110.671 34.6948C110.565 34.5609 110.554 34.3486 110.639 34.0579L112.516 27.6628H114.452ZM109.19 24.2557C109.085 24.5253 108.942 24.9203 108.762 25.4382C108.592 25.9459 108.423 26.6105 108.253 27.4293H107.936C107.967 27.2843 107.989 27.1339 107.999 26.9788C108.019 26.8397 108.03 26.6993 108.031 26.5588C108.031 26.1536 107.946 25.8019 107.777 25.5009C107.614 25.1854 107.352 24.9289 107.03 24.7689C106.702 24.5825 106.278 24.4893 105.76 24.4893C105.198 24.4893 104.721 24.6342 104.33 24.9249C103.938 25.2046 103.742 25.656 103.742 26.2782C103.742 26.6622 103.831 27.0259 104.011 27.3674C104.202 27.6997 104.441 28.0265 104.727 28.3477C105.023 28.6588 105.335 28.9754 105.663 29.2966C105.992 29.6077 106.3 29.9299 106.585 30.2613C106.871 30.5936 107.105 30.9462 107.285 31.3191C107.475 31.6828 107.57 32.0816 107.57 32.5173C107.57 33.0674 107.433 33.5391 107.157 33.9333C106.889 34.3204 106.536 34.6445 106.124 34.8822C105.693 35.1239 105.227 35.3021 104.743 35.4111C104.276 35.5331 103.796 35.5961 103.313 35.5985C102.836 35.5985 102.439 35.5616 102.121 35.4896C101.85 35.4395 101.588 35.3502 101.343 35.2246C101.135 35.113 100.928 34.9991 100.723 34.8831C100.629 34.8062 100.521 34.7479 100.405 34.7114C100.331 34.675 100.25 34.6536 100.168 34.6486C100.029 34.6486 99.913 34.716 99.8179 34.8517C99.6929 35.0544 99.5866 35.2675 99.5002 35.4886H99.1816C99.444 34.856 99.662 34.2064 99.8339 33.5446C99.9602 33.0674 100.103 32.4711 100.263 31.7548H100.58C100.536 31.9609 100.499 32.1684 100.469 32.3769C100.437 32.5846 100.427 32.7923 100.437 33C100.469 33.7256 100.696 34.2859 101.12 34.68C101.555 35.0742 102.19 35.2708 103.026 35.2708C103.736 35.2708 104.271 35.1259 104.631 34.836C104.991 34.5351 105.171 34.0994 105.171 33.5289C105.171 33.0933 105.087 32.6982 104.917 32.3465C104.757 31.9807 104.543 31.6398 104.282 31.3348C104.012 31.0192 103.732 30.7131 103.44 30.4173C103.148 30.1213 102.867 29.815 102.597 29.4988C102.337 29.1846 102.119 28.8398 101.946 28.4723C101.773 28.0795 101.686 27.6551 101.693 27.2271C101.693 26.7093 101.804 26.2579 102.026 25.8739C102.25 25.4993 102.553 25.1758 102.915 24.9249C103.286 24.6655 103.7 24.4707 104.138 24.3489C104.565 24.217 105.01 24.1489 105.457 24.1468C106.029 24.1468 106.5 24.2142 106.871 24.3499C107.242 24.4837 107.56 24.6452 107.825 24.8317L108.126 25.0182C108.221 25.0597 108.296 25.08 108.349 25.08C108.497 25.08 108.672 24.8059 108.873 24.2557H109.19Z" fill="url(#paint10_linear_30_407)"/>
<path fill-rule="evenodd" clip-rule="evenodd" d="M93.855 34.6643C93.823 34.5093 93.8447 34.3071 93.9191 34.0579L97.0323 23.0114C96.5339 23.2116 96.0181 23.3676 95.4913 23.4776C94.9512 23.5819 94.332 23.6382 93.6326 23.6493L93.5214 23.976C94.0398 23.976 94.364 24.0591 94.4903 24.2253C94.6175 24.3914 94.6336 24.6499 94.5384 25.0025L93.8013 27.7246C93.755 27.5933 93.6752 27.4757 93.5695 27.3831C93.3894 27.217 93.1406 27.1339 92.823 27.1339C92.1868 27.1339 91.5996 27.2742 91.0595 27.5539C90.5162 27.8445 90.0273 28.2235 89.6137 28.6745C89.179 29.1315 88.8102 29.6446 88.5175 30.1994C88.229 30.7393 87.9999 31.3077 87.8342 31.8951C87.6833 32.401 87.6031 32.9245 87.5957 33.4514C87.5957 33.9489 87.6758 34.3588 87.8342 34.68C87.9935 34.9911 88.2102 35.2246 88.4855 35.3797C88.7607 35.5256 89.0679 35.5976 89.4072 35.5976C89.9256 35.5976 90.3922 35.448 90.805 35.1471C91.2178 34.836 91.6043 34.3588 91.9643 33.7154C92.1151 33.4533 92.2669 33.1588 92.4186 32.832L92.3149 33.2179C92.2186 33.5217 92.1544 33.8344 92.1236 34.1511C92.0983 34.3813 92.1198 34.614 92.1868 34.836C92.314 35.3437 92.7052 35.5985 93.363 35.5985C93.6062 35.5985 93.855 35.5514 94.1095 35.4582C94.364 35.3649 94.6015 35.2043 94.824 34.9754C95.0577 34.7474 95.2424 34.4216 95.3801 33.9951L95.7618 32.8597H95.4602L95.2057 33.5594C95.0153 34.0893 94.8353 34.4465 94.6656 34.633C94.5063 34.8102 94.3423 34.8979 94.1727 34.8979C93.9936 34.8979 93.8871 34.8203 93.855 34.6643ZM93.0068 30.6582C92.888 31.0376 92.7579 31.3985 92.6156 31.7391C92.3517 32.4037 92.0708 32.9742 91.7739 33.4514C91.4884 33.9176 91.2075 34.2803 90.9323 34.5406C90.657 34.7889 90.4139 34.9136 90.2009 34.9136C90.0001 34.9136 89.8521 34.8203 89.7569 34.6339C89.6721 34.4363 89.6297 34.1409 89.6297 33.7468C89.6297 33.1865 89.6928 32.616 89.8201 32.0354C89.9473 31.4446 90.1217 30.8788 90.3441 30.3397C90.5491 29.8337 90.8048 29.3489 91.1076 28.8923C91.3932 28.4566 91.6948 28.1142 92.0124 27.865C92.3404 27.6157 92.6637 27.492 92.9813 27.492C93.1934 27.492 93.363 27.565 93.4903 27.7099C93.5789 27.804 93.6467 27.9406 93.6939 28.1216L93.0068 30.6582Z" fill="url(#paint11_linear_30_407)"/>
<path d="M80.8015 35.3797H78.8477L80.7704 28.6745C80.8128 28.5295 80.8439 28.3948 80.8647 28.2702C80.8883 28.1659 80.8774 28.0569 80.8336 27.9591C80.8015 27.876 80.711 27.8345 80.5631 27.8345C80.3623 27.8345 80.1766 27.9332 80.007 28.1299C79.8486 28.3163 79.6733 28.6643 79.4829 29.1729L79.2134 29.9031H78.9117L79.3246 28.7363C79.547 28.1243 79.8335 27.7043 80.1823 27.4763C80.531 27.2483 80.9175 27.1348 81.3416 27.1348C81.6913 27.1348 81.9561 27.2012 82.1361 27.336C82.3207 27.4618 82.4511 27.6503 82.5018 27.8649C82.5546 28.0726 82.565 28.3062 82.5339 28.5655C82.5015 28.8171 82.4536 29.0664 82.3906 29.3123L81.8609 31.3357C82.0852 30.792 82.3039 30.3157 82.5179 29.9031C82.8779 29.2089 83.2266 28.6588 83.566 28.2545C83.9053 27.8391 84.254 27.5492 84.6141 27.3831C84.975 27.2169 85.3502 27.1339 85.7423 27.1339C86.2606 27.1339 86.6216 27.2483 86.8224 27.4763C87.0345 27.6942 87.1353 27.984 87.124 28.3477C87.124 28.7003 87.0561 29.0788 86.9176 29.4831L85.3615 34.0578C85.2653 34.3375 85.2389 34.5508 85.2814 34.6948C85.3238 34.8305 85.4303 34.8978 85.5999 34.8978C85.7583 34.8978 85.9223 34.8102 86.0919 34.6339C86.272 34.4566 86.4623 34.0985 86.664 33.5594L86.9185 32.8597H87.2201L86.8224 33.9951C86.6744 34.4308 86.4831 34.7631 86.2512 34.992C86.0516 35.2055 85.8 35.3658 85.5198 35.4582C85.2764 35.5496 85.0181 35.5972 84.7573 35.5985C84.4821 35.5985 84.2436 35.5514 84.0429 35.4582C83.8515 35.3751 83.7036 35.2551 83.598 35.1C83.4604 34.9034 83.402 34.6486 83.4227 34.3375C83.4444 34.0265 83.5292 33.6535 83.6772 33.2178L85.123 28.9394C85.1758 28.7732 85.2182 28.6071 85.2503 28.4409C85.2836 28.2968 85.2781 28.1466 85.2342 28.0052C85.1918 27.8806 85.0806 27.8188 84.9006 27.8188C84.6781 27.8188 84.434 27.9434 84.1701 28.1917C83.9053 28.4308 83.6291 28.7677 83.3435 29.2034C83.0265 29.6943 82.7401 30.2035 82.4858 30.7283C82.2002 31.3099 81.9241 31.9412 81.6592 32.6262C81.4047 33.3 81.1785 34.0006 80.9768 34.7271L80.9863 34.6763L80.8015 35.3797Z" fill="url(#paint12_linear_30_407)"/>
<path fill-rule="evenodd" clip-rule="evenodd" d="M74.8647 32.976L74.7987 33.2179C74.6987 33.5693 74.6293 33.9284 74.5914 34.2914C74.5593 34.6237 74.6121 34.9034 74.7497 35.1314C74.9618 35.4425 75.3218 35.5985 75.8308 35.5985C76.1024 35.5966 76.3708 35.5403 76.6194 35.4332C76.8681 35.326 77.0917 35.1702 77.2766 34.9754C77.4991 34.7372 77.6838 34.4049 77.8327 33.9803L78.2286 32.8449H77.927L77.6895 33.5446C77.4981 34.0837 77.3125 34.4419 77.1334 34.6182C76.9534 34.7935 76.7781 34.8822 76.6093 34.8822C76.4708 34.8822 76.3813 34.8406 76.3388 34.7575C76.3057 34.6519 76.2948 34.5407 76.3068 34.4308C76.3285 34.296 76.3596 34.1668 76.4029 34.0422L78.452 27.1339C78.1332 27.2085 77.8094 27.2606 77.4831 27.2899C77.1541 27.3212 76.7997 27.3415 76.418 27.3517L76.188 28.1843C76.1782 27.973 76.1154 27.7672 76.0052 27.5852C75.9225 27.4436 75.8019 27.3267 75.6564 27.2472C75.5109 27.1676 75.346 27.1284 75.1795 27.1339C74.713 27.1339 74.2464 27.2742 73.7808 27.5539C73.3152 27.8345 72.876 28.2074 72.4622 28.6745C72.0343 29.1514 71.6613 29.673 71.35 30.2299C71.0376 30.7881 70.7873 31.3777 70.6035 31.9883C70.4302 32.5378 70.3394 33.109 70.334 33.684C70.334 34.2655 70.4716 34.7317 70.7468 35.0843C71.022 35.4268 71.4462 35.5975 72.0173 35.5975C72.4198 35.5975 72.8072 35.484 73.1766 35.256C73.5584 35.0271 73.9194 34.6486 74.2577 34.1206C74.4679 33.8022 74.6696 33.4209 74.8647 32.976ZM73.4952 34.5554C73.252 34.7732 73.0343 34.8822 72.8439 34.8822C72.6847 34.8822 72.5631 34.8046 72.4782 34.6486C72.4047 34.4825 72.367 34.2083 72.367 33.8243C72.367 33.2742 72.4311 32.7092 72.5584 32.1286C72.6847 31.5471 72.8543 30.9877 73.0664 30.4486C73.2888 29.9086 73.532 29.4268 73.7968 29.0012C74.0617 28.5766 74.3265 28.2388 74.5914 27.9895C74.8666 27.7403 75.1258 27.6166 75.3699 27.6166C75.6244 27.6166 75.8035 27.7412 75.91 27.9895C76.0155 28.2148 76.0419 28.5166 75.992 28.8942L75.5226 30.5945L75.5763 30.324C75.4067 30.9877 75.2059 31.5997 74.9731 32.16C74.7394 32.7194 74.4962 33.2022 74.2417 33.6065C73.9872 34.0108 73.7384 34.3274 73.4952 34.5554Z" fill="url(#paint13_linear_30_407)"/>
<path d="M66.0857 35.3797H64.1318L66.0376 28.6745C66.1328 28.3634 66.1649 28.1456 66.1328 28.021C66.1017 27.8963 66.0065 27.8345 65.8472 27.8345C65.6465 27.8345 65.4608 27.9333 65.2911 28.1299C65.1215 28.3265 64.9471 28.6745 64.7671 29.173L64.4966 29.9031H64.195L64.6078 28.7363C64.7567 28.321 64.9415 28.0006 65.1639 27.7717C65.3863 27.5336 65.6305 27.3674 65.8953 27.2742C66.1592 27.181 66.4297 27.1339 66.7059 27.1339C67.0443 27.1339 67.2931 27.2013 67.4514 27.337C67.6199 27.4693 67.7332 27.6574 67.77 27.8659C67.8228 28.0837 67.8331 28.3219 67.8011 28.5813C67.7804 28.8305 67.738 29.0742 67.6739 29.3123L67.4194 30.288L67.4448 30.2206L67.4835 30.1219C67.7804 29.3853 68.066 28.7991 68.3412 28.3634C68.6277 27.9176 68.9293 27.601 69.2469 27.4145C69.5582 27.2292 69.9157 27.1321 70.28 27.1339C70.6607 27.1339 70.952 27.2428 71.1537 27.4606C71.3648 27.6785 71.4713 27.948 71.4713 28.2702C71.4713 28.5286 71.4072 28.7733 71.28 29.0013C71.1567 29.2151 70.9824 29.3966 70.7719 29.5302C70.562 29.6569 70.3192 29.7217 70.0726 29.7166C69.8087 29.7166 69.5966 29.6493 69.4373 29.5145C69.2894 29.3797 69.2149 29.1822 69.2149 28.9237C69.2149 28.6948 69.2677 28.488 69.3742 28.3006C69.4797 28.1142 69.6174 27.9591 69.787 27.8345C69.9567 27.6997 70.1414 27.6065 70.3431 27.5539C70.3208 27.5326 70.2936 27.5168 70.2639 27.5077C70.2428 27.5007 70.221 27.4961 70.1989 27.4939C70.1832 27.4924 70.1675 27.4918 70.1518 27.492C69.9199 27.492 69.6805 27.5751 69.4373 27.7413C69.1942 27.8963 68.9397 28.1511 68.6748 28.5037C68.4109 28.8563 68.1404 29.3225 67.8642 29.9031C67.5537 30.5896 67.2782 31.2908 67.0386 32.004C66.9189 32.3483 66.7982 32.7203 66.6776 33.1182L66.0857 35.3797Z" fill="url(#paint14_linear_30_407)"/>
<path fill-rule="evenodd" clip-rule="evenodd" d="M63.1132 24.9406C62.5835 24.5668 61.7362 24.3803 60.5712 24.3803C60.2112 24.3803 59.8511 24.3859 59.4901 24.396C59.1414 24.4062 58.7389 24.4117 58.2837 24.4117H57.4891C57.2026 24.4006 56.933 24.396 56.6786 24.396C56.4667 24.3869 56.255 24.3764 56.0433 24.3646L55.9641 24.6757C56.377 24.6757 56.6578 24.7274 56.8058 24.8317C56.9651 24.924 57.0386 25.0699 57.0282 25.2674C57.0069 25.5193 56.9643 25.7691 56.901 26.0142L54.8039 33.7311C54.7096 34.104 54.6031 34.3846 54.4862 34.5711C54.3807 34.7494 54.211 34.8828 54.0103 34.9449C53.8086 35.0068 53.5277 35.0483 53.1676 35.0686L53.1045 35.3797C53.2836 35.3705 53.5013 35.3649 53.7548 35.3649C54.0093 35.3539 54.2798 35.3492 54.5654 35.3492C55.3649 35.3254 56.165 35.3307 56.9641 35.3649C57.3987 35.3742 57.7964 35.3806 58.1564 35.3806C58.8445 35.3806 59.4958 35.3123 60.1103 35.1775C60.6767 35.0517 61.2185 34.8366 61.7145 34.5406C62.1582 34.2818 62.5337 33.9245 62.8107 33.4975C63.0859 33.0822 63.2235 32.5957 63.2235 32.0354C63.2235 31.4022 62.9596 30.8575 62.4299 30.4015C61.9115 29.9446 61.0896 29.6751 59.967 29.592C60.6674 29.4935 61.3479 29.2889 61.9841 28.9855C62.5778 28.6846 63.0435 28.3163 63.3828 27.8806C63.7243 27.467 63.9094 26.9504 63.9068 26.4185C63.9068 25.7963 63.6438 25.3034 63.1132 24.9406ZM58.0424 29.7951L56.9802 33.7311C56.917 33.9895 56.8746 34.2185 56.8539 34.4151C56.8426 34.6126 56.8953 34.7631 57.0122 34.8674C57.1291 34.9708 57.3459 35.0225 57.6635 35.0225C58.4156 35.0225 59.0302 34.8822 59.5061 34.6025C59.9725 34.3339 60.3441 33.9323 60.5712 33.4514C60.804 32.9529 60.9199 32.3926 60.9199 31.7714C60.9199 31.3865 60.8511 31.0495 60.7135 30.7597C60.5924 30.4652 60.3745 30.2187 60.0943 30.0591C59.8087 29.8828 59.427 29.7951 58.9501 29.7951H58.0424ZM58.114 29.5302H58.8398C59.443 29.5302 59.9567 29.3797 60.3799 29.0788C60.8144 28.7677 61.1433 28.3634 61.3658 27.8659C61.5974 27.3729 61.7164 26.8365 61.7145 26.2939C61.7145 25.7751 61.6089 25.3763 61.3969 25.0957C61.1961 24.816 60.8408 24.6757 60.3318 24.6757C59.9623 24.6757 59.6975 24.7486 59.5382 24.8935C59.3798 25.0283 59.2422 25.3237 59.1254 25.7797L58.114 29.5302Z" fill="url(#paint15_linear_30_407)"/>
</g>
<defs>
<linearGradient id="paint0_linear_30_407" x1="-2.33126e-07" y1="15.7249" x2="142.022" y2="21.2677" gradientUnits="userSpaceOnUse">
<stop stop-color="#A478E8"/>
<stop offset="1" stop-color="#516CF7"/>
</linearGradient>
<linearGradient id="paint1_linear_30_407" x1="108.201" y1="12.1402" x2="123.979" y2="12.2968" gradientUnits="userSpaceOnUse">
<stop stop-color="#A478E8"/>
<stop offset="1" stop-color="#516CF7"/>
</linearGradient>
<linearGradient id="paint2_linear_30_407" x1="121.366" y1="10.5318" x2="175.244" y2="12.9221" gradientUnits="userSpaceOnUse">
<stop stop-color="#A478E8"/>
<stop offset="1" stop-color="#516CF7"/>
</linearGradient>
<linearGradient id="paint3_linear_30_407" x1="67.3906" y1="12.0633" x2="111.972" y2="13.282" gradientUnits="userSpaceOnUse">
<stop stop-color="#A478E8"/>
<stop offset="1" stop-color="#516CF7"/>
</linearGradient>
<linearGradient id="paint4_linear_30_407" x1="54.4766" y1="8.27007" x2="70.6305" y2="8.43518" gradientUnits="userSpaceOnUse">
<stop stop-color="#A478E8"/>
<stop offset="1" stop-color="#516CF7"/>
</linearGradient>
<linearGradient id="paint5_linear_30_407" x1="153.849" y1="28.6126" x2="166.276" y2="28.7316" gradientUnits="userSpaceOnUse">
<stop stop-color="#A478E8"/>
<stop offset="1" stop-color="#516CF7"/>
</linearGradient>
<linearGradient id="paint6_linear_30_407" x1="147.583" y1="30.8032" x2="157.249" y2="30.9131" gradientUnits="userSpaceOnUse">
<stop stop-color="#A478E8"/>
<stop offset="1" stop-color="#516CF7"/>
</linearGradient>
<linearGradient id="paint7_linear_30_407" x1="130.612" y1="28.6126" x2="152.439" y2="28.9797" gradientUnits="userSpaceOnUse">
<stop stop-color="#A478E8"/>
<stop offset="1" stop-color="#516CF7"/>
</linearGradient>
<linearGradient id="paint8_linear_30_407" x1="121.863" y1="30.9006" x2="132.888" y2="31.0398" gradientUnits="userSpaceOnUse">
<stop stop-color="#A478E8"/>
<stop offset="1" stop-color="#516CF7"/>
</linearGradient>
<linearGradient id="paint9_linear_30_407" x1="113.35" y1="30.901" x2="124.04" y2="31.0319" gradientUnits="userSpaceOnUse">
<stop stop-color="#A478E8"/>
<stop offset="1" stop-color="#516CF7"/>
</linearGradient>
<linearGradient id="paint10_linear_30_407" x1="99.1816" y1="29.2427" x2="119.351" y2="29.5873" gradientUnits="userSpaceOnUse">
<stop stop-color="#A478E8"/>
<stop offset="1" stop-color="#516CF7"/>
</linearGradient>
<linearGradient id="paint11_linear_30_407" x1="87.5957" y1="28.6126" x2="100.024" y2="28.7316" gradientUnits="userSpaceOnUse">
<stop stop-color="#A478E8"/>
<stop offset="1" stop-color="#516CF7"/>
</linearGradient>
<linearGradient id="paint12_linear_30_407" x1="78.8477" y1="30.9006" x2="89.8733" y2="31.0398" gradientUnits="userSpaceOnUse">
<stop stop-color="#A478E8"/>
<stop offset="1" stop-color="#516CF7"/>
</linearGradient>
<linearGradient id="paint13_linear_30_407" x1="70.334" y1="30.9003" x2="81.0246" y2="31.0312" gradientUnits="userSpaceOnUse">
<stop stop-color="#A478E8"/>
<stop offset="1" stop-color="#516CF7"/>
</linearGradient>
<linearGradient id="paint14_linear_30_407" x1="64.1318" y1="30.8032" x2="73.7974" y2="30.9131" gradientUnits="userSpaceOnUse">
<stop stop-color="#A478E8"/>
<stop offset="1" stop-color="#516CF7"/>
</linearGradient>
<linearGradient id="paint15_linear_30_407" x1="53.1045" y1="29.2667" x2="67.3301" y2="29.4448" gradientUnits="userSpaceOnUse">
<stop stop-color="#A478E8"/>
<stop offset="1" stop-color="#516CF7"/>
</linearGradient>
<clipPath id="clip0_30_407">
<rect width="164" height="36" fill="white"/>
</clipPath>
</defs>
</svg>
