<svg width="154" height="36" viewBox="0 0 154 36" fill="none" xmlns="http://www.w3.org/2000/svg">
<g clip-path="url(#clip0_30_400)">
<path fill-rule="evenodd" clip-rule="evenodd" d="M9.12591 2.25V36H0V2.25H9.12591Z" fill="url(#paint0_linear_30_400)"/>
<path fill-rule="evenodd" clip-rule="evenodd" d="M13.6885 2.25H33.0811C39.3812 2.25 44.4885 7.2868 44.4885 13.5C44.4885 19.7132 39.3812 24.75 33.0811 24.75H22.8144V36H13.6885V2.25ZM22.8144 15.75H33.0811C34.3412 15.75 35.3626 14.7426 35.3626 13.5C35.3626 12.2574 34.3412 11.25 33.0811 11.25H22.8144V15.75Z" fill="url(#paint1_linear_30_400)"/>
<path fill-rule="evenodd" clip-rule="evenodd" d="M78.7109 2.25V19.6875C78.7109 23.7261 82.0305 27 86.1257 27C90.2208 27 93.5406 23.7261 93.5406 19.6875V2.25H102.667V19.6875C102.667 28.6967 95.261 36 86.1257 36C76.9904 36 69.585 28.6967 69.585 19.6875V2.25H78.7109Z" fill="url(#paint2_linear_30_400)"/>
<path fill-rule="evenodd" clip-rule="evenodd" d="M47.9111 18C47.9111 9.3015 55.0612 2.25 63.8814 2.25H66.1629V11.25H63.8814C60.1013 11.25 57.037 14.2721 57.037 18V19.125C57.037 28.4448 49.3761 36 39.9259 36H38.7852V27H39.9259C44.336 27 47.9111 23.4742 47.9111 19.125V18Z" fill="url(#paint3_linear_30_400)"/>
<path d="M154 3.375C154 5.23896 152.468 6.75 150.577 6.75C148.687 6.75 147.155 5.23896 147.155 3.375C147.155 1.51104 148.687 0 150.577 0C152.468 0 154 1.51104 154 3.375Z" fill="url(#paint4_linear_30_400)"/>
<path d="M112.465 36L116.82 18.0163L120.058 28.8354C121.988 35.2882 131.256 35.2882 133.187 28.8354L136.424 18.0163L140.778 36H150.161L143.313 7.72152C141.685 0.996677 132.076 0.747684 130.091 7.379L126.622 18.975L123.152 7.37901C121.168 0.747724 111.558 0.996642 109.93 7.72151L103.083 36H112.465Z" fill="url(#paint5_linear_30_400)"/>
</g>
<defs>
<linearGradient id="paint0_linear_30_400" x1="-1.97002e-08" y1="17.2686" x2="12.0196" y2="17.3101" gradientUnits="userSpaceOnUse">
<stop stop-color="#A478E8"/>
<stop offset="1" stop-color="#516CF7"/>
</linearGradient>
<linearGradient id="paint1_linear_30_400" x1="13.6885" y1="17.2686" x2="54.2497" y2="17.7413" gradientUnits="userSpaceOnUse">
<stop stop-color="#A478E8"/>
<stop offset="1" stop-color="#516CF7"/>
</linearGradient>
<linearGradient id="paint2_linear_30_400" x1="69.585" y1="17.2686" x2="113.15" y2="17.8139" gradientUnits="userSpaceOnUse">
<stop stop-color="#A478E8"/>
<stop offset="1" stop-color="#516CF7"/>
</linearGradient>
<linearGradient id="paint3_linear_30_400" x1="38.7852" y1="17.2686" x2="74.8406" y2="17.6421" gradientUnits="userSpaceOnUse">
<stop stop-color="#A478E8"/>
<stop offset="1" stop-color="#516CF7"/>
</linearGradient>
<linearGradient id="paint4_linear_30_400" x1="147.155" y1="3.00372" x2="156.168" y2="3.12043" gradientUnits="userSpaceOnUse">
<stop stop-color="#A478E8"/>
<stop offset="1" stop-color="#516CF7"/>
</linearGradient>
<linearGradient id="paint5_linear_30_400" x1="103.083" y1="17.4291" x2="165.069" y2="18.5429" gradientUnits="userSpaceOnUse">
<stop stop-color="#A478E8"/>
<stop offset="1" stop-color="#516CF7"/>
</linearGradient>
<clipPath id="clip0_30_400">
<rect width="154" height="36" fill="white"/>
</clipPath>
</defs>
</svg>
